<svg id="Layer_1" data-name="Layer 1" xmlns="http://www.w3.org/2000/svg" viewBox="0 0 20 20">
  <defs>
    <style>
      .cls-1 {
        fill: none;
        stroke: #fff;
        stroke-miterlimit: 10;
        stroke-width: 0.5px;
      }
    </style>
  </defs>
  <title>icons white line</title>
  <g id="PROFILE">
    <g id="status-_Logic_" data-name="status-(Logic)">
      <g id="Todas-las-cuentas-Copy">
        <path id="Todas-las-cuentas" class="cls-1" d="M10,20A10,10,0,1,1,20,10,10,10,0,0,1,10,20ZM13.82628,9.20181a1.35926,1.35926,0,1,0-1.33661-1.35907A1.34244,1.34244,0,0,0,13.82628,9.20181Zm-3.56429,0A1.35926,1.35926,0,1,0,8.92538,7.84274,1.34244,1.34244,0,0,0,10.262,9.20181Zm0,.906c-1.0381,0-3.11876.53-3.11876,1.58559V12.826h6.23751V11.69345C13.38074,10.6379,11.30009,10.10786,10.262,10.10786Zm3.56429,0c-.12921,0-.27623.00906-.43217.02265a1.9185,1.9185,0,0,1,.87771,1.56293V12.826H16.945V11.69345C16.945,10.6379,14.86438,10.10786,13.82628,10.10786Zm-6.8665-.906A1.35935,1.35935,0,1,0,5.62762,7.84274,1.34618,1.34618,0,0,0,6.95978,9.20181Zm-.27491.74131c-1.101,0-3.30777.56216-3.30777,1.68168V12.826H6.21233v-1.2012a2.03477,2.03477,0,0,1,.9309-1.65766C6.97784,9.95274,6.82191,9.94313,6.68487,9.94313Z"/>
      </g>
    </g>
  </g>
</svg>
