<svg id="Layer_1" data-name="Layer 1" xmlns="http://www.w3.org/2000/svg" viewBox="0 0 20 20">
  <defs>
    <style>
      .cls-1 {
        fill: none;
        stroke: #fff;
        stroke-miterlimit: 10;
        stroke-width: 0.5px;
      }
    </style>
  </defs>
  <title>icons white line</title>
  <path class="cls-1" d="M19.48889,2.47778,17.94445.61111A1.61271,1.61271,0,0,0,16.66667,0H3.33333A1.65135,1.65135,0,0,0,2.04444.61111L.51111,2.47778A2.17551,2.17551,0,0,0,0,3.88889V17.77778A2.22876,2.22876,0,0,0,2.22222,20H17.77778A2.22875,2.22875,0,0,0,20,17.77778V3.88889A2.17551,2.17551,0,0,0,19.48889,2.47778ZM10,16.11111,3.88889,10H7.77778V7.77778h4.44444V10h3.88889ZM2.35556,2.22222l.9-1.11111H16.58889l1.04445,1.11111Z"/>
</svg>
