<svg id="Layer_1" data-name="Layer 1" xmlns="http://www.w3.org/2000/svg" viewBox="0 0 20 20">
  <defs>
    <style>
      .cls-1 {
        fill: none;
        stroke: #fff;
        stroke-miterlimit: 10;
        stroke-width: 0.5px;
      }
    </style>
  </defs>
  <title>icons white line</title>
  <g>
    <path class="cls-1" d="M6.58537,13.58759h6.82927V8.3193H6.58537Zm4.878-4.31042H12.439V10.235h-.97561Zm-1.95122,0h.97561V10.235H9.5122Zm-1.95122,0h.97561V10.235H7.561Z"/>
    <path class="cls-1" d="M10,0A10,10,0,1,0,20,10,10,10,0,0,0,10,0Zm4.39024,13.58759a.9697.9697,0,0,1-.97561.95786H6.58537a.96657.96657,0,0,1-.97561-.95786l.00488-6.70511a.96237.96237,0,0,1,.97073-.95786h.4878V4.96674h.97561v.95786h3.90244V4.96674h.97561v.95786h.4878a.96972.96972,0,0,1,.97561.95786Z"/>
  </g>
</svg>
