<svg id="Layer_1" data-name="Layer 1" xmlns="http://www.w3.org/2000/svg" viewBox="0 0 20 20">
  <defs>
    <style>
      .cls-1 {
        fill: none;
        stroke: #fff;
        stroke-miterlimit: 10;
        stroke-width: 0.5px;
      }
    </style>
  </defs>
  <title>icons white line</title>
  <path class="cls-1" d="M.28514,5.02423h0a.888.888,0,0,1,.25574-.63944.90154.90154,0,0,1,.63947-.26858H4.35207a.90124.90124,0,0,1,.63934.26858A.888.888,0,0,1,5.26,5.01145a10.66342,10.66342,0,0,0,.52435,2.89026.9113.9113,0,0,1-.21736.93358L3.5846,10.81757a13.48718,13.48718,0,0,0,2.48113,3.40187A13.22364,13.22364,0,0,0,9.474,16.69407l1.98228-1.98228a.90083.90083,0,0,1,.93358-.21739,10.32606,10.32606,0,0,0,2.88379.51794.92816.92816,0,0,1,.62672.26855.90165.90165,0,0,1,.26848.63947V19.092a.917.917,0,0,1-.908.908A15.388,15.388,0,0,1,.28514,5.02423Zm16.2,4.66481H10.02582V3.22968h1.29182V7.48641L18.80415,0l.91071.91078L12.22849,8.39715h4.25669Z"/>
</svg>
