<svg id="Layer_1" data-name="Layer 1" xmlns="http://www.w3.org/2000/svg" viewBox="0 0 20 20">
  <defs>
    <style>
      .cls-1 {
        fill: none;
        stroke: #fff;
        stroke-miterlimit: 10;
        stroke-width: 0.5px;
      }
    </style>
  </defs>
  <title>icons white line</title>
  <path class="cls-1" d="M10,16.36364a1.81818,1.81818,0,1,0,1.81818,1.81818A1.82353,1.82353,0,0,0,10,16.36364ZM4.54545,0A1.81818,1.81818,0,1,0,6.36364,1.81818,1.82353,1.82353,0,0,0,4.54545,0Zm0,5.45455A1.81818,1.81818,0,1,0,6.36364,7.27273,1.82353,1.82353,0,0,0,4.54545,5.45455Zm0,5.45455a1.81818,1.81818,0,1,0,1.81818,1.81818A1.82353,1.82353,0,0,0,4.54545,10.90909ZM15.45455,3.63636a1.81818,1.81818,0,1,0-1.81818-1.81818A1.82353,1.82353,0,0,0,15.45455,3.63636ZM10,10.90909a1.81818,1.81818,0,1,0,1.81818,1.81818A1.82353,1.82353,0,0,0,10,10.90909Zm5.45455,0a1.81818,1.81818,0,1,0,1.81818,1.81818A1.82353,1.82353,0,0,0,15.45455,10.90909Zm0-5.45455a1.81818,1.81818,0,1,0,1.81818,1.81818A1.82353,1.82353,0,0,0,15.45455,5.45455ZM10,5.45455a1.81818,1.81818,0,1,0,1.81818,1.81818A1.82353,1.82353,0,0,0,10,5.45455ZM10,0a1.81818,1.81818,0,1,0,1.81818,1.81818A1.82353,1.82353,0,0,0,10,0Z"/>
</svg>
