<svg id="Layer_1" data-name="Layer 1" xmlns="http://www.w3.org/2000/svg" viewBox="0 0 20 20">
  <defs>
    <style>
      .cls-1 {
        fill: none;
        stroke: #fff;
        stroke-miterlimit: 10;
        stroke-width: 0.5px;
      }
    </style>
  </defs>
  <title>icons white line</title>
  <g>
    <path class="cls-1" d="M1.61466,3.37386H18.33479c.0232,0,.04264.01169.06552.01308L10.433,9.83138a.95369.95369,0,0,1-.879.02791L1.54982,3.38683C1.57244,3.38549,1.59167,3.37386,1.61466,3.37386Z"/>
    <path class="cls-1" d="M18.21752,16.62614,1.61466,16.55489A1.10808,1.10808,0,0,1,.5,15.45649V4.47231a1.07348,1.07348,0,0,1,.09431-.43662L8.896,10.74427a1.98532,1.98532,0,0,0,2.12.02363.54223.54223,0,0,0,.08982-.05952l8.2493-6.6728a1.0736,1.0736,0,0,1,.09442.43678s.0505,7.73635.0505,11.2988C19.5,16.62615,18.21752,16.62614,18.21752,16.62614Z"/>
  </g>
</svg>
