<svg id="Layer_1" data-name="Layer 1" xmlns="http://www.w3.org/2000/svg" viewBox="0 0 20 20">
  <defs>
    <style>
      .cls-1, .cls-2 {
        fill: none;
        stroke: #fff;
        stroke-width: 0.5px;
      }

      .cls-1 {
        stroke-miterlimit: 10;
      }

      .cls-2 {
        stroke-linecap: round;
        stroke-linejoin: round;
      }
    </style>
  </defs>
  <title>icons white line</title>
  <path class="cls-1" d="M16.94953,17.01069h.004m0,0h-.004"/>
  <path class="cls-1" d="M18.9976,5.89111h0l.00039-.00039-.0004.00028V5.46367a1.4788,1.4788,0,0,0-1.47444-1.47443l-.00041.0004L9.97522,9.54943,2.47639,3.98964A1.4788,1.4788,0,0,0,1.002,5.46408v10.0722a1.47878,1.47878,0,0,0,1.47444,1.47441h.5249V7.30563l6.97392,4.85273,6.97392-4.804.0004-.00028.004,9.65624c1.54675-.018,2.01133-.40067,2.04648-1.47285Z"/>
  <g>
    <polygon class="cls-2" points="16.959 7.35 9.975 12.161 9.943 12.138 9.943 12.138 2.992 7.301 2.992 16.912 2.992 17.019 2.992 17.019 16.959 17.019 16.959 17.016 16.963 17.019 16.959 7.35"/>
    <polygon class="cls-2" points="17.533 3.981 2.466 3.981 9.975 9.548 17.533 3.981"/>
  </g>
</svg>
