<svg id="Layer_1" data-name="Layer 1" xmlns="http://www.w3.org/2000/svg" viewBox="0 0 20 20">
  <defs>
    <style>
      .cls-1 {
        fill: none;
        stroke: #fff;
        stroke-miterlimit: 10;
        stroke-width: 0.5px;
      }
    </style>
  </defs>
  <title>icons white line</title>
  <path class="cls-1" d="M13.63636,9.45455a2.72727,2.72727,0,1,0-2.72727-2.72727A2.71589,2.71589,0,0,0,13.63636,9.45455Zm-7.27273,0A2.72727,2.72727,0,1,0,3.63636,6.72727,2.71589,2.71589,0,0,0,6.36364,9.45455Zm0,1.81818C4.24545,11.27273,0,12.33636,0,14.45455v2.27273H12.72727V14.45455C12.72727,12.33636,8.48182,11.27273,6.36364,11.27273Zm7.27273,0c-.26364,0-.56364.01818-.88182.04545a3.83628,3.83628,0,0,1,1.79091,3.13636v2.27273H20V14.45455C20,12.33636,15.75455,11.27273,13.63636,11.27273Z"/>
</svg>
