<svg id="Layer_1" data-name="Layer 1" xmlns="http://www.w3.org/2000/svg" viewBox="0 0 20 20">
  <defs>
    <style>
      .cls-1 {
        fill: none;
        stroke: #fff;
        stroke-miterlimit: 10;
        stroke-width: 0.5px;
      }
    </style>
  </defs>
  <title>icons white line</title>
  <path class="cls-1" d="M6.2,14.9a5.23939,5.23939,0,0,0,3.6,1.4,5.06362,5.06362,0,0,0,3.6-1.4h1.5a6.658,6.658,0,0,1-10.4,0Z"/>
  <path class="cls-1" d="M13.9,5.4A5.42288,5.42288,0,0,0,9.8,3.6,5.32687,5.32687,0,0,0,5.7,5.5l-.9-.7a6.602,6.602,0,0,1,10.1.1Z"/>
  <path class="cls-1" d="M4.3,9.7A1.62752,1.62752,0,0,0,6,8,1.62752,1.62752,0,0,0,4.3,6.3,1.75238,1.75238,0,0,0,2.6,8,1.68548,1.68548,0,0,0,4.3,9.7Z"/>
  <path class="cls-1" d="M4.3,11.1c-1.1,0-3.4.6-3.4,1.7v.9H7.8v-.9C7.7,11.6,5.5,11.1,4.3,11.1Z"/>
  <path class="cls-1" d="M14.9,9.7A1.75238,1.75238,0,0,0,16.6,8a1.7,1.7,0,0,0-3.4,0,1.62752,1.62752,0,0,0,1.7,1.7Z"/>
  <path class="cls-1" d="M14.9,11.1c-1.1,0-3.4.6-3.4,1.7v.9h6.9v-.9C18.3,11.6,16,11.1,14.9,11.1Z"/>
</svg>
