<svg id="Layer_1" data-name="Layer 1" xmlns="http://www.w3.org/2000/svg" viewBox="0 0 20 20">
  <defs>
    <style>
      .cls-1 {
        fill: none;
        stroke: #fff;
        stroke-miterlimit: 10;
        stroke-width: 0.5px;
      }
    </style>
  </defs>
  <title>icons white line</title>
  <path class="cls-1" d="M17,9.5H15.3a5.11419,5.11419,0,0,1-.43,2.05l1.23,1.23A6.58509,6.58509,0,0,0,17,9.5Zm-4.02.17c0-.06.02-.11.02-.17v-6a3,3,0,0,0-6,0v.18ZM2.27,1.5,1,2.77,7.01,8.78V9.5a2.98748,2.98748,0,0,0,2.99,3,2.82116,2.82116,0,0,0,.65-.08l1.66,1.66A5.4983,5.4983,0,0,1,10,14.6,5.18875,5.18875,0,0,1,4.7,9.5H3a6.98374,6.98374,0,0,0,6,6.72V19.5h2V16.22a7.0129,7.0129,0,0,0,2.54-.9l4.19,4.18L19,18.23Z"/>
</svg>
