<svg id="Layer_1" data-name="Layer 1" xmlns="http://www.w3.org/2000/svg" viewBox="0 0 20 20">
  <defs>
    <style>
      .cls-1 {
        fill: none;
        stroke: #fff;
        stroke-miterlimit: 10;
        stroke-width: 0.5px;
      }
    </style>
  </defs>
  <title>icons white line</title>
  <path class="cls-1" d="M20,9A10.252,10.252,0,0,0,13,.5,10.47351,10.47351,0,0,0,10,0,10,10,0,1,0,20,10ZM9,17.9A7.91,7.91,0,0,1,2,10a11.019,11.019,0,0,1,.2-1.8L7,13v1a2.00588,2.00588,0,0,0,2,2Zm6.9-2.5A2.04422,2.04422,0,0,0,14,14H13V11a1.07539,1.07539,0,0,0-1-1H6V8H8A1.07539,1.07539,0,0,0,9,7V5h2a2.00588,2.00588,0,0,0,2-2V2.5C17,3.9,17.9,9,17.9,9c0,.3.1.7.1,1A7.90739,7.90739,0,0,1,15.9,15.4Z"/>
</svg>
