<svg id="Layer_1" data-name="Layer 1" xmlns="http://www.w3.org/2000/svg" viewBox="0 0 20 20">
  <defs>
    <style>
      .cls-1 {
        fill: none;
        stroke: #fff;
        stroke-miterlimit: 10;
        stroke-width: 0.5px;
      }
    </style>
  </defs>
  <title>icons white line</title>
  <path class="cls-1" d="M17.43,10.98A7.79282,7.79282,0,0,0,17.5,10a7.79318,7.79318,0,0,0-.07-.98l2.11-1.65a.50451.50451,0,0,0,.12-.64l-2-3.46a.50263.50263,0,0,0-.61-.22l-2.49,1a7.30609,7.30609,0,0,0-1.69-.98L12.49.42A.48762.48762,0,0,0,12,0H8a.48762.48762,0,0,0-.49.42L7.13,3.07a7.68287,7.68287,0,0,0-1.69.98l-2.49-1a.4878.4878,0,0,0-.61.22l-2,3.46a.493.493,0,0,0,.12.64L2.57,9.02A7.93056,7.93056,0,0,0,2.5,10a7.93054,7.93054,0,0,0,.07.98L.46,12.63a.5045.5045,0,0,0-.12.64l2,3.46a.50263.50263,0,0,0,.61.22l2.49-1a7.30609,7.30609,0,0,0,1.69.98l.38,2.65A.48762.48762,0,0,0,8,20h4a.48762.48762,0,0,0,.49-.42l.38-2.65a7.6829,7.6829,0,0,0,1.69-.98l2.49,1a.4878.4878,0,0,0,.61-.22l2-3.46a.5045.5045,0,0,0-.12-.64ZM10,13.5A3.5,3.5,0,1,1,13.5,10,3.50384,3.50384,0,0,1,10,13.5Z"/>
</svg>
