<svg id="Layer_1" data-name="Layer 1" xmlns="http://www.w3.org/2000/svg" viewBox="0 0 20 20">
  <defs>
    <style>
      .cls-1 {
        fill: none;
        stroke: #fff;
        stroke-miterlimit: 10;
        stroke-width: 0.5px;
      }
    </style>
  </defs>
  <title>icons white line</title>
  <g>
    <path class="cls-1" d="M15.83331,14.16663A1.67156,1.67156,0,0,0,17.5,12.5c0-1.10834-1.66669-2.91669-1.66669-2.91669S14.16669,11.39166,14.16669,12.5A1.67155,1.67155,0,0,0,15.83331,14.16663Z"/>
    <path class="cls-1" d="M7.45,13.8a1.24741,1.24741,0,0,0,1.76666,0L13.8,9.21667A1.24231,1.24231,0,0,0,13.8,7.45L6.35,0,5.175,1.175,7.15833,3.15833,2.86664,7.45a1.24242,1.24242,0,0,0,0,1.76666Zm.8833-9.45831L12.325,8.33331H4.34167Z"/>
    <rect class="cls-1" y="16.66663" width="20" height="3.33337"/>
  </g>
</svg>
