<svg id="Layer_1" data-name="Layer 1" xmlns="http://www.w3.org/2000/svg" viewBox="0 0 20 20">
  <defs>
    <style>
      .cls-1 {
        fill: none;
        stroke: #fff;
        stroke-miterlimit: 10;
        stroke-width: 0.5px;
      }
    </style>
  </defs>
  <title>icons white line</title>
  <path class="cls-1" d="M3.25038,3.49953a1.125,1.125,0,0,0-.75-1.05976V1.62453a.375.375,0,1,0-.75,0v.81523a1.12375,1.12375,0,0,0,0,2.11953V8.43983a1.12375,1.12375,0,0,0,0,2.11953v3.88054a1.12375,1.12375,0,0,0,0,2.11953v.815a.375.375,0,1,0,.75,0v-.81485a1.12375,1.12375,0,0,0,0-2.11953V10.55936a1.12375,1.12375,0,0,0,0-2.11953V4.55929A1.12511,1.12511,0,0,0,3.25038,3.49953ZM18.25054,1.99942H7.37545s-.50238-.04472-.65633.10847L5.23157,3.216a.391.391,0,0,0,0,.55453l1.48755,1.1081c.154.15319.65633.12084.65633.12084H18.25054a.74949.74949,0,0,0,.75-.75V2.74957A.74977.74977,0,0,0,18.25054,1.99942Zm0,6.00025H7.37545S6.87307,7.955,6.71912,8.108L5.23157,9.21624a.39074.39074,0,0,0,0,.55434l1.48755,1.1081c.154.15319.65633.121.65633.121H18.25054a.74949.74949,0,0,0,.75-.75V8.74963A.74949.74949,0,0,0,18.25054,7.99967Zm0,5.99987H7.37545s-.50238-.04453-.65633.10828L5.23157,15.21611a.391.391,0,0,0,0,.55453l1.48755,1.1081c.154.15319.65633.12084.65633.12084H18.25054a.74949.74949,0,0,0,.75-.75V14.7497A.74965.74965,0,0,0,18.25054,13.99955Z"/>
</svg>
