<svg id="Layer_1" data-name="Layer 1" xmlns="http://www.w3.org/2000/svg" viewBox="0 0 20 20">
  <defs>
    <style>
      .cls-1 {
        fill: none;
        stroke: #fff;
        stroke-miterlimit: 10;
        stroke-width: 0.5px;
      }
    </style>
  </defs>
  <title>icons white line</title>
  <g id="PROFILE">
    <g id="status-_Logic_" data-name="status-(Logic)">
      <path id="Fill-1" class="cls-1" d="M0,16.7813a8.24786,8.24786,0,0,0,6.07456-1.698,4.107,4.107,0,0,1-3.83263-2.84924,4.10624,4.10624,0,0,0,1.85284-.07021A4.10707,4.10707,0,0,1,.80326,8.08934a4.09277,4.09277,0,0,0,1.85909.51357A4.10652,4.10652,0,0,1,1.393,3.12566a11.647,11.647,0,0,0,8.457,4.28659,4.106,4.106,0,0,1,6.9923-3.74176,8.22031,8.22031,0,0,0,2.60464-.9959,4.111,4.111,0,0,1-1.80328,2.26929A8.18819,8.18819,0,0,0,20,4.298a8.31531,8.31531,0,0,1-2.04762,2.12358A11.60411,11.60411,0,0,1,6.28956,18.625,11.6134,11.6134,0,0,1,0,16.7813Z"/>
    </g>
  </g>
</svg>
