<svg id="Layer_1" data-name="Layer 1" xmlns="http://www.w3.org/2000/svg" viewBox="0 0 20 20">
  <defs>
    <style>
      .cls-1 {
        fill: none;
        stroke: #fff;
        stroke-miterlimit: 10;
        stroke-width: 0.35px;
      }
    </style>
  </defs>
  <title>icons white line</title>
  <g>
    <polygon class="cls-1" points="3.771 3.358 8.457 7.952 14.303 2.106 13.468 1.271 8.457 6.281 4.699 2.596 7.748 2.596 7.748 1.602 2.777 1.602 2.777 6.573 3.771 6.573 3.771 3.358"/>
    <path class="cls-1" d="M13.66672,12.27449V9.3335c.02259-.4622-.78654-.68751-.78654-.68751H3.45236a.8168.8168,0,0,0-.7857.84033v8.40277a.81678.81678,0,0,0,.7857.84026H12.881a.81678.81678,0,0,0,.7857-.84026V14.79534l3.66662,3.36112V8.91337Z"/>
  </g>
</svg>
