<svg id="Layer_1" data-name="Layer 1" xmlns="http://www.w3.org/2000/svg" viewBox="0 0 20 20">
  <defs>
    <style>
      .cls-1 {
        fill: none;
        stroke: #fff;
        stroke-miterlimit: 10;
        stroke-width: 0.5px;
      }
    </style>
  </defs>
  <title>icons white line</title>
  <g>
    <path class="cls-1" d="M1.12054,3H14.43975c.01848,0,.034.00931.0522.01042L8.14522,8.144a.7597.7597,0,0,1-.70022.02223L1.06888,3.01034C1.08691,3.00927,1.10222,3,1.12054,3Z"/>
    <path class="cls-1" d="M9.11207,12.18748V13.5H1.12054a.88269.88269,0,0,1-.88793-.875V3.875a.85513.85513,0,0,1,.07513-.34781l6.61311,5.344a1.5815,1.5815,0,0,0,1.68875.01883.43194.43194,0,0,0,.07155-.04741l6.57137-5.31553a.85523.85523,0,0,1,.07521.34793v7H10.444A1.32366,1.32366,0,0,0,9.11207,12.18748Z"/>
    <path class="cls-1" d="M19.32343,11.75H10.444a.44108.44108,0,0,0-.444.43748v4.375A.4411.4411,0,0,0,10.444,17h8.87944a.44105.44105,0,0,0,.444-.43754v-4.375A.441.441,0,0,0,19.32343,11.75Zm-2.21984,4.375H12.66383a1.7502,1.7502,0,1,1,1.77593-1.75,1.711,1.711,0,0,1-.247.875h1.38192a1.71079,1.71079,0,0,1-.247-.875,1.77612,1.77612,0,1,1,1.77593,1.75Z"/>
    <ellipse class="cls-1" cx="12.66384" cy="14.37501" rx="0.88793" ry="0.87498"/>
    <ellipse class="cls-1" cx="17.10359" cy="14.37501" rx="0.88793" ry="0.87498"/>
  </g>
</svg>
