<svg id="Layer_1" data-name="Layer 1" xmlns="http://www.w3.org/2000/svg" viewBox="0 0 20 20">
  <defs>
    <style>
      .cls-1 {
        fill: none;
        stroke: #fff;
        stroke-miterlimit: 10;
        stroke-width: 0.5px;
      }
    </style>
  </defs>
  <title>icons white line</title>
  <g id="PROFILE">
    <g id="Profile_" data-name="Profile ">
      <g id="Redes-sociales">
        <path id="Combined-Shape" class="cls-1" d="M19.9955,9.49441C20,9.57755,20,9.65957,20,9.74271A9.831,9.831,0,0,1,5.438,18.272L0,20l1.77-5.225A9.6678,9.6678,0,0,1,.36354,9.74271c0-.14213.0045-.28482.009-.4275a9.8207,9.8207,0,0,1,19.623.1792ZM14.19492,11.953c-.23209-.12289-1.35928-.72052-1.56939-.80109-.21065-.08521-.36394-.12347-.51777.12347-.15329.24635-.596.80109-.72788.96223-.1356.16578-.26693.18549-.49955.062a6.13033,6.13033,0,0,1-1.846-1.22366,7.29393,7.29393,0,0,1-1.2762-1.70246.37723.37723,0,0,1,.10077-.502c.10505-.11419.22834-.28925.34679-.43243.03055-.04232.05681-.08.08308-.11825A2.78723,2.78723,0,0,0,8.43352,8.027a.47607.47607,0,0,0-.01769-.43185c-.05681-.12289-.51723-1.33669-.71019-1.83-.18813-.49271-.38163-.40808-.51723-.40808-.13185,0-.28515-.02377-.43844-.02377a.82253.82253,0,0,0-.61425.30838A2.85777,2.85777,0,0,0,5.33333,7.6995a3.38184,3.38184,0,0,0,.11845.83935,5.76906,5.76906,0,0,0,.82007,1.70768,9.76608,9.76608,0,0,0,3.91972,3.72257c2.33747.98136,2.33747.65386,2.75822.611a2.297,2.297,0,0,0,1.54741-1.17091,2.18661,2.18661,0,0,0,.13614-1.17149C14.576,12.138,14.42271,12.07651,14.19492,11.953Z"/>
      </g>
    </g>
  </g>
</svg>
