<svg id="Layer_1" data-name="Layer 1" xmlns="http://www.w3.org/2000/svg" viewBox="0 0 20 20">
  <defs>
    <style>
      .cls-1 {
        fill: none;
        stroke: #fff;
        stroke-miterlimit: 10;
        stroke-width: 0.5px;
      }
    </style>
  </defs>
  <title>icons white line</title>
  <path class="cls-1" d="M11.03513,11.132l.01174-.002C13.12648,7.48193,16.55794,1.53281,17.5.25866L17.47318.2744,17.48587.261a5.15317,5.15317,0,0,1-2.513,0c-.70655,1.32124-3.32313,5.5935-4.98587,8.32784l-.00236.00441V8.58886C8.296,5.79328,6.30122,2.56671,4.99882.261L4.9862.26616,4.99411.261a4.64886,4.64886,0,0,1-2.486.002L2.5047.261l.00089.00135L2.5.261,2.51831.2817C4.56348,3.36762,7.82744,9.21011,8.939,11.13243l-.14835,8.027-.00239.00175.00236-.00032v.00032l.001-.00045A9.19774,9.19774,0,0,1,9.987,19.04106a8.02433,8.02433,0,0,1,1.19407.12012l-.00417-.00306.00651.00306Z"/>
</svg>
