<svg id="Layer_1" data-name="Layer 1" xmlns="http://www.w3.org/2000/svg" viewBox="0 0 20 20"><defs><style>.cls-1{fill:#fff;}</style></defs><title>icons white</title><path class="cls-1" d="M11.069,8.78053V8.757c-.00481.008-.01158.01587-.01586.02353Z"/><path class="cls-1" d="M10,0A10,10,0,1,0,20,10,10,10,0,0,0,10,0ZM7.35677,14.92745H4.9672V7.73825H7.35677ZM6.1619,6.75729H6.14638a1.24565,1.24565,0,1,1,.03138-2.4844,1.24609,1.24609,0,1,1-.01586,2.4844Zm9.813,8.17017H13.58463V11.081c0-.96582-.34512-1.62538-1.21056-1.62538a1.30745,1.30745,0,0,0-1.22607.874,1.63589,1.63589,0,0,0-.07915.58255v4.01511H8.67839s.03209-6.51468,0-7.189H11.069V8.757a2.37337,2.37337,0,0,1,2.15427-1.18756c1.57261,0,2.75162,1.02749,2.75162,3.23523Z"/></svg>