<svg id="Layer_1" data-name="Layer 1" xmlns="http://www.w3.org/2000/svg" viewBox="0 0 20 20"><defs><style>.cls-1{fill:#fff;}</style></defs><title>icons white</title><path class="cls-1" d="M9.99955,5.49773a4.54918,4.54918,0,0,1,4.54752,4.54752,4.414,4.414,0,0,1-.32742,1.66439l2.65575,2.65575a10.74785,10.74785,0,0,0,3.1196-4.32015A10.75655,10.75655,0,0,0,9.99045,3.224a10.59137,10.59137,0,0,0-3.61983.63665L8.33515,5.82515A4.414,4.414,0,0,1,9.99955,5.49773ZM.9045,3.01478,2.97817,5.08845l.41837.41837A10.73582,10.73582,0,0,0-.005,10.04525a10.75183,10.75183,0,0,0,13.98818,6.0573l.382.382L17.03,19.14029l1.15507-1.15507L2.05957,1.85971ZM5.93406,8.04434,7.34379,9.45407a2.56587,2.56587,0,0,0-.07276.59118,2.72486,2.72486,0,0,0,2.72851,2.72851,2.56586,2.56586,0,0,0,.59118-.07276l1.40973,1.40973A4.51779,4.51779,0,0,1,5.93406,8.04434Zm3.92-.70941L12.719,10.19986l.01819-.14552a2.72486,2.72486,0,0,0-2.72851-2.72851Z"/></svg>