<svg id="Layer_1" data-name="Layer 1" xmlns="http://www.w3.org/2000/svg" viewBox="0 0 20 20"><defs><style>.cls-1{fill:#fff;}</style></defs><title>icons white</title><path class="cls-1" d="M4.02222,8.65556a16.83181,16.83181,0,0,0,7.32222,7.32222l2.44444-2.44444a1.10474,1.10474,0,0,1,1.13333-.26667A12.67445,12.67445,0,0,0,18.88889,13.9,1.11438,1.11438,0,0,1,20,15.01111v3.87778A1.11438,1.11438,0,0,1,18.88889,20,18.88724,18.88724,0,0,1,0,1.11111,1.11438,1.11438,0,0,1,1.11111,0H5A1.11438,1.11438,0,0,1,6.11111,1.11111a12.62262,12.62262,0,0,0,.63333,3.96667,1.11506,1.11506,0,0,1-.27778,1.13333Z"/></svg>