<svg id="Layer_1" data-name="Layer 1" xmlns="http://www.w3.org/2000/svg" viewBox="0 0 20 20"><defs><style>.cls-1{fill:#fff;}</style></defs><title>icons white</title><path class="cls-1" d="M5.41441,4.6439,9.99583,9.22532l5.8309-5.8309-.833-.833L9.99583,7.55935,6.2474,3.81091H9.16285V2.56143H4.16493V7.55935H5.41441ZM19.7501,13.94836a14.17441,14.17441,0,0,0-19.50854,0,.84476.84476,0,0,0,0,1.18284L2.30737,17.197a.83034.83034,0,0,0,.59142.24157.8547.8547,0,0,0,.58309-.23324,9.5116,9.5116,0,0,1,2.21574-1.541.82986.82986,0,0,0,.46647-.74969V12.33236a12.18131,12.18131,0,0,1,3.83174-.60808,12.42049,12.42049,0,0,1,3.83174.59975v2.58226a.83925.83925,0,0,0,.46647.74969,9.8194,9.8194,0,0,1,2.22407,1.541.81807.81807,0,0,0,.58309.23324.83034.83034,0,0,0,.59142-.24157l2.06581-2.06581A.83034.83034,0,0,0,20,14.53144.81788.81788,0,0,0,19.7501,13.94836Z"/></svg>