<svg id="Layer_1" data-name="Layer 1" xmlns="http://www.w3.org/2000/svg" viewBox="0 0 20 20"><defs><style>.cls-1{fill:#fff;}</style></defs><title>icons white</title><path class="cls-1" d="M10,0A10,10,0,1,0,20,10,10,10,0,0,0,10,0Zm4.14632,13.71273a.43486.43486,0,0,1-.43359.43359A7.37062,7.37062,0,0,1,6.34147,6.77507a.43486.43486,0,0,1,.43359-.43359H8.29264a.43488.43488,0,0,1,.43368.43359A4.92417,4.92417,0,0,0,8.97347,8.323a.41639.41639,0,0,1-.1084.43359l-.95394.95833a6.52378,6.52378,0,0,0,2.85742,2.85742l.95394-.95394a.44252.44252,0,0,1,.4423-.10409,4.92417,4.92417,0,0,0,1.54793.24715.43486.43486,0,0,1,.43359.43359Z"/></svg>