<svg id="Layer_1" data-name="Layer 1" xmlns="http://www.w3.org/2000/svg" viewBox="0 0 20 20"><defs><style>.cls-1{fill:#fff;}</style></defs><title>icons white</title><path class="cls-1" d="M10,16.36a1.82,1.82,0,1,0,1.82,1.82A1.82,1.82,0,0,0,10,16.36ZM4.55,0A1.82,1.82,0,1,0,6.36,1.82,1.82,1.82,0,0,0,4.55,0Zm0,5.45A1.82,1.82,0,1,0,6.36,7.27,1.82,1.82,0,0,0,4.55,5.45Zm0,5.45a1.82,1.82,0,1,0,1.82,1.82A1.82,1.82,0,0,0,4.55,10.91ZM15.45,3.64a1.82,1.82,0,1,0-1.82-1.82A1.82,1.82,0,0,0,15.45,3.64ZM10,10.91a1.82,1.82,0,1,0,1.82,1.82A1.82,1.82,0,0,0,10,10.91Zm5.45,0a1.82,1.82,0,1,0,1.82,1.82A1.82,1.82,0,0,0,15.45,10.91Zm0-5.45a1.82,1.82,0,1,0,1.82,1.82A1.82,1.82,0,0,0,15.45,5.45ZM10,5.45a1.82,1.82,0,1,0,1.82,1.82A1.82,1.82,0,0,0,10,5.45ZM10,0a1.82,1.82,0,1,0,1.82,1.82A1.82,1.82,0,0,0,10,0Z"/></svg>