<svg id="Layer_1" data-name="Layer 1" xmlns="http://www.w3.org/2000/svg" viewBox="0 0 20 20"><defs><style>.cls-1{fill:#fff;}</style></defs><title>icons white</title><path class="cls-1" d="M.43953,2.67621v14.4189L11.08346,18.9362V.83513ZM7.59266,13.62715,3.55387,13.249V5.68549l3.88382-.41561V6.8l-2.36693.16619V8.71641l2.20255-.05634v1.51824L5.07076,10.1539v1.79961l2.5219.14369Z"/><path class="cls-1" d="M18.49071,4.365H12.08763V5.70791h.2725a.23721.23721,0,0,1,.16785.06959l.95642.95774a.166.166,0,0,1-.00008.23474l-.34563.34563a.166.166,0,0,1-.23482,0l-.43153-.4259A.04745.04745,0,0,0,12.439,6.876h-.35138V9.451c.65861.59406,1.21549,1.0365,1.04642,1.21681-.1094.11667-.53346-.0735-1.04642-.3859v2.61341h.1635c1.18923-.88628,2.15942-2.49719,2.44985-2.22486.34264.32128-1.9585,3.35423-2.2425,3.393h-.37086v1.34293h6.40308a.94882.94882,0,0,0,.94882-.94882V5.3138A.94882.94882,0,0,0,18.49071,4.365Zm-.39411,8.53035v.93091a.2372.2372,0,0,1-.23721.23721H15.47754a.23722.23722,0,0,1-.16785-.06959l-.95642-.95774a.166.166,0,0,1,.00008-.23474l.34563-.34563a.166.166,0,0,1,.23482,0l.43153.4259a.04745.04745,0,0,0,.03333.01368h1.52982V11.55339c-.88628-1.18923-2.49719-2.15942-2.22486-2.44985.32128-.34264,3.35423,1.9585,3.393,2.2425Zm0-6.0193V8.327a.23722.23722,0,0,1-.06959.16785l-.95774.95642a.166.166,0,0,1-.23474-.00008l-.34563-.34563a.166.166,0,0,1,0-.23482l.4259-.43153a.04745.04745,0,0,0,.01368-.03333V6.876H15.58654c-1.18923.88628-2.15942,2.49719-2.44985,2.22486-.34264-.32128,1.9585-3.35423,2.2425-3.393H17.8594a.2372.2372,0,0,1,.23721.23721Z"/></svg>