<svg id="Layer_1" data-name="Layer 1" xmlns="http://www.w3.org/2000/svg" viewBox="0 0 20 20"><defs><style>.cls-1{fill:none;stroke:#fff;stroke-linecap:round;stroke-linejoin:round;stroke-width:0.5px;}.cls-2{fill:#fff;}</style></defs><title>icons white</title><polygon class="cls-1" points="16.786 7.428 9.976 12.119 9.945 12.098 9.945 12.098 3.166 7.381 3.166 16.754 3.166 16.858 3.166 16.858 16.786 16.858 16.786 16.855 16.79 16.858 16.786 7.428"/><polygon class="cls-1" points="17.346 4.142 2.653 4.142 9.976 9.571 17.346 4.142"/><path class="cls-2" d="M18.9976,5.89111h0l.00039-.00039-.0004.00028V5.46367a1.4788,1.4788,0,0,0-1.47444-1.47443l-.00041.0004L9.97522,9.54943,2.47639,3.98964A1.4788,1.4788,0,0,0,1.002,5.46408v10.0722a1.47878,1.47878,0,0,0,1.47444,1.47441h.5249V7.30563l6.97392,4.85273,6.97392-4.804.0004-.00028.004,9.65624c1.54675-.018,2.01133-.40067,2.04648-1.47285Z"/></svg>