<svg id="Layer_1" data-name="Layer 1" xmlns="http://www.w3.org/2000/svg" viewBox="0 0 20 20"><defs><style>.cls-1{fill:none;stroke:#fff;stroke-linecap:round;stroke-linejoin:round;stroke-width:0.5px;}.cls-2{fill:#fff;}</style></defs><title>icons white</title><polygon class="cls-1" points="16.79 7.43 9.98 12.12 9.95 12.1 9.95 12.1 3.17 7.38 3.17 16.75 3.17 16.86 3.17 16.86 16.79 16.86 16.79 16.86 16.79 16.86 16.79 7.43"/><polygon class="cls-1" points="17.35 4.14 2.65 4.14 9.98 9.57 17.35 4.14"/><path class="cls-2" d="M19,5.89h0V5.46A1.48,1.48,0,0,0,17.52,4h0L10,9.55,2.48,4A1.48,1.48,0,0,0,1,5.46V15.54A1.48,1.48,0,0,0,2.48,17H3V7.31l7,4.85,7-4.8h0V17c1.55,0,2-.4,2-1.47Z"/></svg>