<svg id="Layer_1" data-name="Layer 1" xmlns="http://www.w3.org/2000/svg" viewBox="0 0 20 20"><defs><style>.cls-1{fill:#fff;}</style></defs><title>icons white</title><path class="cls-1" d="M20,10,17.894,8.15125l1.11737-2.60211-2.68152-.72479-.09436-2.842-2.7229.53583L12.22491,0,10,1.69836,7.775,0,6.48743,2.51819l-2.7229-.53583-.09436,2.842L.98865,5.54907,2.106,8.15131,0,10l2.106,1.84869L.98865,14.45081l2.68152.72479.09436,2.842,2.7229-.53583L7.775,20,10,18.30164,12.225,20l1.2876-2.51825,2.7229.53583.09436-2.842,2.68152-.72473L17.894,11.84863ZM10,16.66663A6.66666,6.66666,0,1,1,16.66669,10,6.66667,6.66667,0,0,1,10,16.66663Z"/></svg>