<svg id="Layer_1" data-name="Layer 1" xmlns="http://www.w3.org/2000/svg" viewBox="0 0 20 20"><defs><style>.cls-1{fill:#fff;}</style></defs><title>icons white</title><path class="cls-1" d="M10,0A10,10,0,1,0,20,10,10,10,0,0,0,10,0ZM5.58667,6.12617h8.8c.01221,0,.02246.00616.03448.0069l-4.1933,3.39185a.50191.50191,0,0,1-.46265.01465L5.55255,6.133C5.56445,6.13233,5.57458,6.12617,5.58667,6.12617ZM14.325,13.48743,5.58667,13.45A.58322.58322,0,0,1,5,12.87183V7.0907a.56554.56554,0,0,1,.04962-.2298l4.36932,3.53082a1.04511,1.04511,0,0,0,1.11578.01245.28717.28717,0,0,0,.04724-.03137l4.34174-3.512a.56413.56413,0,0,1,.04974.22986S15,11.16248,15,13.03741C15,13.48743,14.325,13.48743,14.325,13.48743Z"/></svg>