<svg id="Layer_1" data-name="Layer 1" xmlns="http://www.w3.org/2000/svg" viewBox="0 0 20 20"><defs><style>.cls-1{fill:#fff;}</style></defs><title>icons white</title><path class="cls-1" d="M17.8,14.61A2.93,2.93,0,0,0,17.66,10h0A7.68,7.68,0,0,0,10,2.38a8,8,0,0,0-3,.56H7A2.93,2.93,0,1,0,2.2,5.16,4.11,4.11,0,0,0,0,8.79V10a.59.59,0,0,0,.59.59H2.37A7.68,7.68,0,0,0,10,17.62a8.51,8.51,0,0,0,1.88-.2,4.11,4.11,0,0,0-.08.83v1.17a.59.59,0,0,0,.59.59h7a.59.59,0,0,0,.59-.59V18.24A4.11,4.11,0,0,0,17.8,14.61ZM10,16.45a6.49,6.49,0,0,1-6.46-5.9H7.62A.59.59,0,0,0,8.2,10V8.79A4.11,4.11,0,0,0,6,5.16a3,3,0,0,0,.59-.69,6.56,6.56,0,0,1,9.87,5A2.93,2.93,0,0,0,14,14.61,4.13,4.13,0,0,0,12.46,16,6.74,6.74,0,0,1,10,16.45Z"/></svg>