<svg id="Layer_1" data-name="Layer 1" xmlns="http://www.w3.org/2000/svg" viewBox="0 0 20 20"><defs><style>.cls-1{fill:#fff;}</style></defs><title>icons white</title><path class="cls-1" d="M5.58,1.83,4.15.4A10.425,10.425,0,0,0,.03,8.25h2A8.4455,8.4455,0,0,1,5.58,1.83ZM17.97,8.25h2A10.4886,10.4886,0,0,0,15.85.4L14.43,1.83A8.49525,8.49525,0,0,1,17.97,8.25ZM16,8.75c0-3.07-1.64-5.64-4.5-6.32V1.75a1.5,1.5,0,1,0-3,0v.68C5.63,3.11,4,5.67,4,8.75v5l-2,2v1H18v-1l-2-2Zm-6,11a1.75174,1.75174,0,0,0,.4-.04,2.029,2.029,0,0,0,1.44-1.18,2.00767,2.00767,0,0,0,.15-.78h-4A2.01448,2.01448,0,0,0,10,19.75Z"/></svg>