<svg id="Layer_1" data-name="Layer 1" xmlns="http://www.w3.org/2000/svg" viewBox="0 0 20 20"><defs><style>.cls-1{fill:#fff;}</style></defs><title>icons white</title><path class="cls-1" d="M10,0A10,10,0,1,0,20,10,10,10,0,0,0,10,0Zm1.45065,6.75926h3.82361a.13292.13292,0,0,1,.04472.00269l-3.86833,3.28046Zm-.74074,8.19926a.509.509,0,0,1-.61741.51241L4.5537,14.25759a.52972.52972,0,0,1-.418-.51241V5.9888a.53513.53513,0,0,1,.448-.517l5.5238-.94741a.51575.51575,0,0,1,.60231.517v9.91713ZM15.8025,7.73593v4.97935a.47412.47412,0,0,1-.52824.52556H11.45065V11.21537c0-.007,4.323-3.7362,4.323-3.7362A.60585.60585,0,0,1,15.8025,7.73593ZM8.29,7.73917a1.93837,1.93837,0,0,0-2.10028.21065,2.69545,2.69545,0,0,0,0,4.10056,2.03238,2.03238,0,0,0,.89157.39824A1.89235,1.89235,0,0,0,8.29,12.26093a2.44342,2.44342,0,0,0,1.19019-2.26083A2.44368,2.44368,0,0,0,8.29,7.73917Zm-.563,3.45824a1.11142,1.11142,0,0,1-1.19593-.01185,1.47579,1.47579,0,0,1,0-2.37074,1.139,1.139,0,0,1,.54722-.17833,1.06476,1.06476,0,0,1,.6488.1663,1.33432,1.33432,0,0,1,.50713,1.19741A1.33422,1.33422,0,0,1,7.727,11.19741Z"/></svg>