<svg id="Layer_1" data-name="Layer 1" xmlns="http://www.w3.org/2000/svg" viewBox="0 0 20 20"><defs><style>.cls-1{fill:#fff;fill-opacity:0.36;}</style></defs><title>icons white</title><path class="cls-1" d="M15.83,14.17A1.67,1.67,0,0,0,17.5,12.5c0-1.11-1.67-2.92-1.67-2.92s-1.67,1.81-1.67,2.92A1.67,1.67,0,0,0,15.83,14.17Z"/><path class="cls-1" d="M7.45,13.8a1.25,1.25,0,0,0,1.77,0L13.8,9.22a1.24,1.24,0,0,0,0-1.77L6.35,0,5.17,1.17l2,2L2.87,7.45a1.24,1.24,0,0,0,0,1.77Zm.88-9.46,4,4h-8Z"/><rect class="cls-1" y="16.67" width="20" height="3.33"/></svg>