<svg id="Layer_1" data-name="Layer 1" xmlns="http://www.w3.org/2000/svg" viewBox="0 0 20 20"><defs><style>.cls-1{fill:#fff;}</style></defs><title>icons white</title><path class="cls-1" d="M19.5,2.46667,17.95556.6A1.67691,1.67691,0,0,0,16.66667,0H3.33333A1.6127,1.6127,0,0,0,2.05556.61111L.51111,2.46667A2.2055,2.2055,0,0,0,0,3.88889V17.77778A2.22161,2.22161,0,0,0,2.22222,20H17.77778A2.22875,2.22875,0,0,0,20,17.77778V3.88889A2.259,2.259,0,0,0,19.5,2.46667ZM10,7.22222l6.11111,6.11111H12.22222v2.22222H7.77778V13.33333H3.88889Zm-7.64444-5,.91111-1.11111H16.6l1.03333,1.11111Z"/></svg>