<svg id="Layer_1" data-name="Layer 1" xmlns="http://www.w3.org/2000/svg" viewBox="0 0 20 20"><defs><style>.cls-1{fill:#fff;}</style></defs><title>icons white</title><g id="PROFILE"><g id="Profile_" data-name="Profile "><g id="Redes-sociales"><path id="Combined-Shape" class="cls-1" d="M20,9.49c0,.08,0,.17,0,.25A9.83,9.83,0,0,1,5.44,18.27L0,20l1.77-5.22a9.67,9.67,0,0,1-1.41-5c0-.14,0-.28,0-.43A9.82,9.82,0,0,1,20,9.49ZM14.19,12c-.23-.12-1.36-.72-1.57-.8s-.36-.12-.52.12-.6.8-.73,1-.27.19-.5.06A6.13,6.13,0,0,1,9,11.08a7.29,7.29,0,0,1-1.28-1.7.38.38,0,0,1,.1-.5c.11-.11.23-.29.35-.43l.08-.12A2.79,2.79,0,0,0,8.43,8a.48.48,0,0,0,0-.43c-.06-.12-.52-1.34-.71-1.83s-.38-.41-.52-.41l-.44,0a.82.82,0,0,0-.61.31,2.86,2.86,0,0,0-.8,2.06,3.38,3.38,0,0,0,.12.84,5.77,5.77,0,0,0,.82,1.71A9.77,9.77,0,0,0,10.19,14c2.34,1,2.34.65,2.76.61a2.3,2.3,0,0,0,1.55-1.17,2.19,2.19,0,0,0,.14-1.17C14.58,12.14,14.42,12.08,14.19,12Z"/></g></g></g></svg>