<?xml version="1.0" encoding="utf-8"?>
<!-- Generator: Adobe Illustrator 21.1.0, SVG Export Plug-In . SVG Version: 6.00 Build 0)  -->
<svg version="1.1" id="Layer_1" xmlns="http://www.w3.org/2000/svg" xmlns:xlink="http://www.w3.org/1999/xlink" x="0px" y="0px"
	 viewBox="0 0 20 20" style="enable-background:new 0 0 20 20;" xml:space="preserve">
<style type="text/css">
	.st0{fill:none;stroke:#000000;stroke-width:0.35;stroke-linecap:round;stroke-linejoin:round;stroke-miterlimit:10;}
	.st1{fill:none;stroke:#000000;stroke-miterlimit:10;}
	.st2{fill-opacity:0.36;}
	.st3{fill:#2B2B2B;}
</style>
<path d="M10,0C4.5,0,0,4.5,0,10s4.5,10,10,10s10-4.5,10-10S15.5,0,10,0z M11.5,6.8h3.8c0,0,0,0,0,0L11.5,10L11.5,6.8z M10.7,15
	c0,0.3-0.3,0.6-0.6,0.5l-5.5-1.2c-0.2-0.1-0.4-0.3-0.4-0.5V6c0-0.3,0.2-0.5,0.4-0.5l5.5-0.9c0.3-0.1,0.6,0.2,0.6,0.5L10.7,15
	L10.7,15z M15.8,7.7v5c0,0.3-0.2,0.5-0.5,0.5h-3.8v-2c0,0,4.3-3.7,4.3-3.7C15.8,7.6,15.8,7.6,15.8,7.7z M8.3,7.7
	C7.6,7.4,6.8,7.5,6.2,7.9C5.6,8.4,5.2,9.2,5.2,10s0.4,1.6,0.9,2.1c0.3,0.2,0.6,0.3,0.9,0.4c0.4,0.1,0.8,0,1.2-0.2
	C9,11.9,9.5,11,9.5,10C9.5,9,9,8.1,8.3,7.7z M7.7,11.2c-0.4,0.2-0.8,0.2-1.2,0c-0.4-0.3-0.6-0.8-0.6-1.2s0.2-0.9,0.6-1.2
	c0.2-0.1,0.4-0.2,0.5-0.2c0.2,0,0.5,0,0.6,0.2C8.1,9,8.2,9.4,8.2,10C8.2,10.6,8.1,11,7.7,11.2z"/>
</svg>
