<?xml version="1.0" encoding="utf-8"?>
<!-- Generator: Adobe Illustrator 21.1.0, SVG Export Plug-In . SVG Version: 6.00 Build 0)  -->
<svg version="1.1" id="Layer_1" xmlns="http://www.w3.org/2000/svg" xmlns:xlink="http://www.w3.org/1999/xlink" x="0px" y="0px"
	 viewBox="0 0 20 20" style="enable-background:new 0 0 20 20;" xml:space="preserve">
<style type="text/css">
	.st0{fill:none;stroke:#000000;stroke-width:0.35;stroke-linecap:round;stroke-linejoin:round;stroke-miterlimit:10;}
	.st1{fill:none;stroke:#000000;stroke-miterlimit:10;}
	.st2{fill-opacity:0.36;}
	.st3{fill:#2B2B2B;}
</style>
<path d="M19.5,2.5l-1.5-1.9C17.6,0.2,17.2,0,16.7,0H3.3C2.8,0,2.4,0.2,2,0.6L0.5,2.5C0.2,2.9,0,3.4,0,3.9v13.9C0,19,1,20,2.2,20
	h15.6c1.2,0,2.2-1,2.2-2.2V3.9C20,3.4,19.8,2.9,19.5,2.5z M10,16.1L3.9,10h3.9V7.8h4.4V10h3.9L10,16.1z M2.4,2.2l0.9-1.1h13.3l1,1.1
	H2.4z"/>
</svg>
