<?xml version="1.0" encoding="utf-8"?>
<!-- Generator: Adobe Illustrator 21.1.0, SVG Export Plug-In . SVG Version: 6.00 Build 0)  -->
<svg version="1.1" id="Layer_1" xmlns="http://www.w3.org/2000/svg" xmlns:xlink="http://www.w3.org/1999/xlink" x="0px" y="0px"
	 viewBox="0 0 20 20" style="enable-background:new 0 0 20 20;" xml:space="preserve">
<style type="text/css">
	.st0{fill:none;stroke:#000000;stroke-width:0.35;stroke-linecap:round;stroke-linejoin:round;stroke-miterlimit:10;}
	.st1{fill:none;stroke:#000000;stroke-miterlimit:10;}
	.st2{fill-opacity:0.36;}
	.st3{fill:#2B2B2B;}
</style>
<path d="M10,5.5c2.5,0,4.5,2,4.5,4.5c0,0.6-0.1,1.1-0.3,1.7l2.7,2.7c1.4-1.1,2.5-2.6,3.1-4.3c-1.6-4-5.5-6.8-10-6.8
	c-1.3,0-2.5,0.2-3.6,0.6l2,2C8.9,5.6,9.4,5.5,10,5.5z M0.9,3L3,5.1l0.4,0.4C1.9,6.7,0.7,8.2,0,10c1.6,4,5.5,6.8,10,6.8
	c1.4,0,2.8-0.3,4-0.8l0.4,0.4l2.7,2.7l1.2-1.2L2.1,1.9L0.9,3z M5.9,8l1.4,1.4c0,0.2-0.1,0.4-0.1,0.6c0,1.5,1.2,2.7,2.7,2.7
	c0.2,0,0.4,0,0.6-0.1l1.4,1.4c-0.6,0.3-1.3,0.5-2,0.5c-2.5,0-4.5-2-4.5-4.5C5.5,9.3,5.6,8.7,5.9,8z M9.9,7.3l2.9,2.9l0-0.1
	c0-1.5-1.2-2.7-2.7-2.7L9.9,7.3z"/>
</svg>
