<?xml version="1.0" encoding="utf-8"?>
<!-- Generator: Adobe Illustrator 21.1.0, SVG Export Plug-In . SVG Version: 6.00 Build 0)  -->
<svg version="1.1" id="Layer_1" xmlns="http://www.w3.org/2000/svg" xmlns:xlink="http://www.w3.org/1999/xlink" x="0px" y="0px"
	 viewBox="0 0 20 20" style="enable-background:new 0 0 20 20;" xml:space="preserve">
<style type="text/css">
	.st0{fill:none;stroke:#000000;stroke-width:0.35;stroke-linecap:round;stroke-linejoin:round;stroke-miterlimit:10;}
	.st1{fill:none;stroke:#000000;stroke-miterlimit:10;}
	.st2{fill-opacity:0.36;}
	.st3{fill:#2B2B2B;}
</style>
<path d="M11,11.1L11,11.1c2.1-3.7,5.5-9.6,6.5-10.9c0,0,0,0,0,0l0,0c-0.8,0.2-1.7,0.2-2.5,0c-0.7,1.3-3.3,5.6-5,8.3l0,0v0
	c-1.7-2.8-3.7-6-5-8.3l0,0l0,0c-0.8,0.2-1.7,0.2-2.5,0c0,0,0,0,0,0c0,0,0,0,0,0c0,0,0,0,0,0l0,0c2,3.1,5.3,8.9,6.4,10.9l-0.1,8l0,0
	c0,0,0,0,0,0v0l0,0c0.4-0.1,0.8-0.1,1.2-0.1c0.4,0,0.8,0.1,1.2,0.1l0,0l0,0L11,11.1z"/>
</svg>
