<?xml version="1.0" encoding="utf-8"?>
<!-- Generator: Adobe Illustrator 21.1.0, SVG Export Plug-In . SVG Version: 6.00 Build 0)  -->
<svg version="1.1" id="Layer_1" xmlns="http://www.w3.org/2000/svg" xmlns:xlink="http://www.w3.org/1999/xlink" x="0px" y="0px"
	 viewBox="0 0 20 20" style="enable-background:new 0 0 20 20;" xml:space="preserve">
<style type="text/css">
	.st0{fill:none;stroke:#000000;stroke-width:0.35;stroke-linecap:round;stroke-linejoin:round;stroke-miterlimit:10;}
	.st1{fill:none;stroke:#000000;stroke-miterlimit:10;}
	.st2{fill-opacity:0.36;}
	.st3{fill:#2B2B2B;}
</style>
<path d="M20,9c-0.6-5.2-4.9-8-7-8.5C12,0.2,11,0,10,0C4.5,0,0,4.5,0,10s4.5,10,10,10s10-4.5,10-10C20,9.7,20,9.3,20,9z M9,17.9
	c-4-0.5-7-3.8-7-7.9c0-0.6,0.1-1.2,0.2-1.8L7,13v1c0,1.1,0.9,2,2,2V17.9z M15.9,15.4c-0.3-0.8-1-1.4-1.9-1.4h-1v-3c0-0.5-0.5-1-1-1
	H6V8h2c0.5,0,1-0.5,1-1V5h2c1.1,0,2-0.9,2-2V2.5C17,3.9,17.9,9,17.9,9c0,0.3,0.1,0.7,0.1,1C18,12.1,17.2,14,15.9,15.4z"/>
</svg>
