<?xml version="1.0" encoding="utf-8"?>
<!-- Generator: Adobe Illustrator 21.1.0, SVG Export Plug-In . SVG Version: 6.00 Build 0)  -->
<svg version="1.1" id="Layer_1" xmlns="http://www.w3.org/2000/svg" xmlns:xlink="http://www.w3.org/1999/xlink" x="0px" y="0px"
	 viewBox="0 0 20 20" style="enable-background:new 0 0 20 20;" xml:space="preserve">
<style type="text/css">
	.st0{fill:none;stroke:#000000;stroke-width:0.35;stroke-linecap:round;stroke-linejoin:round;stroke-miterlimit:10;}
	.st1{fill:none;stroke:#000000;stroke-miterlimit:10;}
	.st2{fill-opacity:0.36;}
	.st3{fill:#2B2B2B;}
</style>
<g id="PROFILE">
	<g id="Opciones-el-timeline-_x28_Calls_x29_" transform="translate(-1401.000000, -371.000000)">
		<path id="Combined-Shape" d="M1401.3,376L1401.3,376c0-0.2,0.1-0.5,0.3-0.6c0.2-0.2,0.4-0.3,0.6-0.3h3.2c0.2,0,0.5,0.1,0.6,0.3
			c0.2,0.2,0.3,0.4,0.3,0.6c0,1,0.2,2,0.5,2.9c0.1,0.3,0,0.7-0.2,0.9l-2,2c0.6,1.2,1.5,2.4,2.5,3.4c1,1,2.2,1.9,3.4,2.5l2-2
			c0.3-0.3,0.6-0.3,0.9-0.2c0.9,0.3,1.9,0.5,2.9,0.5c0.2,0,0.5,0.1,0.6,0.3c0.2,0.2,0.3,0.4,0.3,0.6v3.2c0,0.2-0.1,0.5-0.3,0.6
			c-0.2,0.2-0.4,0.3-0.6,0.3c-3.8-0.1-7.6-1.6-10.5-4.5C1402.9,383.6,1401.4,379.8,1401.3,376z M1414.3,371h6.5v6.5h-1.3v-4.3
			l-7.5,7.5l-0.9-0.9l7.5-7.5h-4.3V371z"/>
	</g>
</g>
</svg>
