<?xml version="1.0" encoding="utf-8"?>
<!-- Generator: Adobe Illustrator 21.1.0, SVG Export Plug-In . SVG Version: 6.00 Build 0)  -->
<svg version="1.1" id="Layer_1" xmlns="http://www.w3.org/2000/svg" xmlns:xlink="http://www.w3.org/1999/xlink" x="0px" y="0px"
	 viewBox="0 0 20 20" style="enable-background:new 0 0 20 20;" xml:space="preserve">
<style type="text/css">
	.st0{fill:none;stroke:#000000;stroke-width:0.25;stroke-linecap:round;stroke-linejoin:round;stroke-miterlimit:10;}
	.st1{fill:none;stroke:#000000;stroke-miterlimit:10;}
</style>
<g>
	<polygon class="st0" points="16.9,7.4 10,12.2 9.9,12.1 9.9,12.1 3,7.3 3,16.9 3,17 3,17 16.9,17 17,17 	"/>
	<polygon class="st0" points="17.5,4.1 2.5,4.1 10,9.5 	"/>
</g>
<path class="st1" d="M17,17L17,17"/>
<g>
	<path d="M19,5.9L19,5.9L19,5.9L19,5.9V5.5C19,4.7,18.3,4,17.5,4l0,0L10,9.5L2.5,4C1.7,4,1,4.7,1,5.5v10.1c0,1.5,2,1.5,2,1.5V7.3
		l7,4.9l7-4.8l0,0v9.7c1.5,0,2-0.4,2-1.5V5.9z"/>
</g>
</svg>
