<?xml version="1.0" encoding="utf-8"?>
<!-- Generator: Adobe Illustrator 21.1.0, SVG Export Plug-In . SVG Version: 6.00 Build 0)  -->
<svg version="1.1" id="Layer_1" xmlns="http://www.w3.org/2000/svg" xmlns:xlink="http://www.w3.org/1999/xlink" x="0px" y="0px"
	 viewBox="0 0 20 20" style="enable-background:new 0 0 20 20;" xml:space="preserve">
<style type="text/css">
	.st0{fill:none;stroke:#000000;stroke-width:0.35;stroke-linecap:round;stroke-linejoin:round;stroke-miterlimit:10;}
	.st1{fill:none;stroke:#000000;stroke-miterlimit:10;}
	.st2{fill-opacity:0.36;}
	.st3{fill:#2B2B2B;}
</style>
<g>
	<path d="M6.6,13.6h6.8V8.3H6.6V13.6z M11.5,9.3h1v1h-1V9.3z M9.5,9.3h1v1h-1V9.3z M7.6,9.3h1v1h-1V9.3z"/>
	<path d="M10,0C4.5,0,0,4.5,0,10s4.5,10,10,10s10-4.5,10-10S15.5,0,10,0z M14.4,13.6c0,0.5-0.4,1-1,1H6.6c-0.5,0-1-0.4-1-1l0-6.7
		c0-0.5,0.4-1,1-1h0.5V5h1v1H12V5h1v1h0.5c0.5,0,1,0.4,1,1V13.6z"/>
</g>
</svg>
