<?xml version="1.0" encoding="utf-8"?>
<!-- Generator: Adobe Illustrator 21.1.0, SVG Export Plug-In . SVG Version: 6.00 Build 0)  -->
<svg version="1.1" id="Layer_1" xmlns="http://www.w3.org/2000/svg" xmlns:xlink="http://www.w3.org/1999/xlink" x="0px" y="0px"
	 viewBox="0 0 20 20" style="enable-background:new 0 0 20 20;" xml:space="preserve">
<style type="text/css">
	.st0{fill:none;stroke:#000000;stroke-width:0.35;stroke-linecap:round;stroke-linejoin:round;stroke-miterlimit:10;}
	.st1{fill:none;stroke:#000000;stroke-miterlimit:10;}
	.st2{fill-opacity:0.36;}
	.st3{fill:#2B2B2B;}
</style>
<path d="M10,0C4.5,0,0,4.5,0,10s4.5,10,10,10s10-4.5,10-10S15.5,0,10,0z M11,17H9v-2h2V17z M13.1,9.2l-0.9,0.9
	C11.4,10.9,11,11.5,11,13H9v-0.5c0-1.1,0.4-2.1,1.2-2.8l1.2-1.3C11.8,8.1,12,7.6,12,7c0-1.1-0.9-2-2-2S8,5.9,8,7H6c0-2.2,1.8-4,4-4
	s4,1.8,4,4C14,7.9,13.6,8.7,13.1,9.2z"/>
</svg>
