<?xml version="1.0" encoding="utf-8"?>
<!-- Generator: Adobe Illustrator 21.1.0, SVG Export Plug-In . SVG Version: 6.00 Build 0)  -->
<svg version="1.1" id="Layer_1" xmlns="http://www.w3.org/2000/svg" xmlns:xlink="http://www.w3.org/1999/xlink" x="0px" y="0px"
	 viewBox="0 0 20 20" style="enable-background:new 0 0 20 20;" xml:space="preserve">
<style type="text/css">
	.st0{fill:none;stroke:#000000;stroke-width:0.35;stroke-linecap:round;stroke-linejoin:round;stroke-miterlimit:10;}
	.st1{fill:none;stroke:#000000;stroke-miterlimit:10;}
	.st2{fill-opacity:0.36;}
	.st3{fill:#2B2B2B;}
</style>
<g>
	<path d="M1.1,3h13.3c0,0,0,0,0.1,0L8.1,8.1c-0.2,0.1-0.6,0.1-0.7,0L1.1,3C1.1,3,1.1,3,1.1,3z"/>
	<path d="M9.1,12.2v1.3h-8c-0.5,0-0.9-0.4-0.9-0.9V3.9c0-0.1,0-0.2,0.1-0.3l6.6,5.3C7.2,9,7.5,9.1,7.8,9.1c0.3,0,0.6-0.1,0.8-0.2
		c0,0,0,0,0.1,0l6.6-5.3c0,0.1,0.1,0.2,0.1,0.3v7h-4.9C9.7,10.9,9.1,11.5,9.1,12.2z"/>
	<path d="M19.3,11.7h-8.9c-0.2,0-0.4,0.2-0.4,0.4v4.4c0,0.2,0.2,0.4,0.4,0.4h8.9c0.2,0,0.4-0.2,0.4-0.4v-4.4
		C19.8,11.9,19.6,11.7,19.3,11.7z M17.1,16.1h-4.4c-1,0-1.8-0.8-1.8-1.8c0-1,0.8-1.7,1.8-1.7s1.8,0.8,1.8,1.7c0,0.3-0.1,0.6-0.2,0.9
		h1.4c-0.2-0.3-0.2-0.6-0.2-0.9c0-1,0.8-1.7,1.8-1.7c1,0,1.8,0.8,1.8,1.7C18.9,15.3,18.1,16.1,17.1,16.1z"/>
	<ellipse cx="12.7" cy="14.4" rx="0.9" ry="0.9"/>
	<ellipse cx="17.1" cy="14.4" rx="0.9" ry="0.9"/>
</g>
</svg>
