<?xml version="1.0" encoding="utf-8"?>
<!-- Generator: Adobe Illustrator 21.1.0, SVG Export Plug-In . SVG Version: 6.00 Build 0)  -->
<svg version="1.1" id="Layer_1" xmlns="http://www.w3.org/2000/svg" xmlns:xlink="http://www.w3.org/1999/xlink" x="0px" y="0px"
	 viewBox="0 0 20 20" style="enable-background:new 0 0 20 20;" xml:space="preserve">
<style type="text/css">
	.st0{fill:none;stroke:#000000;stroke-width:0.35;stroke-linecap:round;stroke-linejoin:round;stroke-miterlimit:10;}
	.st1{fill:none;stroke:#000000;stroke-miterlimit:10;}
	.st2{fill-opacity:0.36;}
	.st3{fill:#2B2B2B;}
</style>
<g id="PROFILE_5_">
	<g id="status-_x28_Logic_x29__2_" transform="translate(-60.000000, -280.000000)">
		<g id="Todas-las-cuentas-Copy" transform="translate(60.000000, 280.000000)">
			<path id="Todas-las-cuentas" d="M10,20C4.5,20,0,15.5,0,10S4.5,0,10,0s10,4.5,10,10S15.5,20,10,20z M13.8,9.2
				c0.7,0,1.3-0.6,1.3-1.4s-0.6-1.4-1.3-1.4s-1.3,0.6-1.3,1.4S13.1,9.2,13.8,9.2z M10.3,9.2c0.7,0,1.3-0.6,1.3-1.4S11,6.5,10.3,6.5
				S8.9,7.1,8.9,7.8S9.5,9.2,10.3,9.2z M10.3,10.1c-1,0-3.1,0.5-3.1,1.6v1.1h6.2v-1.1C13.4,10.6,11.3,10.1,10.3,10.1z M13.8,10.1
				c-0.1,0-0.3,0-0.4,0c0.5,0.4,0.9,0.9,0.9,1.6v1.1h2.7v-1.1C16.9,10.6,14.9,10.1,13.8,10.1z M7,9.2c0.7,0,1.3-0.6,1.3-1.4
				S7.7,6.5,7,6.5S5.6,7.1,5.6,7.8S6.2,9.2,7,9.2z M6.7,9.9c-1.1,0-3.3,0.6-3.3,1.7v1.2h2.8v-1.2c0-0.7,0.4-1.3,0.9-1.7
				C7,10,6.8,9.9,6.7,9.9z"/>
		</g>
	</g>
</g>
</svg>
