<?xml version="1.0" encoding="utf-8"?>
<!-- Generator: Adobe Illustrator 21.1.0, SVG Export Plug-In . SVG Version: 6.00 Build 0)  -->
<svg version="1.1" id="Layer_1" xmlns="http://www.w3.org/2000/svg" xmlns:xlink="http://www.w3.org/1999/xlink" x="0px" y="0px"
	 viewBox="0 0 20 20" style="enable-background:new 0 0 20 20;" xml:space="preserve">
<style type="text/css">
	.st0{fill:none;stroke:#000000;stroke-width:0.35;stroke-linecap:round;stroke-linejoin:round;stroke-miterlimit:10;}
	.st1{fill:none;stroke:#000000;stroke-miterlimit:10;}
	.st2{fill-opacity:0.36;}
	.st3{fill:#2B2B2B;}
</style>
<g>
	<path d="M1.6,3.4h16.7c0,0,0,0,0.1,0l-8,6.4c-0.3,0.2-0.7,0.1-0.9,0L1.6,3.4C1.6,3.4,1.6,3.4,1.6,3.4z"/>
	<path d="M18.2,16.6L1.6,16.6c-0.6,0-1.1-0.5-1.1-1.1v-11c0-0.2,0-0.3,0.1-0.4l8.3,6.7c0.3,0.2,0.7,0.3,1.1,0.3c0.4,0,0.7-0.1,1-0.3
		c0,0,0.1,0,0.1-0.1L19.4,4c0.1,0.1,0.1,0.3,0.1,0.4c0,0,0.1,7.7,0.1,11.3C19.5,16.6,18.2,16.6,18.2,16.6z"/>
</g>
</svg>
