<?xml version="1.0" encoding="utf-8"?>
<!-- Generator: Adobe Illustrator 21.1.0, SVG Export Plug-In . SVG Version: 6.00 Build 0)  -->
<svg version="1.1" id="Layer_1" xmlns="http://www.w3.org/2000/svg" xmlns:xlink="http://www.w3.org/1999/xlink" x="0px" y="0px"
	 viewBox="0 0 20 20" style="enable-background:new 0 0 20 20;" xml:space="preserve">
<style type="text/css">
	.st0{fill:none;stroke:#000000;stroke-width:0.35;stroke-linecap:round;stroke-linejoin:round;stroke-miterlimit:10;}
	.st1{fill:none;stroke:#000000;stroke-miterlimit:10;}
	.st2{fill-opacity:0.36;}
	.st3{fill:#2B2B2B;}
</style>
<path d="M19.5,2.5L18,0.6C17.6,0.2,17.2,0,16.7,0H3.3c-0.5,0-1,0.2-1.3,0.6L0.5,2.5C0.2,2.9,0,3.3,0,3.9v13.9C0,19,1,20,2.2,20h15.6
	c1.2,0,2.2-1,2.2-2.2V3.9C20,3.3,19.8,2.9,19.5,2.5z M10,7.2l6.1,6.1h-3.9v2.2H7.8v-2.2H3.9L10,7.2z M2.4,2.2l0.9-1.1h13.3l1,1.1
	H2.4z"/>
</svg>
