<?xml version="1.0" encoding="utf-8"?>
<!-- Generator: Adobe Illustrator 21.1.0, SVG Export Plug-In . SVG Version: 6.00 Build 0)  -->
<svg version="1.1" id="Layer_1" xmlns="http://www.w3.org/2000/svg" xmlns:xlink="http://www.w3.org/1999/xlink" x="0px" y="0px"
	 viewBox="0 0 20 20" style="enable-background:new 0 0 20 20;" xml:space="preserve">
<style type="text/css">
	.st0{fill:none;stroke:#000000;stroke-width:0.35;stroke-linecap:round;stroke-linejoin:round;stroke-miterlimit:10;}
	.st1{fill:none;stroke:#000000;stroke-miterlimit:10;}
	.st2{fill-opacity:0.36;}
	.st3{fill:#2B2B2B;}
</style>
<g id="PROFILE_1_">
	<g id="status-_x28_Description_x29_" transform="translate(-186.000000, -400.000000)">
		<g id="Group-14" transform="translate(186.000000, 400.000000)">
			<path id="path2993-path" class="st3" d="M6.3,18c-0.1,0.3-0.6-2.3-1.4-7.6l9.6-5.8c2-1.3,2.6-1.5,1.8-0.5c-0.8,1-3.8,3.7-8.9,8
				C7.2,14.5,6.8,16.5,6.3,18z"/>
			<path id="path2991-path" d="M7.8,11.7l7.4,5.5c0.8,0.5,1.5,0.2,1.7-0.8l3-14.2c0.3-1.2-0.5-1.8-1.3-1.4L0.9,7.6
				C-0.3,8-0.3,8.7,0.7,9l4.6,1.4l10.5-6.6c0.5-0.3,1-0.1,0.6,0.2L7.8,11.7z"/>
		</g>
	</g>
</g>
</svg>
