<?xml version="1.0" encoding="utf-8"?>
<!-- Generator: Adobe Illustrator 21.1.0, SVG Export Plug-In . SVG Version: 6.00 Build 0)  -->
<svg version="1.1" id="Layer_1" xmlns="http://www.w3.org/2000/svg" xmlns:xlink="http://www.w3.org/1999/xlink" x="0px" y="0px"
	 viewBox="0 0 20 20" style="enable-background:new 0 0 20 20;" xml:space="preserve">
<style type="text/css">
	.st0{fill:none;stroke:#2F2F5C;stroke-width:0.5;stroke-linecap:round;stroke-linejoin:round;stroke-miterlimit:10;}
	.st1{fill:none;}
	.st2{fill:#2F2F5C;}
	.st3{fill:none;stroke:#2F2F5C;stroke-width:0.5;stroke-miterlimit:10;}
</style>
<path class="st0" d="M17.8,14.6c0.6-0.5,1-1.3,1-2.2c0-1-0.5-1.8-1.2-2.3c0,0,0,0,0,0c0-4.2-3.4-7.7-7.7-7.7c-1.1,0-2.1,0.2-3,0.6
	c0,0,0,0,0,0C7,1.3,5.7,0,4.1,0S1.2,1.3,1.2,2.9c0,0.9,0.4,1.7,1,2.2C0.9,5.8,0,7.2,0,8.8V10c0,0.3,0.3,0.6,0.6,0.6h1.8
	c0.3,3.9,3.6,7.1,7.6,7.1c0.7,0,1.3-0.1,1.9-0.2c-0.1,0.3-0.1,0.5-0.1,0.8v1.2c0,0.3,0.3,0.6,0.6,0.6h7c0.3,0,0.6-0.3,0.6-0.6v-1.2
	C20,16.7,19.1,15.3,17.8,14.6z M10,16.4c-3.4,0-6.2-2.6-6.5-5.9h4.1c0.3,0,0.6-0.3,0.6-0.6V8.8c0-1.6-0.9-2.9-2.2-3.6
	C6.2,5,6.4,4.7,6.6,4.5c1-0.6,2.1-0.9,3.4-0.9c3.4,0,6.2,2.6,6.5,6c-0.2,0-0.4-0.1-0.6-0.1c-1.6,0-2.9,1.3-2.9,2.9
	c0,0.9,0.4,1.7,1,2.2c-0.6,0.3-1.2,0.8-1.5,1.4C11.7,16.3,10.9,16.4,10,16.4z"/>
</svg>
