<?xml version="1.0" encoding="utf-8"?>
<!-- Generator: Adobe Illustrator 21.1.0, SVG Export Plug-In . SVG Version: 6.00 Build 0)  -->
<svg version="1.1" id="Layer_1" xmlns="http://www.w3.org/2000/svg" xmlns:xlink="http://www.w3.org/1999/xlink" x="0px" y="0px"
	 viewBox="0 0 20 20" style="enable-background:new 0 0 20 20;" xml:space="preserve">
<style type="text/css">
	.st0{fill:none;stroke:#2F2F5C;stroke-width:0.5;stroke-linecap:round;stroke-linejoin:round;stroke-miterlimit:10;}
	.st1{fill:none;}
	.st2{fill:#2F2F5C;}
	.st3{fill:none;stroke:#2F2F5C;stroke-width:0.5;stroke-miterlimit:10;}
</style>
<g>
	<circle class="st0" cx="10" cy="11" r="3.2"/>
	<path class="st0" d="M7,1L5.2,3H2C0.9,3,0,3.9,0,5v12c0,1.1,0.9,2,2,2h16c1.1,0,2-0.9,2-2V5c0-1.1-0.9-2-2-2h-3.2L13,1H7z M10,16
		c-2.8,0-5-2.2-5-5s2.2-5,5-5s5,2.2,5,5S12.8,16,10,16z"/>
</g>
</svg>
