<?xml version="1.0" encoding="utf-8"?>
<!-- Generator: Adobe Illustrator 21.1.0, SVG Export Plug-In . SVG Version: 6.00 Build 0)  -->
<svg version="1.1" id="Layer_1" xmlns="http://www.w3.org/2000/svg" xmlns:xlink="http://www.w3.org/1999/xlink" x="0px" y="0px"
	 viewBox="0 0 20 20" style="enable-background:new 0 0 20 20;" xml:space="preserve">
<style type="text/css">
	.st0{fill:none;stroke:#2F2F5C;stroke-width:0.5;stroke-linecap:round;stroke-linejoin:round;stroke-miterlimit:10;}
	.st1{fill:none;}
	.st2{fill:#2F2F5C;}
	.st3{fill:none;stroke:#2F2F5C;stroke-width:0.5;stroke-miterlimit:10;}
</style>
<g id="PROFILE_3_">
	<g id="status-_x28_Logic_x29__1_" transform="translate(-395.000000, -203.000000)">
		<path id="Fill-1" class="st0" d="M395,219.8c2.2,0.3,4.3-0.3,6.1-1.7c-1.8,0-3.3-1.2-3.8-2.8c0.6,0.1,1.3,0.1,1.9-0.1
			c-2-0.4-3.3-2.2-3.3-4.1c0.6,0.3,1.2,0.5,1.9,0.5c-1.8-1.2-2.3-3.6-1.3-5.5c2,2.5,5,4.1,8.5,4.3c-0.6-2.6,1.3-5,4-5
			c1.2,0,2.2,0.5,3,1.3c0.9-0.2,1.8-0.5,2.6-1c-0.3,1-1,1.8-1.8,2.3c0.8-0.1,1.6-0.3,2.4-0.6c-0.6,0.8-1.2,1.5-2,2.1
			c0.3,5.8-4,12.2-11.7,12.2C399,221.6,396.8,220.9,395,219.8z"/>
	</g>
</g>
</svg>
