<?xml version="1.0" encoding="utf-8"?>
<!-- Generator: Adobe Illustrator 21.1.0, SVG Export Plug-In . SVG Version: 6.00 Build 0)  -->
<svg version="1.1" id="Layer_1" xmlns="http://www.w3.org/2000/svg" xmlns:xlink="http://www.w3.org/1999/xlink" x="0px" y="0px"
	 viewBox="0 0 20 20" style="enable-background:new 0 0 20 20;" xml:space="preserve">
<style type="text/css">
	.st0{fill:none;stroke:#2F2F5C;stroke-width:0.5;stroke-linecap:round;stroke-linejoin:round;stroke-miterlimit:10;}
	.st1{fill:none;}
	.st2{fill:#2F2F5C;}
	.st3{fill:none;stroke:#2F2F5C;stroke-width:0.5;stroke-miterlimit:10;}
</style>
<path class="st0" d="M10,6c1.1,0,2-0.9,2-2s-0.9-2-2-2S8,2.9,8,4S8.9,6,10,6z M10,8c-1.1,0-2,0.9-2,2s0.9,2,2,2s2-0.9,2-2
	S11.1,8,10,8z M10,14c-1.1,0-2,0.9-2,2s0.9,2,2,2s2-0.9,2-2S11.1,14,10,14z"/>
</svg>
