<?xml version="1.0" encoding="utf-8"?>
<!-- Generator: Adobe Illustrator 21.1.0, SVG Export Plug-In . SVG Version: 6.00 Build 0)  -->
<svg version="1.1" id="Layer_1" xmlns="http://www.w3.org/2000/svg" xmlns:xlink="http://www.w3.org/1999/xlink" x="0px" y="0px"
	 viewBox="0 0 20 20" style="enable-background:new 0 0 20 20;" xml:space="preserve">
<style type="text/css">
	.st0{fill:none;stroke:#2F2F5C;stroke-width:0.5;stroke-linecap:round;stroke-linejoin:round;stroke-miterlimit:10;}
	.st1{fill:none;}
	.st2{fill:#2F2F5C;}
	.st3{fill:none;stroke:#2F2F5C;stroke-width:0.5;stroke-miterlimit:10;}
</style>
<g>
	<path class="st0" d="M1.1,9.7V5.1H0.4C0.2,5.1,0,5.3,0,5.5v3.9c0,0.2,0.2,0.4,0.4,0.4H1.1z"/>
	<path class="st0" d="M3.9,5.9V2.4C3.9,2.2,3.8,2,3.6,2H2.1C1.9,2,1.8,2.2,1.8,2.4v2.3v5.4v2.3c0,0.2,0.2,0.4,0.4,0.4h1.4
		c0.2,0,0.4-0.2,0.4-0.4V9V5.9z"/>
	<path class="st0" d="M10.7,3.9v2.3c0,0.1,0,0.1,0,0.2c0,0,0,0,0,0c0,0,0,0.1,0.1,0.1c0,0,0,0,0,0c0,0,0.1,0,0.1,0c0,0,0,0,0.1,0
		c0,0,0.1,0,0.1,0c0,0,0,0,0.1,0c0,0,0,0,0.1,0c0,0,0,0,0,0c0.1-0.1,0.2-0.2,0.2-0.4V5.9V3.9c0-0.2-0.2-0.4-0.4-0.4
		C10.9,3.5,10.7,3.7,10.7,3.9z"/>
	<path class="st0" d="M9.3,3.9v2.3c0,0.2,0.2,0.4,0.4,0.4c0.2,0,0.4-0.2,0.4-0.4V3.9c0-0.2-0.2-0.4-0.4-0.4C9.4,3.5,9.3,3.7,9.3,3.9
		z"/>
	<path class="st0" d="M7.9,3.9v2.3c0,0.2,0.2,0.4,0.4,0.4c0.2,0,0.4-0.2,0.4-0.4V3.9c0-0.2-0.2-0.4-0.4-0.4C8,3.5,7.9,3.7,7.9,3.9z"
		/>
	<path class="st0" d="M6.4,5.9L6.4,5.9v0.3c0,0.1,0.1,0.3,0.2,0.4c0,0,0,0,0,0c0,0,0,0,0.1,0c0,0,0,0,0.1,0c0,0,0.1,0,0.1,0
		c0,0,0,0,0.1,0c0,0,0.1,0,0.1,0c0,0,0,0,0,0c0,0,0-0.1,0.1-0.1c0,0,0,0,0,0c0,0,0-0.1,0-0.2V3.9c0-0.2-0.2-0.4-0.4-0.4
		c-0.2,0-0.4,0.2-0.4,0.4V5.9z"/>
	<path class="st0" d="M4.6,8.6h7L12.1,8V6.6c0,0,0-0.1,0-0.1c-0.1,0.3-0.3,0.6-0.5,0.8c0,0,0,0-0.1,0c0,0,0,0-0.1,0c0,0-0.1,0-0.1,0
		c0,0,0,0,0,0c0,0,0,0,0,0c0,0,0,0-0.1,0c0,0-0.1,0-0.1,0c0,0,0,0,0,0c0,0-0.1,0-0.1,0c0,0-0.1,0-0.1,0c0,0-0.1,0-0.1,0
		c0,0-0.1,0-0.1-0.1c0,0-0.1,0-0.1,0c0,0-0.1,0-0.1-0.1c0,0,0,0,0,0c0,0,0,0,0,0c0,0,0,0-0.1,0.1c0,0,0,0-0.1,0.1c0,0-0.1,0-0.1,0.1
		c0,0,0,0-0.1,0c0,0-0.1,0-0.1,0c0,0,0,0-0.1,0c-0.1,0-0.1,0-0.2,0c-0.1,0-0.1,0-0.2,0c0,0,0,0-0.1,0c0,0-0.1,0-0.1,0c0,0,0,0-0.1,0
		c0,0-0.1,0-0.1-0.1c0,0,0,0-0.1-0.1c0,0,0,0-0.1-0.1c0,0,0,0-0.1,0.1c0,0,0,0-0.1,0.1c0,0-0.1,0-0.1,0.1c0,0,0,0-0.1,0
		c0,0-0.1,0-0.1,0c0,0,0,0-0.1,0c-0.1,0-0.1,0-0.2,0c-0.1,0-0.1,0-0.2,0c0,0,0,0-0.1,0c0,0-0.1,0-0.1,0c0,0,0,0-0.1,0
		c0,0-0.1,0-0.1-0.1c0,0,0,0-0.1-0.1c0,0,0,0-0.1-0.1c0,0,0,0,0,0c0,0,0,0,0,0c0,0-0.1,0.1-0.1,0.1c0,0-0.1,0-0.1,0
		c0,0-0.1,0-0.1,0.1c0,0-0.1,0-0.1,0c0,0-0.1,0-0.1,0c0,0-0.1,0-0.1,0c0,0,0,0,0,0c0,0-0.1,0-0.1,0c0,0,0,0-0.1,0c0,0,0,0,0,0
		c0,0,0,0-0.1,0c0,0-0.1,0-0.1,0c0,0-0.1,0-0.1,0c0,0,0,0-0.1,0C5.9,7,5.7,6.7,5.7,6.2H4.6V8.6z"/>
	<path class="st0" d="M13.9,8.9V6c0,0,0-0.1,0-0.1l-0.1-0.4c-0.3-0.7-0.9-1.2-1.6-1.2v1.2c0.4,0.2,0.7,0.6,0.7,1.1V8
		c0,0.2-0.1,0.4-0.2,0.5l-0.5,0.5c-0.1,0.1-0.3,0.2-0.5,0.2H6.2L6.4,10l1,1.4c0.1,0.1,0.1,0.2,0.1,0.3l-0.6,7.1c0,0.1,0,0.1,0.1,0.2
		C6.9,19,7,19,7,19h4.8c0.1,0,0.1,0,0.1-0.1c0,0,0.1-0.1,0.1-0.2L11.5,12c0-0.3,0.1-0.6,0.3-0.9l2-1.8C13.9,9.2,13.9,9.1,13.9,8.9z"
		/>
	<rect x="14.6" y="6.2" class="st0" width="0.7" height="2.3"/>
	<path class="st0" d="M18.2,4.7V2.4c0-0.2-0.2-0.4-0.4-0.4h-1.4c-0.2,0-0.4,0.2-0.4,0.4v3.5V9v3.5c0,0.2,0.2,0.4,0.4,0.4h1.4
		c0.2,0,0.4-0.2,0.4-0.4v-2.3V4.7z"/>
	<path class="st0" d="M20,9.3V5.5c0-0.2-0.2-0.4-0.4-0.4h-0.7v4.6h0.7C19.8,9.7,20,9.6,20,9.3z"/>
</g>
</svg>
