<?xml version="1.0" encoding="utf-8"?>
<!-- Generator: Adobe Illustrator 21.1.0, SVG Export Plug-In . SVG Version: 6.00 Build 0)  -->
<svg version="1.1" id="Layer_1" xmlns="http://www.w3.org/2000/svg" xmlns:xlink="http://www.w3.org/1999/xlink" x="0px" y="0px"
	 viewBox="0 0 20 20" style="enable-background:new 0 0 20 20;" xml:space="preserve">
<style type="text/css">
	.st0{fill:none;stroke:#2F2F5C;stroke-width:0.5;stroke-linecap:round;stroke-linejoin:round;stroke-miterlimit:10;}
	.st1{fill:none;}
	.st2{fill:#2F2F5C;}
	.st3{fill:none;stroke:#2F2F5C;stroke-width:0.5;stroke-miterlimit:10;}
</style>
<g>
	<path id="Shape_6_" class="st0" d="M5.6,0.5c-1.5,0-2.8,1.3-2.8,2.8s1.2,2.8,2.8,2.8s2.8-1.2,2.8-2.8S7.1,0.5,5.6,0.5z"/>
	<path id="Shape_1_" class="st0" d="M14.4,9.4c-1.5,0-2.8,1.2-2.8,2.8s1.2,2.8,2.8,2.8s2.8-1.2,2.8-2.8S15.9,9.4,14.4,9.4z"/>
	<path id="Shape_2_" class="st0" d="M7.8,16.1H7.2v-3.9c0-0.3-0.2-0.6-0.6-0.6H4.5c-0.3,0-0.6,0.2-0.6,0.6v3.9H3.4
		c-0.5,0-0.7,0.6-0.4,0.9l2.2,2.3c0.2,0.2,0.6,0.2,0.8,0l2.2-2.3C8.5,16.7,8.3,16.1,7.8,16.1z"/>
	<path id="Shape_3_" class="st0" d="M17,2.9l-2.2-2.3c-0.2-0.2-0.6-0.2-0.8,0l-2.2,2.3c-0.3,0.3-0.1,0.9,0.4,0.9h0.6v3.9
		c0,0.3,0.2,0.6,0.6,0.6h2.2c0.3,0,0.6-0.2,0.6-0.6V3.9h0.6C17.1,3.9,17.3,3.3,17,2.9z"/>
	<path id="Shape_4_" class="st0" d="M17.1,15c-0.7,0.7-1.6,1.1-2.7,1.1s-2-0.4-2.7-1.1c-0.7,0.7-1.2,1.7-1.2,2.8v1.1
		c0,0.3,0.2,0.6,0.6,0.6h6.6c0.3,0,0.6-0.2,0.6-0.6v-1.1C18.3,16.7,17.8,15.7,17.1,15z"/>
	<path id="Shape_5_" class="st0" d="M8.3,6.1C7.6,6.8,6.6,7.2,5.6,7.2s-2-0.4-2.7-1.1C2.2,6.8,1.7,7.8,1.7,8.9V10
		c0,0.3,0.2,0.6,0.6,0.6h6.6c0.3,0,0.6-0.2,0.6-0.6V8.9C9.4,7.8,9,6.8,8.3,6.1z"/>
</g>
</svg>
