<?xml version="1.0" encoding="utf-8"?>
<!-- Generator: Adobe Illustrator 21.1.0, SVG Export Plug-In . SVG Version: 6.00 Build 0)  -->
<svg version="1.1" id="Layer_1" xmlns="http://www.w3.org/2000/svg" xmlns:xlink="http://www.w3.org/1999/xlink" x="0px" y="0px"
	 viewBox="0 0 20 20" style="enable-background:new 0 0 20 20;" xml:space="preserve">
<style type="text/css">
	.st0{fill:none;stroke:#2F2F5C;stroke-width:0.5;stroke-linecap:round;stroke-linejoin:round;stroke-miterlimit:10;}
	.st1{fill:none;}
	.st2{fill:#2F2F5C;}
	.st3{fill:none;stroke:#2F2F5C;stroke-width:0.5;stroke-miterlimit:10;}
</style>
<path class="st0" d="M13.8,7.4L6.3,0L5.2,1.2l2,2L2.9,7.5c-0.5,0.5-0.5,1.3,0,1.8l4.6,4.6C7.7,14,8,14.2,8.3,14.2
	c0.3,0,0.6-0.1,0.9-0.4l4.6-4.6C14.3,8.7,14.3,7.9,13.8,7.4z M4.3,8.3l4-4l4,4H4.3z M15.8,9.6c0,0-1.7,1.8-1.7,2.9
	c0,0.9,0.7,1.7,1.7,1.7s1.7-0.8,1.7-1.7C17.5,11.4,15.8,9.6,15.8,9.6z"/>
<path class="st0" d="M0,16.7h20V20H0V16.7z"/>
</svg>
