<?xml version="1.0" encoding="utf-8"?>
<!-- Generator: Adobe Illustrator 21.1.0, SVG Export Plug-In . SVG Version: 6.00 Build 0)  -->
<svg version="1.1" id="Layer_1" xmlns="http://www.w3.org/2000/svg" xmlns:xlink="http://www.w3.org/1999/xlink" x="0px" y="0px"
	 viewBox="0 0 20 20" style="enable-background:new 0 0 20 20;" xml:space="preserve">
<style type="text/css">
	.st0{fill:none;stroke:#2F2F5C;stroke-width:0.5;stroke-linecap:round;stroke-linejoin:round;stroke-miterlimit:10;}
	.st1{fill:none;}
	.st2{fill:#2F2F5C;}
	.st3{fill:none;stroke:#2F2F5C;stroke-width:0.5;stroke-miterlimit:10;}
</style>
<g>
	<path class="st0" d="M15.7,4.9c-0.6,0-1.2,0.1-1.7,0.4c-0.6-1.1-1.8-1.8-3.1-1.8c-1,0-1.9,0.4-2.5,1.1C7.6,3.6,6.5,3,5.2,3
		C3.1,3,1.3,4.7,1.3,6.9c0,0.5,0.1,1.1,0.3,1.5C0.7,9,0,10.1,0,11.3c0,1.9,1.5,3.4,3.3,3.4c0.2,0,0.5,0,0.7-0.1
		C4.5,16,5.9,17,7.4,17c1.5,0,2.8-0.9,3.3-2.2c0.4,0.2,0.9,0.3,1.4,0.3c1.2,0,2.2-0.7,2.8-1.6c0.3,0.1,0.6,0.1,0.8,0.1
		c2.4,0,4.3-1.9,4.3-4.3C20,6.8,18.1,4.9,15.7,4.9z"/>
	<path class="st2" d="M4.3,9.9c0,0.4-0.3,0.6-0.7,0.6c-0.2,0-0.4,0-0.6-0.1c0,0-0.1,0-0.1-0.1c0,0,0,0,0,0v0L3,10c0,0,0,0,0.1,0
		c0,0,0,0,0.1,0c0.2,0.2,0.5,0.2,0.5,0.2c0.2,0,0.3-0.1,0.3-0.2v0c0-0.1-0.2-0.2-0.4-0.3l0,0C3.2,9.6,2.9,9.5,2.9,9.2v0
		c0-0.3,0.3-0.6,0.6-0.6l0,0c0.2,0,0.4,0.1,0.6,0.2c0,0,0,0,0,0c0,0-0.1,0.2-0.1,0.2c0,0-0.1,0-0.1,0C4,9,3.7,8.9,3.6,8.9
		C3.4,8.9,3.3,9,3.3,9.1v0c0,0.1,0.2,0.2,0.4,0.3l0,0C4,9.5,4.3,9.6,4.3,9.9L4.3,9.9z"/>
	<path class="st2" d="M6.7,10.4C6.7,10.5,6.7,10.5,6.7,10.4l-0.3,0c0,0,0,0,0,0V8c0,0,0,0,0,0h0.3c0,0,0,0,0,0V10.4z"/>
	<path class="st2" d="M9,10.4c0,0-0.1,0-0.1-0.1c0,0,0,0,0,0v0L9,10c0,0,0,0,0.1,0c0,0,0,0,0.1,0c0.2,0.2,0.5,0.2,0.5,0.2
		c0.2,0,0.3-0.1,0.3-0.2v0c0-0.1-0.2-0.2-0.4-0.3l0,0C9.2,9.6,9,9.5,9,9.2v0c0-0.3,0.3-0.6,0.6-0.6l0,0c0.2,0,0.4,0.1,0.6,0.2
		c0,0,0,0,0,0c0,0-0.1,0.2-0.1,0.2c0,0-0.1,0-0.1,0C10,9,9.8,8.9,9.6,8.9C9.4,8.9,9.3,9,9.3,9.1v0c0,0.1,0.2,0.2,0.4,0.3l0,0
		c0.3,0.1,0.6,0.2,0.6,0.5v0c0,0.4-0.3,0.6-0.7,0.6C9.4,10.5,9.2,10.5,9,10.4z"/>
	<path class="st2" d="M11.7,8.7l0,0.2c0,0,0,0,0,0h-0.4L11,10.5c0,0.2-0.1,0.3-0.1,0.4c0,0.1-0.1,0.2-0.2,0.3
		c-0.1,0.1-0.1,0.1-0.2,0.1c-0.1,0-0.2,0-0.3,0c-0.1,0-0.1,0-0.2,0c0,0-0.1,0-0.1,0c0,0,0,0,0,0c0,0,0.1-0.2,0.1-0.2c0,0,0,0,0,0
		c0,0,0,0,0.1,0c0,0,0.1,0,0.1,0c0.1,0,0.1,0,0.1,0c0,0,0.1,0,0.1-0.1c0,0,0.1-0.1,0.1-0.2c0-0.1,0-0.2,0.1-0.3L10.9,9h-0.3
		c0,0,0,0,0,0l0-0.2c0,0,0,0,0,0h0.3l0-0.1c0-0.2,0.1-0.4,0.2-0.5c0.1-0.1,0.3-0.2,0.5-0.2c0.1,0,0.1,0,0.2,0c0,0,0.1,0,0.1,0l0,0
		c0,0,0,0,0,0l-0.1,0.2c0,0,0,0-0.1,0c0,0,0,0-0.1,0c0,0-0.1,0-0.1,0c0,0-0.1,0-0.1,0c0,0-0.1,0-0.1,0.1c0,0-0.1,0.1-0.1,0.1
		c0,0.1-0.1,0.3-0.1,0.3L11.7,8.7C11.7,8.7,11.7,8.7,11.7,8.7z"/>
	<path class="st2" d="M14.8,8.7L14.8,8.7c0,0-0.1,0.2-0.1,0.2c0,0,0,0,0,0c0,0-0.1,0-0.1,0c0,0-0.1,0-0.2,0c-0.1,0-0.1,0-0.1,0.1
		c0,0-0.1,0.1-0.1,0.2c0,0.1,0,0.2,0,0.3v0.9c0,0,0,0,0,0h-0.3c0,0,0,0,0,0V8.7c0,0,0,0,0,0H14c0,0,0,0,0,0v0.1
		c0-0.1,0.1-0.1,0.2-0.1c0.1,0,0.2-0.1,0.3,0C14.6,8.7,14.7,8.7,14.8,8.7C14.8,8.7,14.8,8.7,14.8,8.7z"/>
	<path class="st2" d="M16.2,10.4c-0.1,0.1-0.3,0.1-0.5,0.1c-0.3,0-0.5-0.1-0.7-0.3c-0.2-0.2-0.2-0.4-0.2-0.7c0-0.1,0-0.3,0.1-0.4
		c0-0.1,0.1-0.2,0.2-0.3c0.1-0.1,0.2-0.2,0.3-0.2c0.1,0,0.2-0.1,0.4-0.1c0.1,0,0.2,0,0.3,0c0.1,0,0.2,0,0.2,0.1c0,0,0,0,0,0
		c0,0.1-0.1,0.2-0.1,0.2c0,0,0,0,0,0C16,9,15.9,9,15.7,9c-0.2,0-0.3,0.1-0.4,0.2c-0.1,0.1-0.1,0.3-0.1,0.5c0,0.2,0.1,0.4,0.1,0.5
		c0.1,0.1,0.2,0.1,0.4,0.1c0.1,0,0.1,0,0.2,0c0.1,0,0.1,0,0.2,0c0,0,0,0,0,0v0L16.2,10.4C16.3,10.4,16.2,10.4,16.2,10.4z"/>
	<path class="st2" d="M17.9,9.1c0-0.1-0.1-0.2-0.1-0.3c-0.1-0.1-0.1-0.1-0.2-0.2c-0.1,0-0.2-0.1-0.3-0.1c-0.1,0-0.3,0-0.4,0.1
		c-0.1,0.1-0.2,0.1-0.3,0.2c-0.1,0.1-0.1,0.2-0.2,0.3c0,0.1-0.1,0.2-0.1,0.4c0,0.1,0,0.3,0.1,0.4c0,0.1,0.1,0.2,0.2,0.3
		c0.1,0.1,0.2,0.1,0.3,0.2c0.1,0,0.3,0.1,0.4,0.1c0.3,0,0.5-0.1,0.6-0.1c0,0,0,0,0-0.1l-0.1-0.2c0,0,0,0,0,0c-0.1,0-0.2,0.1-0.5,0.1
		c-0.2,0-0.3-0.1-0.4-0.1c-0.1-0.1-0.1-0.2-0.1-0.4l1.2,0c0,0,0,0,0,0C17.9,9.6,18,9.4,17.9,9.1z M16.8,9.4c0-0.1,0-0.2,0.1-0.3
		C16.9,9,17,8.9,17.2,8.9s0.3,0.1,0.3,0.2c0,0.1,0.1,0.2,0.1,0.3H16.8z"/>
	<path class="st2" d="M13.3,9.2c0-0.1-0.1-0.2-0.2-0.3c-0.1-0.1-0.2-0.2-0.3-0.2c-0.1,0-0.2-0.1-0.4-0.1c-0.1,0-0.3,0-0.4,0.1
		c-0.1,0-0.2,0.1-0.3,0.2c-0.1,0.1-0.1,0.2-0.2,0.3c0,0.1-0.1,0.2-0.1,0.4s0,0.3,0.1,0.4c0,0.1,0.1,0.2,0.2,0.3
		c0.1,0.1,0.2,0.2,0.3,0.2c0.1,0,0.2,0.1,0.4,0.1c0.1,0,0.3,0,0.4-0.1c0.1,0,0.2-0.1,0.3-0.2c0.1-0.1,0.1-0.2,0.2-0.3
		c0-0.1,0.1-0.2,0.1-0.4S13.4,9.3,13.3,9.2z M12.9,10c-0.1,0.1-0.2,0.2-0.3,0.2c-0.2,0-0.3-0.1-0.3-0.2c-0.1-0.1-0.1-0.3-0.1-0.5
		c0-0.2,0-0.4,0.1-0.5c0.1-0.1,0.2-0.2,0.3-0.2c0.2,0,0.3,0.1,0.3,0.2C13,9.2,13,9.4,13,9.6C13,9.8,13,9.9,12.9,10z"/>
	<path class="st2" d="M8.6,9.1c0-0.1-0.1-0.2-0.1-0.3C8.4,8.8,8.3,8.7,8.3,8.7C8.2,8.7,8,8.6,7.9,8.6c-0.1,0-0.3,0-0.4,0.1
		C7.4,8.8,7.3,8.8,7.3,8.9C7.2,9,7.2,9.1,7.1,9.2c0,0.1-0.1,0.2-0.1,0.4c0,0.1,0,0.3,0.1,0.4c0,0.1,0.1,0.2,0.2,0.3
		c0.1,0.1,0.2,0.1,0.3,0.2c0.1,0,0.3,0.1,0.4,0.1c0.3,0,0.5-0.1,0.6-0.1c0,0,0,0,0-0.1l-0.1-0.2c0,0,0,0,0,0c-0.1,0-0.2,0.1-0.5,0.1
		c-0.2,0-0.3-0.1-0.4-0.1C7.5,10,7.5,9.8,7.5,9.7l1.2,0c0,0,0,0,0,0C8.7,9.6,8.7,9.4,8.6,9.1z M7.5,9.4c0-0.1,0-0.2,0.1-0.3
		C7.6,9,7.7,8.9,7.9,8.9C8,8.9,8.2,9,8.2,9.1c0,0.1,0.1,0.2,0.1,0.3H7.5z"/>
	<path class="st2" d="M6,9.3c0-0.2-0.1-0.4-0.2-0.5C5.7,8.7,5.5,8.6,5.3,8.6c-0.1,0-0.2,0-0.3,0c0,0-0.3,0-0.4,0.1c0,0,0,0,0,0
		l0.1,0.2c0,0,0,0,0,0s0,0,0,0C5,8.9,5.2,8.9,5.2,8.9c0.1,0,0.2,0,0.3,0.1c0.1,0,0.1,0.1,0.1,0.3v0c-0.1,0-0.2,0-0.2,0
		c0,0-0.1,0-0.2,0c-0.1,0-0.2,0-0.3,0c-0.1,0-0.2,0.1-0.2,0.1c-0.1,0-0.1,0.1-0.2,0.2c0,0.1-0.1,0.2-0.1,0.3c0,0.1,0,0.2,0.1,0.3
		c0,0.1,0.1,0.1,0.2,0.2c0.1,0,0.1,0.1,0.2,0.1c0.1,0,0.2,0,0.3,0c0.1,0,0.2,0,0.4,0c0.1,0,0.3,0,0.3-0.1c0,0,0.1,0,0.1,0
		c0,0,0,0,0,0L6,9.3z M5.3,10.2c-0.2,0-0.3-0.1-0.3-0.1c0,0-0.1,0-0.1-0.1c0,0,0-0.1,0-0.2c0-0.1,0-0.2,0.1-0.2c0,0,0.1-0.1,0.3-0.1
		c0.2,0,0.3,0,0.3,0v0.5h0C5.6,10.2,5.5,10.2,5.3,10.2z"/>
</g>
</svg>
