<?xml version="1.0" encoding="utf-8"?>
<!-- Generator: Adobe Illustrator 21.1.0, SVG Export Plug-In . SVG Version: 6.00 Build 0)  -->
<svg version="1.1" id="Layer_1" xmlns="http://www.w3.org/2000/svg" xmlns:xlink="http://www.w3.org/1999/xlink" x="0px" y="0px"
	 viewBox="0 0 20 20" style="enable-background:new 0 0 20 20;" xml:space="preserve">
<style type="text/css">
	.st0{fill:none;stroke:#2F2F5C;stroke-width:0.5;stroke-linecap:round;stroke-linejoin:round;stroke-miterlimit:10;}
	.st1{fill:none;}
	.st2{fill:#2F2F5C;}
	.st3{fill:none;stroke:#2F2F5C;stroke-width:0.5;stroke-miterlimit:10;}
</style>
<g>
	<path class="st0" d="M11.1,8.8L11.1,8.8C11.1,8.8,11.1,8.8,11.1,8.8L11.1,8.8z"/>
	<path class="st0" d="M10,0C4.5,0,0,4.5,0,10s4.5,10,10,10c5.5,0,10-4.5,10-10S15.5,0,10,0z M7.4,14.9H5V7.7h2.4V14.9z M6.2,6.8
		L6.2,6.8c-0.8,0-1.3-0.6-1.3-1.2c0-0.7,0.5-1.2,1.4-1.2c0.8,0,1.3,0.5,1.3,1.2C7.5,6.2,7,6.8,6.2,6.8z M16,14.9h-2.4v-3.8
		c0-1-0.3-1.6-1.2-1.6c-0.7,0-1.1,0.4-1.2,0.9c-0.1,0.2-0.1,0.4-0.1,0.6v4H8.7c0,0,0-6.5,0-7.2h2.4v1c0.3-0.5,0.9-1.2,2.2-1.2
		c1.6,0,2.8,1,2.8,3.2V14.9z"/>
</g>
</svg>
