<?xml version="1.0" encoding="utf-8"?>
<!-- Generator: Adobe Illustrator 21.1.0, SVG Export Plug-In . SVG Version: 6.00 Build 0)  -->
<svg version="1.1" id="Layer_1" xmlns="http://www.w3.org/2000/svg" xmlns:xlink="http://www.w3.org/1999/xlink" x="0px" y="0px"
	 viewBox="0 0 20 20" style="enable-background:new 0 0 20 20;" xml:space="preserve">
<style type="text/css">
	.st0{fill:none;stroke:#2F2F5C;stroke-width:0.5;stroke-linecap:round;stroke-linejoin:round;stroke-miterlimit:10;}
	.st1{fill:none;}
	.st2{fill:#2F2F5C;}
	.st3{fill:none;stroke:#2F2F5C;stroke-width:0.5;stroke-miterlimit:10;}
</style>
<path class="st0" d="M10,16.4c-1,0-1.8,0.8-1.8,1.8S9,20,10,20s1.8-0.8,1.8-1.8S11,16.4,10,16.4z M4.5,0c-1,0-1.8,0.8-1.8,1.8
	s0.8,1.8,1.8,1.8s1.8-0.8,1.8-1.8S5.5,0,4.5,0z M4.5,5.5c-1,0-1.8,0.8-1.8,1.8s0.8,1.8,1.8,1.8s1.8-0.8,1.8-1.8S5.5,5.5,4.5,5.5z
	 M4.5,10.9c-1,0-1.8,0.8-1.8,1.8s0.8,1.8,1.8,1.8s1.8-0.8,1.8-1.8S5.5,10.9,4.5,10.9z M15.5,3.6c1,0,1.8-0.8,1.8-1.8S16.5,0,15.5,0
	s-1.8,0.8-1.8,1.8S14.5,3.6,15.5,3.6z M10,10.9c-1,0-1.8,0.8-1.8,1.8S9,14.5,10,14.5s1.8-0.8,1.8-1.8S11,10.9,10,10.9z M15.5,10.9
	c-1,0-1.8,0.8-1.8,1.8s0.8,1.8,1.8,1.8s1.8-0.8,1.8-1.8S16.5,10.9,15.5,10.9z M15.5,5.5c-1,0-1.8,0.8-1.8,1.8s0.8,1.8,1.8,1.8
	s1.8-0.8,1.8-1.8S16.5,5.5,15.5,5.5z M10,5.5c-1,0-1.8,0.8-1.8,1.8S9,9.1,10,9.1s1.8-0.8,1.8-1.8S11,5.5,10,5.5z M10,0
	C9,0,8.2,0.8,8.2,1.8S9,3.6,10,3.6s1.8-0.8,1.8-1.8S11,0,10,0z"/>
</svg>
