<?xml version="1.0" encoding="utf-8"?>
<!-- Generator: Adobe Illustrator 21.1.0, SVG Export Plug-In . SVG Version: 6.00 Build 0)  -->
<svg version="1.1" id="Layer_1" xmlns="http://www.w3.org/2000/svg" xmlns:xlink="http://www.w3.org/1999/xlink" x="0px" y="0px"
	 viewBox="0 0 20 20" style="enable-background:new 0 0 20 20;" xml:space="preserve">
<style type="text/css">
	.st0{fill:none;stroke:#2F2F5C;stroke-width:0.5;stroke-linecap:round;stroke-linejoin:round;stroke-miterlimit:10;}
	.st1{fill:none;}
	.st2{fill:#2F2F5C;}
	.st3{fill:none;stroke:#2F2F5C;stroke-width:0.5;stroke-miterlimit:10;}
</style>
<g>
	<polygon class="st3" points="3.8,3.4 8.5,8 14.3,2.1 13.5,1.3 8.5,6.3 4.7,2.6 7.7,2.6 7.7,1.6 2.8,1.6 2.8,6.6 3.8,6.6 	"/>
	<path class="st3" d="M13.7,12.3V9.3c0-0.5-0.8-0.7-0.8-0.7H3.5C3,8.6,2.7,9,2.7,9.5v8.4c0,0.5,0.4,0.8,0.8,0.8h9.4
		c0.4,0,0.8-0.4,0.8-0.8v-3.1l3.7,3.4V8.9L13.7,12.3z"/>
</g>
</svg>
