<?xml version="1.0" encoding="utf-8"?>
<!-- Generator: Adobe Illustrator 21.1.0, SVG Export Plug-In . SVG Version: 6.00 Build 0)  -->
<svg version="1.1" id="Layer_1" xmlns="http://www.w3.org/2000/svg" xmlns:xlink="http://www.w3.org/1999/xlink" x="0px" y="0px"
	 viewBox="0 0 20 20" style="enable-background:new 0 0 20 20;" xml:space="preserve">
<style type="text/css">
	.st0{fill:none;stroke:#2F2F5C;stroke-width:0.5;stroke-linecap:round;stroke-linejoin:round;stroke-miterlimit:10;}
	.st1{fill:none;}
	.st2{fill:#2F2F5C;}
	.st3{fill:none;stroke:#2F2F5C;stroke-width:0.5;stroke-miterlimit:10;}
</style>
<g>
	<polygon class="st0" points="16.9,7.4 10,12.2 9.9,12.1 9.9,12.1 3,7.3 3,16.9 3,17 3,17 16.9,17 16.9,17 17,17 	"/>
	<polygon class="st0" points="17.5,4 2.5,4 10,9.5 	"/>
</g>
<g>
	<polygon class="st0" points="17.5,4 17.5,4 17.5,4 	"/>
	<path class="st0" d="M19,5.9L19,5.9L19,5.9L19,5.9l0-0.4C19,4.7,18.3,4,17.5,4l0,0L10,9.5L2.5,4C1.7,4,1,4.7,1,5.5v10.1
		C1,16.3,1.7,17,2.5,17H3V7.3l7,4.9l7-4.8l0,0l0,9.7c1.5,0,2-0.4,2-1.5L19,5.9z"/>
</g>
</svg>
