<?xml version="1.0" encoding="utf-8"?>
<!-- Generator: Adobe Illustrator 21.1.0, SVG Export Plug-In . SVG Version: 6.00 Build 0)  -->
<svg version="1.1" id="Layer_1" xmlns="http://www.w3.org/2000/svg" xmlns:xlink="http://www.w3.org/1999/xlink" x="0px" y="0px"
	 viewBox="0 0 20 20" style="enable-background:new 0 0 20 20;" xml:space="preserve">
<style type="text/css">
	.st0{fill:none;stroke:#2F2F5C;stroke-width:0.5;stroke-linecap:round;stroke-linejoin:round;stroke-miterlimit:10;}
	.st1{fill:none;}
	.st2{fill:#2F2F5C;}
	.st3{fill:none;stroke:#2F2F5C;stroke-width:0.5;stroke-miterlimit:10;}
</style>
<path class="st0" d="M13.6,9.8c1.1-0.7,1.8-2,1.8-3.1c0-2.5-2-4.5-4.5-4.5H4v15.6h7.9c2.3,0,4.1-1.9,4.1-4.2
	C16,11.9,15,10.4,13.6,9.8z M7.3,5h3.3c0.9,0,1.7,0.7,1.7,1.7s-0.7,1.7-1.7,1.7H7.3V5z M11.3,15H7.3v-3.3h3.9c0.9,0,1.7,0.7,1.7,1.7
	C12.9,14.3,12.2,15,11.3,15z"/>
</svg>
