<?xml version="1.0" encoding="utf-8"?>
<!-- Generator: Adobe Illustrator 21.1.0, SVG Export Plug-In . SVG Version: 6.00 Build 0)  -->
<svg version="1.1" id="Layer_1" xmlns="http://www.w3.org/2000/svg" xmlns:xlink="http://www.w3.org/1999/xlink" x="0px" y="0px"
	 viewBox="0 0 20 20" style="enable-background:new 0 0 20 20;" xml:space="preserve">
<style type="text/css">
	.st0{fill:none;stroke:#000000;stroke-width:0.5;stroke-linecap:round;stroke-linejoin:round;stroke-miterlimit:10;}
	.st1{fill:none;stroke:#000000;stroke-miterlimit:10;}
	.st2{fill:none;stroke:#000000;stroke-width:0.5;stroke-miterlimit:10;}
</style>
<path class="st0" d="M17.8,0H2.2C1,0,0,1,0,2.2l0,15.6C0,19,1,20,2.2,20h15.6c1.2,0,2.2-1,2.2-2.2V2.2C20,1,19,0,17.8,0z M17.8,13.3
	h-4.4c0,1.8-1.5,3.3-3.3,3.3s-3.3-1.5-3.3-3.3H2.2V2.2h15.6V13.3z M14.4,7.8h-2.2V4.4H7.8v3.3H5.6l4.4,4.4L14.4,7.8z"/>
</svg>
