<?xml version="1.0" encoding="utf-8"?>
<!-- Generator: Adobe Illustrator 21.1.0, SVG Export Plug-In . SVG Version: 6.00 Build 0)  -->
<svg version="1.1" id="Layer_1" xmlns="http://www.w3.org/2000/svg" xmlns:xlink="http://www.w3.org/1999/xlink" x="0px" y="0px"
	 viewBox="0 0 20 20" style="enable-background:new 0 0 20 20;" xml:space="preserve">
<style type="text/css">
	.st0{fill:none;stroke:#000000;stroke-width:0.5;stroke-linecap:round;stroke-linejoin:round;stroke-miterlimit:10;}
	.st1{fill:none;stroke:#000000;stroke-miterlimit:10;}
	.st2{fill:none;stroke:#000000;stroke-width:0.5;stroke-miterlimit:10;}
</style>
<path class="st0" d="M13.6,9.5c1.5,0,2.7-1.2,2.7-2.7S15.1,4,13.6,4s-2.7,1.2-2.7,2.7S12.1,9.5,13.6,9.5z M6.4,9.5
	c1.5,0,2.7-1.2,2.7-2.7S7.9,4,6.4,4S3.6,5.2,3.6,6.7S4.9,9.5,6.4,9.5z M6.4,11.3c-2.1,0-6.4,1.1-6.4,3.2v2.3h12.7v-2.3
	C12.7,12.3,8.5,11.3,6.4,11.3z M13.6,11.3c-0.3,0-0.6,0-0.9,0c1.1,0.8,1.8,1.8,1.8,3.1v2.3H20v-2.3C20,12.3,15.8,11.3,13.6,11.3z"/>
</svg>
