<?xml version="1.0" encoding="utf-8"?>
<!-- Generator: Adobe Illustrator 21.1.0, SVG Export Plug-In . SVG Version: 6.00 Build 0)  -->
<svg version="1.1" id="Layer_1" xmlns="http://www.w3.org/2000/svg" xmlns:xlink="http://www.w3.org/1999/xlink" x="0px" y="0px"
	 viewBox="0 0 20 20" style="enable-background:new 0 0 20 20;" xml:space="preserve">
<style type="text/css">
	.st0{fill:none;stroke:#000000;stroke-width:0.5;stroke-linecap:round;stroke-linejoin:round;stroke-miterlimit:10;}
	.st1{fill:none;stroke:#000000;stroke-miterlimit:10;}
	.st2{fill:none;stroke:#000000;stroke-width:0.5;stroke-miterlimit:10;}
</style>
<g>
	<g>
		<path class="st0" d="M3.3,3.5c0-0.5-0.3-0.9-0.7-1.1V1.6c0-0.2-0.2-0.4-0.4-0.4S1.8,1.4,1.8,1.6v0.8C1.3,2.6,1,3,1,3.5
			s0.3,0.9,0.7,1.1v3.9C1.3,8.6,1,9,1,9.5s0.3,0.9,0.7,1.1v3.9C1.3,14.6,1,15,1,15.5s0.3,0.9,0.7,1.1v0.8c0,0.2,0.2,0.4,0.4,0.4
			c0.2,0,0.4-0.2,0.4-0.4v-0.8c0.4-0.2,0.7-0.6,0.7-1.1c0-0.5-0.3-0.9-0.7-1.1v-3.9c0.4-0.2,0.7-0.6,0.7-1.1S2.9,8.6,2.5,8.4V4.6
			C2.9,4.4,3.3,4,3.3,3.5z M18.3,2H7.4c0,0-0.5,0-0.7,0.1L5.2,3.2c-0.2,0.2-0.2,0.4,0,0.6l1.5,1.1C6.9,5,7.4,5,7.4,5h10.9
			C18.7,5,19,4.7,19,4.2V2.7C19,2.3,18.7,2,18.3,2z M18.3,8H7.4c0,0-0.5,0-0.7,0.1L5.2,9.2c-0.2,0.2-0.2,0.4,0,0.6l1.5,1.1
			C6.9,11,7.4,11,7.4,11h10.9c0.4,0,0.7-0.3,0.7-0.7V8.7C19,8.3,18.7,8,18.3,8z M18.3,14H7.4c0,0-0.5,0-0.7,0.1l-1.5,1.1
			c-0.2,0.2-0.2,0.4,0,0.6l1.5,1.1C6.9,17,7.4,17,7.4,17h10.9c0.4,0,0.7-0.3,0.7-0.7v-1.5C19,14.3,18.7,14,18.3,14z"/>
	</g>
</g>
</svg>
