<?xml version="1.0" encoding="utf-8"?>
<!-- Generator: Adobe Illustrator 21.1.0, SVG Export Plug-In . SVG Version: 6.00 Build 0)  -->
<svg version="1.1" id="Layer_1" xmlns="http://www.w3.org/2000/svg" xmlns:xlink="http://www.w3.org/1999/xlink" x="0px" y="0px"
	 viewBox="0 0 20 20" style="enable-background:new 0 0 20 20;" xml:space="preserve">
<style type="text/css">
	.st0{fill:none;stroke:#000000;stroke-width:0.5;stroke-linecap:round;stroke-linejoin:round;stroke-miterlimit:10;}
	.st1{fill:none;stroke:#000000;stroke-miterlimit:10;}
	.st2{fill:none;stroke:#000000;stroke-width:0.5;stroke-miterlimit:10;}
</style>
<path class="st0" d="M10,0C4.5,0,0,4.5,0,10s4.5,10,10,10s10-4.5,10-10S15.5,0,10,0z M14.1,13.7c0,0.2-0.2,0.4-0.4,0.4
	c-4.1,0-7.4-3.3-7.4-7.4c0-0.2,0.2-0.4,0.4-0.4h1.5c0.2,0,0.4,0.2,0.4,0.4c0,0.5,0.1,1.1,0.2,1.5c0,0.2,0,0.3-0.1,0.4l-1,1
	c0.6,1.2,1.6,2.2,2.9,2.9l1-1c0.1-0.1,0.3-0.2,0.4-0.1c0.5,0.2,1,0.2,1.5,0.2c0.2,0,0.4,0.2,0.4,0.4V13.7z"/>
</svg>
