<?xml version="1.0" encoding="utf-8"?>
<!-- Generator: Adobe Illustrator 21.1.0, SVG Export Plug-In . SVG Version: 6.00 Build 0)  -->
<svg version="1.1" id="Layer_1" xmlns="http://www.w3.org/2000/svg" xmlns:xlink="http://www.w3.org/1999/xlink" x="0px" y="0px"
	 viewBox="0 0 20 20" style="enable-background:new 0 0 20 20;" xml:space="preserve">
<style type="text/css">
	.st0{fill:none;stroke:#000000;stroke-width:0.5;stroke-linecap:round;stroke-linejoin:round;stroke-miterlimit:10;}
	.st1{fill:none;stroke:#000000;stroke-miterlimit:10;}
	.st2{fill:none;stroke:#000000;stroke-width:0.5;stroke-miterlimit:10;}
</style>
<path class="st0" d="M0.3,5L0.3,5c0-0.2,0.1-0.5,0.3-0.6C0.7,4.2,1,4.1,1.2,4.1h3.2c0.2,0,0.5,0.1,0.6,0.3C5.2,4.6,5.3,4.8,5.3,5
	c0,1,0.2,2,0.5,2.9c0.1,0.3,0,0.7-0.2,0.9l-2,2C4.2,12,5,13.2,6.1,14.2c1,1,2.2,1.9,3.4,2.5l2-2c0.3-0.3,0.6-0.3,0.9-0.2
	c0.9,0.3,1.9,0.5,2.9,0.5c0.2,0,0.5,0.1,0.6,0.3c0.2,0.2,0.3,0.4,0.3,0.6v3.2c0,0.2-0.1,0.5-0.3,0.6c-0.2,0.2-0.4,0.3-0.6,0.3
	c-3.8-0.1-7.6-1.6-10.5-4.5S0.4,8.8,0.3,5z M16.5,9.7H10V3.2h1.3v4.3L18.8,0l0.9,0.9l-7.5,7.5h4.3V9.7z"/>
</svg>
