<?xml version="1.0" encoding="utf-8"?>
<!-- Generator: Adobe Illustrator 21.1.0, SVG Export Plug-In . SVG Version: 6.00 Build 0)  -->
<svg version="1.1" id="Layer_1" xmlns="http://www.w3.org/2000/svg" xmlns:xlink="http://www.w3.org/1999/xlink" x="0px" y="0px"
	 viewBox="0 0 20 20" style="enable-background:new 0 0 20 20;" xml:space="preserve">
<style type="text/css">
	.st0{fill:none;stroke:#000000;stroke-width:0.5;stroke-linecap:round;stroke-linejoin:round;stroke-miterlimit:10;}
	.st1{fill:none;stroke:#000000;stroke-miterlimit:10;}
	.st2{fill:none;stroke:#000000;stroke-width:0.5;stroke-miterlimit:10;}
</style>
<path class="st0" d="M5.4,4.6L10,9.2l5.8-5.8L15,2.6l-5,5L6.2,3.8h2.9V2.6h-5v5h1.2V4.6z M19.8,13.9c-2.5-2.4-6-3.9-9.8-3.9
	s-7.2,1.5-9.8,3.9C0.1,14.1,0,14.3,0,14.5s0.1,0.4,0.2,0.6l2.1,2.1c0.1,0.1,0.4,0.2,0.6,0.2c0.2,0,0.4-0.1,0.6-0.2
	c0.7-0.6,1.4-1.1,2.2-1.5c0.3-0.1,0.5-0.4,0.5-0.7v-2.6c1.2-0.4,2.5-0.6,3.8-0.6s2.6,0.2,3.8,0.6v2.6c0,0.3,0.2,0.6,0.5,0.7
	c0.8,0.4,1.6,0.9,2.2,1.5c0.1,0.1,0.4,0.2,0.6,0.2c0.2,0,0.4-0.1,0.6-0.2l2.1-2.1c0.1-0.1,0.2-0.4,0.2-0.6
	C20,14.3,19.9,14.1,19.8,13.9z"/>
</svg>
