<?xml version="1.0" encoding="utf-8"?>
<!-- Generator: Adobe Illustrator 21.1.0, SVG Export Plug-In . SVG Version: 6.00 Build 0)  -->
<svg version="1.1" id="Layer_1" xmlns="http://www.w3.org/2000/svg" xmlns:xlink="http://www.w3.org/1999/xlink" x="0px" y="0px"
	 viewBox="0 0 20 20" style="enable-background:new 0 0 20 20;" xml:space="preserve">
<style type="text/css">
	.st0{fill:none;stroke:#000000;stroke-width:0.5;stroke-linecap:round;stroke-linejoin:round;stroke-miterlimit:10;}
	.st1{fill:none;stroke:#000000;stroke-miterlimit:10;}
	.st2{fill:none;stroke:#000000;stroke-width:0.5;stroke-miterlimit:10;}
</style>
<g>
	<path class="st0" d="M0.4,2.7v14.4l10.6,1.8v-3.5v-1.3v-3.7V9.6V5.7V4.4V0.8L0.4,2.7z M7.6,13.6l-4-0.4V5.7l3.9-0.4v1.5L5.1,7v1.8
		l2.2-0.1v1.5l-2.2,0V12l2.5,0.1V13.6z"/>
	<path class="st0" d="M18.5,4.4h-6.4v1.3h0.3c0.1,0,0.1,0,0.2,0.1l1,1c0.1,0.1,0.1,0.2,0,0.2l-0.3,0.3c-0.1,0.1-0.2,0.1-0.2,0
		l-0.4-0.4c0,0,0,0,0,0h-0.4v2.6c0.7,0.6,1.2,1,1,1.2c-0.1,0.1-0.5-0.1-1-0.4v2.6h0.2c1.2-0.9,2.2-2.5,2.4-2.2
		c0.3,0.3-2,3.4-2.2,3.4h-0.4v1.3h6.4c0.5,0,0.9-0.4,0.9-0.9V5.3C19.4,4.8,19,4.4,18.5,4.4z M18.1,12.9v0.9c0,0.1-0.1,0.2-0.2,0.2
		h-0.9h-0.4h-1.1c-0.1,0-0.1,0-0.2-0.1l-1-1c-0.1-0.1-0.1-0.2,0-0.2l0.3-0.3c0.1-0.1,0.2-0.1,0.2,0l0.4,0.4c0,0,0,0,0,0h1.5v-1.3
		c-0.9-1.2-2.5-2.2-2.2-2.4c0.3-0.3,3.4,2,3.4,2.2V12.9z M18.1,6.9v0.4v1.1c0,0.1,0,0.1-0.1,0.2l-1,1c-0.1,0.1-0.2,0.1-0.2,0
		l-0.3-0.3c-0.1-0.1-0.1-0.2,0-0.2l0.4-0.4c0,0,0,0,0,0V6.9h-1.3c-1.2,0.9-2.2,2.5-2.4,2.2c-0.3-0.3,2-3.4,2.2-3.4h1.5h0.9
		c0.1,0,0.2,0.1,0.2,0.2V6.9z"/>
</g>
</svg>
