<?xml version="1.0" encoding="utf-8"?>
<!-- Generator: Adobe Illustrator 21.1.0, SVG Export Plug-In . SVG Version: 6.00 Build 0)  -->
<svg version="1.1" id="Layer_1" xmlns="http://www.w3.org/2000/svg" xmlns:xlink="http://www.w3.org/1999/xlink" x="0px" y="0px"
	 viewBox="0 0 20 20" style="enable-background:new 0 0 20 20;" xml:space="preserve">
<style type="text/css">
	.st0{fill:none;stroke:#000000;stroke-width:0.5;stroke-linecap:round;stroke-linejoin:round;stroke-miterlimit:10;}
	.st1{fill:none;stroke:#000000;stroke-miterlimit:10;}
	.st2{fill:none;stroke:#000000;stroke-width:0.5;stroke-miterlimit:10;}
</style>
<path class="st0" d="M17,9.5h-1.7c0,0.7-0.2,1.4-0.4,2.1l1.2,1.2C16.7,11.8,17,10.7,17,9.5z M13,9.7c0-0.1,0-0.1,0-0.2v-6
	c0-1.7-1.3-3-3-3s-3,1.3-3,3v0.2L13,9.7z M2.3,1.5L1,2.8l6,6v0.7c0,1.7,1.3,3,3,3c0.2,0,0.4,0,0.6-0.1l1.7,1.7
	c-0.7,0.3-1.5,0.5-2.3,0.5c-2.8,0-5.3-2.1-5.3-5.1H3c0,3.4,2.7,6.2,6,6.7v3.3h2v-3.3c0.9-0.1,1.8-0.5,2.5-0.9l4.2,4.2l1.3-1.3
	L2.3,1.5z"/>
</svg>
