<?xml version="1.0" encoding="utf-8"?>
<!-- Generator: Adobe Illustrator 21.1.0, SVG Export Plug-In . SVG Version: 6.00 Build 0)  -->
<svg version="1.1" id="Layer_1" xmlns="http://www.w3.org/2000/svg" xmlns:xlink="http://www.w3.org/1999/xlink" x="0px" y="0px"
	 viewBox="0 0 20 20" style="enable-background:new 0 0 20 20;" xml:space="preserve">
<style type="text/css">
	.st0{fill:none;stroke:#000000;stroke-width:0.5;stroke-linecap:round;stroke-linejoin:round;stroke-miterlimit:10;}
	.st1{fill:none;stroke:#000000;stroke-miterlimit:10;}
	.st2{fill:none;stroke:#000000;stroke-width:0.5;stroke-miterlimit:10;}
</style>
<g>
	<path class="st0" d="M10,0C4.5,0,0,4.5,0,10c0,5.5,4.5,10,10,10s10-4.5,10-10C20,4.5,15.5,0,10,0z M5.6,6.1h8.8c0,0,0,0,0,0
		l-4.2,3.4c-0.1,0.1-0.4,0.1-0.5,0L5.6,6.1C5.6,6.1,5.6,6.1,5.6,6.1z M14.3,13.5l-8.7,0c-0.3,0-0.6-0.3-0.6-0.6V7.1C5,7,5,6.9,5,6.9
		l4.4,3.5c0.2,0.1,0.4,0.2,0.6,0.2c0.2,0,0.4-0.1,0.5-0.2c0,0,0,0,0,0l4.3-3.5c0,0.1,0,0.1,0,0.2c0,0,0,4.1,0,5.9
		C15,13.5,14.3,13.5,14.3,13.5z"/>
</g>
</svg>
