<?xml version="1.0" encoding="utf-8"?>
<!-- Generator: Adobe Illustrator 21.1.0, SVG Export Plug-In . SVG Version: 6.00 Build 0)  -->
<svg version="1.1" id="Layer_1" xmlns="http://www.w3.org/2000/svg" xmlns:xlink="http://www.w3.org/1999/xlink" x="0px" y="0px"
	 viewBox="0 0 20 20" style="enable-background:new 0 0 20 20;" xml:space="preserve">
<style type="text/css">
	.st0{fill:none;stroke:#000000;stroke-width:0.5;stroke-linecap:round;stroke-linejoin:round;stroke-miterlimit:10;}
	.st1{fill:none;stroke:#000000;stroke-miterlimit:10;}
	.st2{fill:none;stroke:#000000;stroke-width:0.5;stroke-miterlimit:10;}
</style>
<path class="st0" d="M4,8.7c1.6,3.1,4.2,5.7,7.3,7.3l2.4-2.4c0.3-0.3,0.7-0.4,1.1-0.3c1.2,0.4,2.6,0.6,4,0.6c0.6,0,1.1,0.5,1.1,1.1
	v3.9c0,0.6-0.5,1.1-1.1,1.1C8.5,20,0,11.5,0,1.1C0,0.5,0.5,0,1.1,0H5c0.6,0,1.1,0.5,1.1,1.1c0,1.4,0.2,2.7,0.6,4
	c0.1,0.4,0,0.8-0.3,1.1L4,8.7z"/>
</svg>
