<?xml version="1.0" encoding="utf-8"?>
<!-- Generator: Adobe Illustrator 21.1.0, SVG Export Plug-In . SVG Version: 6.00 Build 0)  -->
<svg version="1.1" id="Layer_1" xmlns="http://www.w3.org/2000/svg" xmlns:xlink="http://www.w3.org/1999/xlink" x="0px" y="0px"
	 viewBox="0 0 20 20" style="enable-background:new 0 0 20 20;" xml:space="preserve">
<style type="text/css">
	.st0{fill:none;stroke:#000000;stroke-width:0.5;stroke-linecap:round;stroke-linejoin:round;stroke-miterlimit:10;}
	.st1{fill:none;stroke:#000000;stroke-miterlimit:10;}
	.st2{fill:none;stroke:#000000;stroke-width:0.5;stroke-miterlimit:10;}
</style>
<path class="st0" d="M20,10l-2.1-1.8L19,5.5l-2.7-0.7L16.2,2l-2.7,0.5L12.2,0L10,1.7L7.8,0L6.5,2.5L3.8,2L3.7,4.8L1,5.5l1.1,2.6
	L0,10l2.1,1.8L1,14.5l2.7,0.7L3.8,18l2.7-0.5L7.8,20l2.2-1.7l2.2,1.7l1.3-2.5l2.7,0.5l0.1-2.8l2.7-0.7l-1.1-2.6L20,10z M10,16.7
	c-3.7,0-6.7-3-6.7-6.7s3-6.7,6.7-6.7s6.7,3,6.7,6.7S13.7,16.7,10,16.7z"/>
</svg>
