<?xml version="1.0" encoding="utf-8"?>
<!-- Generator: Adobe Illustrator 21.1.0, SVG Export Plug-In . SVG Version: 6.00 Build 0)  -->
<svg version="1.1" id="Layer_1" xmlns="http://www.w3.org/2000/svg" xmlns:xlink="http://www.w3.org/1999/xlink" x="0px" y="0px"
	 viewBox="0 0 20 20" style="enable-background:new 0 0 20 20;" xml:space="preserve">
<style type="text/css">
	.st0{fill:none;stroke:#000000;stroke-width:0.5;stroke-linecap:round;stroke-linejoin:round;stroke-miterlimit:10;}
	.st1{fill:none;stroke:#000000;stroke-miterlimit:10;}
	.st2{fill:none;stroke:#000000;stroke-width:0.5;stroke-miterlimit:10;}
</style>
<path class="st0" d="M10,0C4.5,0,0,4.5,0,10s4.5,10,10,10c5.5,0,10-4.5,10-10S15.5,0,10,0z M10,18c-4.4,0-8-3.6-8-8s3.6-8,8-8
	s8,3.6,8,8S14.4,18,10,18z M13.5,9C14.3,9,15,8.3,15,7.5S14.3,6,13.5,6S12,6.7,12,7.5S12.7,9,13.5,9z M6.5,9C7.3,9,8,8.3,8,7.5
	S7.3,6,6.5,6S5,6.7,5,7.5S5.7,9,6.5,9z M10,15.5c2.3,0,4.3-1.5,5.1-3.5H4.9C5.7,14,7.7,15.5,10,15.5z"/>
</svg>
