<?xml version="1.0" encoding="utf-8"?>
<!-- Generator: Adobe Illustrator 21.1.0, SVG Export Plug-In . SVG Version: 6.00 Build 0)  -->
<svg version="1.1" id="Layer_1" xmlns="http://www.w3.org/2000/svg" xmlns:xlink="http://www.w3.org/1999/xlink" x="0px" y="0px"
	 viewBox="0 0 20 20" style="enable-background:new 0 0 20 20;" xml:space="preserve">
<style type="text/css">
	.st0{fill:none;stroke:#000000;stroke-width:0.5;stroke-linecap:round;stroke-linejoin:round;stroke-miterlimit:10;}
	.st1{fill:none;stroke:#000000;stroke-miterlimit:10;}
	.st2{fill:none;stroke:#000000;stroke-width:0.5;stroke-miterlimit:10;}
</style>
<g id="PROFILE_4_">
	<g id="Profile_" transform="translate(-360.000000, -200.000000)">
		<g id="Redes-sociales" transform="translate(336.000000, 202.000000)">
			<path id="Combined-Shape_10_" class="st0" d="M44,7.5c0,0.1,0,0.2,0,0.2c0,5.4-4.4,9.7-9.8,9.7c-1.7,0-3.3-0.4-4.7-1.2L24,18
				l1.8-5.2c-0.9-1.5-1.4-3.2-1.4-5c0-0.1,0-0.3,0-0.4C24.6,2.1,28.9-2,34.2-2C39.5-2,43.9,2.2,44,7.5z M38.2,10
				c-0.2-0.1-1.4-0.7-1.6-0.8c-0.2-0.1-0.4-0.1-0.5,0.1c-0.2,0.2-0.6,0.8-0.7,1c-0.1,0.2-0.3,0.2-0.5,0.1c-0.2-0.1-1-0.4-1.8-1.2
				c-0.7-0.6-1.1-1.5-1.3-1.7c-0.1-0.2,0-0.4,0.1-0.5c0.1-0.1,0.2-0.3,0.3-0.4c0,0,0.1-0.1,0.1-0.1c0.1-0.1,0.1-0.2,0.1-0.3
				c0.1-0.2,0-0.3,0-0.4c-0.1-0.1-0.5-1.3-0.7-1.8c-0.2-0.5-0.4-0.4-0.5-0.4c-0.1,0-0.3,0-0.4,0c-0.2,0-0.4,0.1-0.6,0.3
				c-0.2,0.2-0.8,0.8-0.8,2.1c0,0.3,0,0.6,0.1,0.8c0.2,0.9,0.7,1.6,0.8,1.7c0.1,0.2,1.6,2.7,3.9,3.7c2.3,1,2.3,0.7,2.8,0.6
				c0.4,0,1.4-0.6,1.5-1.2c0.2-0.6,0.2-1.1,0.1-1.2C38.6,10.1,38.4,10.1,38.2,10z"/>
		</g>
	</g>
</g>
</svg>
