<?xml version="1.0" encoding="utf-8"?>
<!-- Generator: Adobe Illustrator 21.1.0, SVG Export Plug-In . SVG Version: 6.00 Build 0)  -->
<svg version="1.1" id="Layer_1" xmlns="http://www.w3.org/2000/svg" xmlns:xlink="http://www.w3.org/1999/xlink" x="0px" y="0px"
	 viewBox="0 0 20 20" style="enable-background:new 0 0 20 20;" xml:space="preserve">
<style type="text/css">
	.st0{fill:none;stroke:#000000;stroke-width:0.5;stroke-linecap:round;stroke-linejoin:round;stroke-miterlimit:10;}
	.st1{fill:none;stroke:#000000;stroke-miterlimit:10;}
	.st2{fill:none;stroke:#000000;stroke-width:0.5;stroke-miterlimit:10;}
</style>
<path class="st0" d="M7.2,9h-2v2h2V9z M11.2,9h-2v2h2V9z M15.2,9h-2v2h2V9z M17.2,2h-1V0h-2v2h-8V0h-2v2h-1c-1.1,0-2,0.9-2,2l0,14
	c0,1.1,0.9,2,2,2h14c1.1,0,2-0.9,2-2V4C19.2,2.9,18.3,2,17.2,2z M17.2,18h-14V7h14V18z"/>
</svg>
