<svg id="Layer_1" data-name="Layer 1" xmlns="http://www.w3.org/2000/svg" viewBox="0 0 20 20"><defs><style>.cls-1{fill:#2f2f5c;}</style></defs><title>icons_blue</title><path id="Shape" class="cls-1" d="M5.59.5A2.8,2.8,0,0,0,2.84,3.32a2.76,2.76,0,1,0,5.51,0A2.8,2.8,0,0,0,5.59.5Z"/><path id="Shape-2" data-name="Shape" class="cls-1" d="M14.41,9.44a2.78,2.78,0,1,0,2.76,2.78A2.77,2.77,0,0,0,14.41,9.44Z"/><path id="Shape-3" data-name="Shape" class="cls-1" d="M7.8,16.12H7.24V12.23a.55.55,0,0,0-.55-.56H4.49a.55.55,0,0,0-.55.56v3.89H3.39a.56.56,0,0,0-.39.95l2.2,2.26a.55.55,0,0,0,.78,0l2.2-2.26A.56.56,0,0,0,7.8,16.12Z"/><path id="Shape-4" data-name="Shape" class="cls-1" d="M17,2.93,14.8.67a.55.55,0,0,0-.78,0l-2.2,2.26a.56.56,0,0,0,.39.95h.55V7.77a.55.55,0,0,0,.55.56h2.2a.55.55,0,0,0,.55-.56V3.88h.55A.56.56,0,0,0,17,2.93Z"/><path id="Shape-5" data-name="Shape" class="cls-1" d="M17.1,15a3.81,3.81,0,0,1-5.38,0,3.9,3.9,0,0,0-1.17,2.78v1.15a.55.55,0,0,0,.55.56h6.61a.55.55,0,0,0,.55-.56V17.79A3.9,3.9,0,0,0,17.1,15Z"/><path id="Shape-6" data-name="Shape" class="cls-1" d="M8.28,6.11a3.81,3.81,0,0,1-5.38,0A3.9,3.9,0,0,0,1.73,8.89V10a.55.55,0,0,0,.55.56H8.9A.55.55,0,0,0,9.45,10V8.89A3.9,3.9,0,0,0,8.28,6.11Z"/></svg>