<svg id="Layer_1" data-name="Layer 1" xmlns="http://www.w3.org/2000/svg" viewBox="0 0 20 20"><defs><style>.cls-1{fill:#2f2f5c;}</style></defs><title>icons_blue</title><g id="PROFILE"><g id="Opciones-el-timeline-_Calls_" data-name="Opciones-el-timeline-(Calls)"><path id="Combined-Shape" class="cls-1" d="M.29,5h0a.89.89,0,0,1,.26-.64.9.9,0,0,1,.64-.27H4.35A.9.9,0,0,1,5,4.38.89.89,0,0,1,5.26,5,10.66,10.66,0,0,0,5.78,7.9a.91.91,0,0,1-.22.93l-2,2a13.49,13.49,0,0,0,2.48,3.4,13.22,13.22,0,0,0,3.41,2.47l2-2a.9.9,0,0,1,.93-.22,10.33,10.33,0,0,0,2.88.52.93.93,0,0,1,.63.27.9.9,0,0,1,.27.64v3.17a.92.92,0,0,1-.91.91A15.39,15.39,0,0,1,.29,5Zm13-5h6.46V6.46H18.42V2.2L10.94,9.69,10,8.78l7.49-7.49H13.26Z"/></g></g></svg>