<svg id="Layer_1" data-name="Layer 1" xmlns="http://www.w3.org/2000/svg" viewBox="0 0 20 20"><defs><style>.cls-1{fill:#2f2f5c;}</style></defs><title>icons_blue</title><path class="cls-1" d="M5.41,4.64,10,9.23l5.83-5.83L15,2.56l-5,5L6.25,3.81H9.16V2.56h-5v5H5.41Zm14.34,9.3a14.17,14.17,0,0,0-19.51,0,.84.84,0,0,0,0,1.18L2.31,17.2a.83.83,0,0,0,.59.24.85.85,0,0,0,.58-.23A9.51,9.51,0,0,1,5.7,15.66a.83.83,0,0,0,.47-.75V12.33A12.18,12.18,0,0,1,10,11.72a12.42,12.42,0,0,1,3.83.6v2.58a.84.84,0,0,0,.47.75,9.82,9.82,0,0,1,2.22,1.54.82.82,0,0,0,.58.23.83.83,0,0,0,.59-.24l2.07-2.07a.83.83,0,0,0,.24-.59A.82.82,0,0,0,19.75,13.95Z"/></svg>