<svg id="Layer_1" data-name="Layer 1" xmlns="http://www.w3.org/2000/svg" viewBox="0 0 20 20"><defs><style>.cls-1{fill:#2f2f5c;}.cls-2{fill:none;stroke:#2f2f5c;stroke-linecap:round;stroke-linejoin:round;stroke-width:0.5px;}</style></defs><title>icons_blue</title><path class="cls-1" d="M20,5.38h0V4.9a1.64,1.64,0,0,0-1.64-1.64h0L10,9.44,1.64,3.27A1.64,1.64,0,0,0,0,4.9V16.1a1.64,1.64,0,0,0,1.64,1.64h.58V7L10,12.34,17.72,7h0V17.73c1.72,0,2.23-.45,2.27-1.64Z"/><polygon class="cls-2" points="17.49 7.11 9.97 12.29 9.94 12.26 9.94 12.26 2.46 7.06 2.46 17.4 2.46 17.52 2.46 17.52 17.49 17.52 17.49 17.51 17.49 17.52 17.49 7.11"/><polygon class="cls-2" points="18.11 3.48 1.89 3.48 9.97 9.47 18.11 3.48"/></svg>