<svg id="Layer_1" data-name="Layer 1" xmlns="http://www.w3.org/2000/svg" viewBox="0 0 20 20"><defs><style>.cls-1{fill:#2f2f5c;}</style></defs><title>icons_blue</title><path class="cls-1" d="M7.9,8.94a.37.37,0,0,0-.33.17.68.68,0,0,0-.09.27H8.3a.58.58,0,0,0-.08-.27A.36.36,0,0,0,7.9,8.94Z"/><path class="cls-1" d="M12.56,8.95a.37.37,0,0,0-.33.16,1.05,1.05,0,0,0,0,.93.36.36,0,0,0,.33.16.37.37,0,0,0,.33-.16A.84.84,0,0,0,13,9.57h0a.84.84,0,0,0-.11-.46A.37.37,0,0,0,12.56,8.95Z"/><path class="cls-1" d="M5.62,9.64a2.38,2.38,0,0,0-.31,0A.52.52,0,0,0,5,9.7a.25.25,0,0,0-.1.22.28.28,0,0,0,0,.15.23.23,0,0,0,.07.07H5a.52.52,0,0,0,.34.07,2.36,2.36,0,0,0,.31,0h0Z"/><path class="cls-1" d="M15.69,4.9a4.26,4.26,0,0,0-1.74.37,3.54,3.54,0,0,0-3.09-1.83A3.5,3.5,0,0,0,8.32,4.53a3.88,3.88,0,0,0-6.65,3.9,3.38,3.38,0,0,0,1.67,6.29A3.3,3.3,0,0,0,4,14.65a3.6,3.6,0,0,0,6.68.16,3.15,3.15,0,0,0,4.13-1.3,4.28,4.28,0,0,0,.85.08,4.35,4.35,0,0,0,0-8.7Zm-11.41,5c0,.35-.25.57-.66.57a1.22,1.22,0,0,1-.6-.14l-.11-.07s0,0,0,0h0L3,10A0,0,0,0,1,3,10l.07,0a1,1,0,0,0,.53.15c.18,0,.29-.09.29-.22h0c0-.14-.17-.19-.37-.25h0c-.27-.08-.56-.19-.56-.53h0a.57.57,0,0,1,.64-.55h0a1.16,1.16,0,0,1,.59.16,0,0,0,0,1,0,0l-.08.22s-.05,0-.05,0a1.18,1.18,0,0,0-.52-.13c-.16,0-.26.08-.26.2h0c0,.13.18.19.38.26h0c.27.09.56.2.56.53ZM6,10.4l-.08,0-.29.06a2.09,2.09,0,0,1-.35,0,1.38,1.38,0,0,1-.31,0,.63.63,0,0,1-.24-.1.48.48,0,0,1-.15-.18.61.61,0,0,1-.05-.26.54.54,0,0,1,.23-.46A.74.74,0,0,1,5,9.36a1.1,1.1,0,0,1,.29,0h.18l.19,0v0c0-.15,0-.23-.1-.28a.47.47,0,0,0-.29-.07,1.18,1.18,0,0,0-.51.12h0a0,0,0,0,1,0,0l-.08-.22a0,0,0,0,1,0,0A1.12,1.12,0,0,1,5,8.66l.31,0a.79.79,0,0,1,.53.16A.65.65,0,0,1,6,9.3v1.06A0,0,0,0,1,6,10.4Zm.78,0a0,0,0,0,1,0,0H6.4a0,0,0,0,1,0,0V8a0,0,0,0,1,0,0h.31a0,0,0,0,1,0,0Zm1.92-.8a0,0,0,0,1,0,0H7.47a.47.47,0,0,0,.53.52,1.12,1.12,0,0,0,.48-.09,0,0,0,0,1,0,0l.08.21s0,0,0,.06a1.21,1.21,0,0,1-.58.12,1.17,1.17,0,0,1-.42-.07A.74.74,0,0,1,7.12,10a1.24,1.24,0,0,1-.05-.37,1.31,1.31,0,0,1,.05-.37.83.83,0,0,1,.16-.3.76.76,0,0,1,.27-.2.91.91,0,0,1,.38-.07.85.85,0,0,1,.33.07.68.68,0,0,1,.22.17.72.72,0,0,1,.15.27h0A1.24,1.24,0,0,1,8.66,9.64Zm.37.74-.11-.07s0,0,0,0h0L9,10A0,0,0,0,1,9,10l.07,0a1,1,0,0,0,.53.15c.18,0,.29-.09.29-.22h0c0-.14-.17-.19-.37-.25h0C9.24,9.64,9,9.53,9,9.19H9a.57.57,0,0,1,.64-.55h0a1.16,1.16,0,0,1,.59.16,0,0,0,0,1,0,0l-.08.22s-.05,0-.05,0a1.18,1.18,0,0,0-.52-.13c-.16,0-.26.08-.26.2h0c0,.13.18.19.38.26h0c.27.09.56.2.56.53h0c0,.35-.25.57-.66.57A1.22,1.22,0,0,1,9,10.37Zm2.67-1.67,0,.24a0,0,0,0,1,0,0h-.38L11,10.46a2.2,2.2,0,0,1-.1.39.77.77,0,0,1-.15.26.54.54,0,0,1-.21.15.85.85,0,0,1-.28,0l-.17,0-.11,0a0,0,0,0,1,0,0L10,11a0,0,0,0,1,0,0l.06,0h.09l.14,0a.22.22,0,0,0,.11-.08.58.58,0,0,0,.08-.16,1.8,1.8,0,0,0,.07-.29L10.86,9H10.6s0,0,0,0l0-.24a0,0,0,0,1,0,0h.26V8.59a1,1,0,0,1,.23-.53.66.66,0,0,1,.49-.18h.16l.11,0h0a0,0,0,0,1,0,0l-.09.24s0,0-.05,0h-.15l-.12,0a.24.24,0,0,0-.1.06.34.34,0,0,0-.08.12,1.61,1.61,0,0,0-.06.26h.37S11.69,8.68,11.69,8.71Zm1.65,1.23a.82.82,0,0,1-.16.3.74.74,0,0,1-.26.2,1,1,0,0,1-.73,0,.73.73,0,0,1-.26-.2.83.83,0,0,1-.16-.3,1.38,1.38,0,0,1,0-.74.84.84,0,0,1,.16-.3.76.76,0,0,1,.26-.2,1,1,0,0,1,.73,0,.75.75,0,0,1,.26.2.82.82,0,0,1,.16.3,1.37,1.37,0,0,1,0,.74Zm1.43-1.21h0L14.69,9s0,0,0,0l-.13,0-.16,0a.36.36,0,0,0-.14.09.44.44,0,0,0-.1.17,1,1,0,0,0,0,.3v.86a0,0,0,0,1,0,0h-.3a0,0,0,0,1,0,0V8.71a0,0,0,0,1,0,0H14a0,0,0,0,1,0,0v.14a.53.53,0,0,1,.2-.14.58.58,0,0,1,.3,0l.19,0A0,0,0,0,1,14.78,8.73Zm1.45,1.69a1.39,1.39,0,0,1-.48.09.87.87,0,0,1-.68-.25,1,1,0,0,1-.23-.68,1.18,1.18,0,0,1,.06-.37.85.85,0,0,1,.17-.3.79.79,0,0,1,.28-.2.93.93,0,0,1,.38-.07l.26,0,.23.06a0,0,0,0,1,0,0L16.14,9s0,0,0,0A1.14,1.14,0,0,0,15.74,9a.45.45,0,0,0-.38.17.73.73,0,0,0-.13.45.65.65,0,0,0,.15.47.52.52,0,0,0,.39.15H16l.16,0a0,0,0,0,1,0,0h0l.08.23A0,0,0,0,1,16.23,10.42Zm1.72-.78a0,0,0,0,1,0,0H16.75a.47.47,0,0,0,.53.52,1.12,1.12,0,0,0,.48-.09,0,0,0,0,1,0,0l.08.21s0,0,0,.06a1.21,1.21,0,0,1-.58.12,1.17,1.17,0,0,1-.42-.07A.74.74,0,0,1,16.4,10a1.24,1.24,0,0,1-.05-.37,1.3,1.3,0,0,1,.05-.37.83.83,0,0,1,.16-.3.76.76,0,0,1,.27-.2.9.9,0,0,1,.38-.07.85.85,0,0,1,.33.07.68.68,0,0,1,.22.17.72.72,0,0,1,.15.27A1.24,1.24,0,0,1,17.94,9.64Z"/><path class="cls-1" d="M17.18,8.94a.37.37,0,0,0-.33.17.67.67,0,0,0-.09.27h.83a.57.57,0,0,0-.08-.27A.36.36,0,0,0,17.18,8.94Z"/></svg>