<svg id="Layer_1" data-name="Layer 1" xmlns="http://www.w3.org/2000/svg" viewBox="0 0 20 20"><defs><style>.cls-1{fill:#2f2f5c;}</style></defs><title>icons_blue</title><path class="cls-1" d="M17.43,11a7.79,7.79,0,0,0,.07-1,7.79,7.79,0,0,0-.07-1l2.11-1.65a.5.5,0,0,0,.12-.64l-2-3.46a.5.5,0,0,0-.61-.22l-2.49,1a7.31,7.31,0,0,0-1.69-1L12.49.42A.49.49,0,0,0,12,0H8a.49.49,0,0,0-.49.42L7.13,3.07a7.68,7.68,0,0,0-1.69,1l-2.49-1a.49.49,0,0,0-.61.22l-2,3.46a.49.49,0,0,0,.12.64L2.57,9a7.93,7.93,0,0,0-.07,1,7.93,7.93,0,0,0,.07,1L.46,12.63a.5.5,0,0,0-.12.64l2,3.46a.5.5,0,0,0,.61.22l2.49-1a7.31,7.31,0,0,0,1.69,1l.38,2.65A.49.49,0,0,0,8,20h4a.49.49,0,0,0,.49-.42l.38-2.65a7.68,7.68,0,0,0,1.69-1l2.49,1a.49.49,0,0,0,.61-.22l2-3.46a.5.5,0,0,0-.12-.64ZM10,13.5A3.5,3.5,0,1,1,13.5,10,3.5,3.5,0,0,1,10,13.5Z"/></svg>