<?xml version="1.0" encoding="utf-8"?>
<!-- Generator: Adobe Illustrator 21.1.0, SVG Export Plug-In . SVG Version: 6.00 Build 0)  -->
<svg version="1.1" id="Layer_1" xmlns="http://www.w3.org/2000/svg" xmlns:xlink="http://www.w3.org/1999/xlink" x="0px" y="0px"
	 viewBox="0 0 20 20" style="enable-background:new 0 0 20 20;" xml:space="preserve">
<style type="text/css">
	.st0{fill:url(#SVGID_1_);}
	.st1{fill:url(#SVGID_2_);}
	.st2{fill:#2F2F5C;}
	.st3{fill:url(#SVGID_3_);}
	.st4{fill:url(#SVGID_4_);}
	.st5{fill:none;}
	.st6{fill:url(#SVGID_5_);}
	.st7{fill:url(#SVGID_6_);}
	.st8{fill:url(#SVGID_7_);}
	.st9{fill:url(#SVGID_8_);}
	.st10{fill:url(#SVGID_9_);}
	.st11{fill:url(#SVGID_10_);}
	.st12{fill:url(#SVGID_11_);}
	.st13{fill:url(#SVGID_12_);}
	.st14{fill:url(#SVGID_13_);}
	.st15{fill:url(#SVGID_14_);}
	.st16{fill:url(#SVGID_15_);}
	.st17{fill:url(#SVGID_16_);}
	.st18{fill:url(#Combined-Shape_2_);}
	.st19{fill:url(#SVGID_17_);}
	.st20{fill:url(#SVGID_18_);}
	.st21{fill:url(#SVGID_19_);}
	.st22{fill:url(#SVGID_20_);}
	.st23{fill:url(#SVGID_21_);}
	.st24{fill:url(#SVGID_22_);}
	.st25{fill:url(#SVGID_23_);}
	.st26{fill:url(#SVGID_24_);}
	.st27{fill:url(#SVGID_25_);}
	.st28{fill:url(#SVGID_26_);}
	.st29{fill:url(#SVGID_27_);}
	.st30{fill:url(#SVGID_28_);}
	.st31{fill:url(#SVGID_29_);}
	.st32{fill:url(#SVGID_30_);fill-opacity:0.36;}
	.st33{fill:url(#SVGID_31_);fill-opacity:0.36;}
	.st34{fill:url(#SVGID_32_);}
	.st35{fill:url(#SVGID_33_);}
	.st36{fill:url(#SVGID_34_);}
	.st37{fill:url(#SVGID_35_);}
	.st38{fill:url(#SVGID_36_);}
	.st39{fill:url(#SVGID_37_);}
	.st40{fill:url(#SVGID_38_);}
	.st41{fill:url(#SVGID_39_);}
	.st42{fill:url(#SVGID_40_);}
	.st43{fill:url(#SVGID_41_);}
	.st44{fill:url(#SVGID_42_);}
	.st45{fill:url(#SVGID_43_);}
	.st46{fill:url(#SVGID_44_);}
	.st47{fill:url(#SVGID_45_);}
	.st48{fill:url(#SVGID_46_);}
	.st49{fill:url(#SVGID_47_);}
	.st50{fill:url(#SVGID_48_);}
	.st51{fill:url(#SVGID_49_);}
	.st52{fill:url(#SVGID_50_);}
	.st53{fill:url(#SVGID_51_);}
	.st54{fill:url(#SVGID_52_);}
	.st55{fill:url(#SVGID_53_);}
	.st56{fill:url(#SVGID_54_);}
	.st57{fill:url(#SVGID_55_);}
	.st58{fill:url(#SVGID_56_);}
	.st59{fill:url(#SVGID_57_);}
	.st60{fill:url(#SVGID_58_);}
	.st61{fill:url(#SVGID_59_);}
	.st62{fill:url(#SVGID_60_);}
	.st63{fill:url(#SVGID_61_);}
	.st64{fill:url(#SVGID_62_);}
	.st65{fill:url(#SVGID_63_);}
	.st66{fill:url(#SVGID_64_);}
	.st67{fill:url(#SVGID_65_);}
	.st68{fill:url(#SVGID_66_);}
	.st69{fill:url(#SVGID_67_);}
	.st70{fill:url(#SVGID_68_);}
	.st71{fill:url(#SVGID_69_);}
	.st72{fill:url(#SVGID_70_);}
	.st73{fill:url(#SVGID_71_);}
	.st74{fill:url(#path2993-path_1_);}
	.st75{fill:url(#path2991-path_1_);}
	.st76{fill:url(#SVGID_72_);}
	.st77{fill:url(#SVGID_73_);}
	.st78{fill:url(#SVGID_74_);}
	.st79{fill:url(#SVGID_75_);}
	.st80{fill:url(#SVGID_76_);}
	.st81{fill:url(#SVGID_77_);}
	.st82{fill:url(#SVGID_78_);}
	.st83{fill:url(#SVGID_79_);}
	.st84{fill:url(#SVGID_80_);}
	.st85{fill:url(#SVGID_81_);}
	.st86{fill:url(#SVGID_82_);}
	.st87{fill:url(#SVGID_83_);}
	.st88{fill:url(#SVGID_84_);}
	.st89{fill:url(#SVGID_85_);}
	.st90{fill:url(#SVGID_86_);}
	.st91{fill:url(#SVGID_87_);}
	.st92{fill:url(#SVGID_88_);}
	.st93{fill:url(#SVGID_89_);}
	.st94{fill:url(#SVGID_90_);}
	.st95{fill:url(#SVGID_91_);}
	.st96{fill:url(#SVGID_92_);}
	.st97{fill:url(#SVGID_93_);}
	.st98{fill:url(#SVGID_94_);}
	.st99{fill:url(#SVGID_95_);}
	.st100{fill:url(#SVGID_96_);}
	.st101{fill:url(#SVGID_97_);}
	.st102{fill:url(#Fill-3_1_);}
	.st103{fill:url(#Fill-1_1_);}
	.st104{fill:url(#Combined-Shape_3_);}
	.st105{fill:url(#SVGID_98_);}
	.st106{fill:url(#SVGID_99_);}
	.st107{fill:url(#SVGID_100_);}
	.st108{fill:url(#SVGID_101_);}
	.st109{fill:url(#SVGID_102_);}
	.st110{fill:url(#SVGID_103_);}
	.st111{fill:url(#SVGID_104_);}
	.st112{fill:url(#Todas-las-cuentas_1_);}
	.st113{fill:url(#Shape_7_);}
	.st114{fill:url(#SVGID_105_);}
	.st115{fill:url(#Shape_8_);}
	.st116{fill:url(#Shape_9_);}
	.st117{fill:url(#Shape_10_);}
	.st118{fill:url(#Shape_11_);}
	.st119{fill:url(#Shape_12_);}
	.st120{fill:url(#Shape_13_);}
	.st121{fill:url(#SVGID_106_);}
	.st122{fill:url(#SVGID_107_);}
	.st123{fill:url(#SVGID_108_);}
	.st124{fill:url(#SVGID_109_);}
	.st125{fill:url(#SVGID_110_);}
	.st126{fill:url(#SVGID_111_);}
	.st127{fill:url(#SVGID_112_);}
	.st128{fill:url(#SVGID_113_);}
	.st129{fill:url(#Combined-Shape_5_);}
	.st130{fill:url(#Combined-Shape_8_);}
	.st131{fill:url(#SVGID_114_);}
	.st132{fill:url(#SVGID_115_);}
</style>
<g>
	<linearGradient id="SVGID_1_" gradientUnits="userSpaceOnUse" x1="7.7584" y1="9.5467" x2="8.0852" y2="8.9805">
		<stop  offset="0" style="stop-color:#B53C77"/>
		<stop  offset="1" style="stop-color:#5D5D95"/>
	</linearGradient>
	<path class="st0" d="M7.9,8.9C7.7,8.9,7.6,9,7.6,9.1c0,0.1-0.1,0.2-0.1,0.3h0.8c0-0.1,0-0.2-0.1-0.3C8.2,9,8,8.9,7.9,8.9z"/>
	<linearGradient id="SVGID_2_" gradientUnits="userSpaceOnUse" x1="12.2564" y1="10.0993" x2="12.8635" y2="9.0478">
		<stop  offset="0" style="stop-color:#B53C77"/>
		<stop  offset="1" style="stop-color:#5D5D95"/>
	</linearGradient>
	<path class="st1" d="M12.6,8.9c-0.2,0-0.3,0.1-0.3,0.2c-0.1,0.1-0.1,0.3-0.1,0.5c0,0.2,0,0.4,0.1,0.5c0.1,0.1,0.2,0.2,0.3,0.2
		c0.2,0,0.3-0.1,0.3-0.2C13,9.9,13,9.8,13,9.6h0c0-0.2,0-0.4-0.1-0.5C12.8,9,12.7,8.9,12.6,8.9z"/>
	<linearGradient id="SVGID_3_" gradientUnits="userSpaceOnUse" x1="5.112" y1="10.2258" x2="5.4926" y2="9.5666">
		<stop  offset="0" style="stop-color:#B53C77"/>
		<stop  offset="1" style="stop-color:#5D5D95"/>
	</linearGradient>
	<path class="st3" d="M5.6,9.6c0,0-0.1,0-0.3,0C5.1,9.6,5,9.7,5,9.7c-0.1,0-0.1,0.1-0.1,0.2c0,0.1,0,0.1,0,0.2c0,0,0,0,0.1,0.1v0
		c0,0,0.1,0.1,0.3,0.1c0.2,0,0.3,0,0.3,0h0V9.6z"/>
	<linearGradient id="SVGID_4_" gradientUnits="userSpaceOnUse" x1="5.7669" y1="16.6318" x2="13.6157" y2="3.0374">
		<stop  offset="0" style="stop-color:#B53C77"/>
		<stop  offset="1" style="stop-color:#5D5D95"/>
	</linearGradient>
	<path class="st4" d="M15.7,4.9c-0.6,0-1.2,0.1-1.7,0.4c-0.6-1.1-1.8-1.8-3.1-1.8c-1,0-1.9,0.4-2.5,1.1C7.6,3.6,6.5,3,5.2,3
		C3.1,3,1.3,4.7,1.3,6.9c0,0.5,0.1,1.1,0.3,1.5C0.7,9,0,10.1,0,11.3c0,1.9,1.5,3.4,3.3,3.4c0.2,0,0.5,0,0.7-0.1
		C4.5,16,5.9,17,7.4,17c1.5,0,2.8-0.9,3.3-2.2c0.4,0.2,0.9,0.3,1.4,0.3c1.2,0,2.2-0.7,2.8-1.6c0.3,0.1,0.6,0.1,0.8,0.1
		c2.4,0,4.3-1.9,4.3-4.3C20,6.8,18.1,4.9,15.7,4.9z M4.3,9.9c0,0.4-0.3,0.6-0.7,0.6c-0.2,0-0.4,0-0.6-0.1c0,0-0.1,0-0.1-0.1
		c0,0,0,0,0,0v0L3,10c0,0,0,0,0.1,0c0,0,0,0,0.1,0c0.2,0.2,0.5,0.2,0.5,0.2c0.2,0,0.3-0.1,0.3-0.2v0c0-0.1-0.2-0.2-0.4-0.3l0,0
		C3.2,9.6,2.9,9.5,2.9,9.2v0c0-0.3,0.3-0.6,0.6-0.6l0,0c0.2,0,0.4,0.1,0.6,0.2c0,0,0,0,0,0c0,0-0.1,0.2-0.1,0.2c0,0-0.1,0-0.1,0
		C4,9,3.7,8.9,3.6,8.9C3.4,8.9,3.3,9,3.3,9.1v0c0,0.1,0.2,0.2,0.4,0.3l0,0C4,9.5,4.3,9.6,4.3,9.9L4.3,9.9z M6,10.4
		C5.9,10.4,5.9,10.4,6,10.4c-0.1,0-0.3,0.1-0.4,0.1c-0.1,0-0.2,0-0.4,0c-0.1,0-0.2,0-0.3,0c-0.1,0-0.2-0.1-0.2-0.1
		c-0.1,0-0.1-0.1-0.2-0.2c0-0.1-0.1-0.2-0.1-0.3c0-0.1,0-0.2,0.1-0.3c0-0.1,0.1-0.1,0.2-0.2C4.8,9.4,4.9,9.4,5,9.4
		c0.1,0,0.2,0,0.3,0c0.1,0,0.1,0,0.2,0v0c0,0,0.1,0,0.2,0v0c0-0.2,0-0.2-0.1-0.3C5.5,9,5.4,8.9,5.2,8.9c0,0-0.3,0-0.5,0.1
		c0,0,0,0,0,0s0,0,0,0L4.6,8.8c0,0,0,0,0,0C4.7,8.7,5,8.7,5,8.7c0.1,0,0.2,0,0.3,0c0.2,0,0.4,0.1,0.5,0.2C5.9,8.9,6,9.1,6,9.3
		L6,10.4C6,10.4,6,10.4,6,10.4z M6.7,10.4C6.7,10.5,6.7,10.5,6.7,10.4l-0.3,0c0,0,0,0,0,0V8c0,0,0,0,0,0h0.3c0,0,0,0,0,0V10.4z
		 M8.7,9.6C8.7,9.7,8.6,9.7,8.7,9.6l-1.2,0c0,0.2,0,0.3,0.1,0.4c0.1,0.1,0.2,0.1,0.4,0.1c0.3,0,0.4-0.1,0.5-0.1c0,0,0,0,0,0l0.1,0.2
		c0,0,0,0,0,0.1c-0.1,0-0.2,0.1-0.6,0.1c-0.2,0-0.3,0-0.4-0.1c-0.1,0-0.2-0.1-0.3-0.2c-0.1-0.1-0.1-0.2-0.2-0.3
		c0-0.1-0.1-0.2-0.1-0.4c0-0.1,0-0.3,0.1-0.4c0-0.1,0.1-0.2,0.2-0.3c0.1-0.1,0.2-0.2,0.3-0.2c0.1-0.1,0.2-0.1,0.4-0.1
		c0.1,0,0.2,0,0.3,0.1c0.1,0,0.1,0.1,0.2,0.2c0,0.1,0.1,0.2,0.1,0.3h0C8.7,9.4,8.7,9.6,8.7,9.6z M9,10.4c0,0-0.1,0-0.1-0.1
		c0,0,0,0,0,0v0L9,10c0,0,0,0,0.1,0c0,0,0,0,0.1,0c0.2,0.2,0.5,0.2,0.5,0.2c0.2,0,0.3-0.1,0.3-0.2v0c0-0.1-0.2-0.2-0.4-0.3l0,0
		C9.2,9.6,9,9.5,9,9.2v0c0-0.3,0.3-0.6,0.6-0.6l0,0c0.2,0,0.4,0.1,0.6,0.2c0,0,0,0,0,0c0,0-0.1,0.2-0.1,0.2c0,0-0.1,0-0.1,0
		C10,9,9.8,8.9,9.6,8.9C9.4,8.9,9.3,9,9.3,9.1v0c0,0.1,0.2,0.2,0.4,0.3l0,0c0.3,0.1,0.6,0.2,0.6,0.5v0c0,0.4-0.3,0.6-0.7,0.6
		C9.4,10.5,9.2,10.5,9,10.4z M11.7,8.7l0,0.2c0,0,0,0,0,0h-0.4L11,10.5c0,0.2-0.1,0.3-0.1,0.4c0,0.1-0.1,0.2-0.2,0.3
		c-0.1,0.1-0.1,0.1-0.2,0.1c-0.1,0-0.2,0-0.3,0c-0.1,0-0.1,0-0.2,0c0,0-0.1,0-0.1,0c0,0,0,0,0,0c0,0,0.1-0.2,0.1-0.2c0,0,0,0,0,0
		c0,0,0,0,0.1,0c0,0,0.1,0,0.1,0c0.1,0,0.1,0,0.1,0c0,0,0.1,0,0.1-0.1c0,0,0.1-0.1,0.1-0.2c0-0.1,0-0.2,0.1-0.3L10.9,9h-0.3
		c0,0,0,0,0,0l0-0.2c0,0,0,0,0,0h0.3l0-0.1c0-0.2,0.1-0.4,0.2-0.5c0.1-0.1,0.3-0.2,0.5-0.2c0.1,0,0.1,0,0.2,0c0,0,0.1,0,0.1,0l0,0
		c0,0,0,0,0,0l-0.1,0.2c0,0,0,0-0.1,0c0,0,0,0-0.1,0c0,0-0.1,0-0.1,0c0,0-0.1,0-0.1,0c0,0-0.1,0-0.1,0.1c0,0-0.1,0.1-0.1,0.1
		c0,0.1-0.1,0.3-0.1,0.3L11.7,8.7C11.7,8.7,11.7,8.7,11.7,8.7z M13.3,9.9c0,0.1-0.1,0.2-0.2,0.3c-0.1,0.1-0.2,0.2-0.3,0.2
		c-0.1,0-0.2,0.1-0.4,0.1c-0.1,0-0.3,0-0.4-0.1c-0.1,0-0.2-0.1-0.3-0.2c-0.1-0.1-0.1-0.2-0.2-0.3c0-0.1-0.1-0.2-0.1-0.4
		c0-0.1,0-0.3,0.1-0.4c0-0.1,0.1-0.2,0.2-0.3c0.1-0.1,0.2-0.2,0.3-0.2c0.1,0,0.2-0.1,0.4-0.1c0.1,0,0.3,0,0.4,0.1
		c0.1,0,0.2,0.1,0.3,0.2c0.1,0.1,0.1,0.2,0.2,0.3c0,0.1,0.1,0.2,0.1,0.4S13.4,9.8,13.3,9.9z M14.8,8.7L14.8,8.7c0,0-0.1,0.2-0.1,0.2
		c0,0,0,0,0,0c0,0-0.1,0-0.1,0c0,0-0.1,0-0.2,0c-0.1,0-0.1,0-0.1,0.1c0,0-0.1,0.1-0.1,0.2c0,0.1,0,0.2,0,0.3v0.9c0,0,0,0,0,0h-0.3
		c0,0,0,0,0,0V8.7c0,0,0,0,0,0H14c0,0,0,0,0,0v0.1c0-0.1,0.1-0.1,0.2-0.1c0.1,0,0.2-0.1,0.3,0C14.6,8.7,14.7,8.7,14.8,8.7
		C14.8,8.7,14.8,8.7,14.8,8.7z M16.2,10.4c-0.1,0.1-0.3,0.1-0.5,0.1c-0.3,0-0.5-0.1-0.7-0.3c-0.2-0.2-0.2-0.4-0.2-0.7
		c0-0.1,0-0.3,0.1-0.4c0-0.1,0.1-0.2,0.2-0.3c0.1-0.1,0.2-0.2,0.3-0.2c0.1,0,0.2-0.1,0.4-0.1c0.1,0,0.2,0,0.3,0c0.1,0,0.2,0,0.2,0.1
		c0,0,0,0,0,0c0,0.1-0.1,0.2-0.1,0.2c0,0,0,0,0,0C16,9,15.9,9,15.7,9c-0.2,0-0.3,0.1-0.4,0.2c-0.1,0.1-0.1,0.3-0.1,0.5
		c0,0.2,0.1,0.4,0.1,0.5c0.1,0.1,0.2,0.1,0.4,0.1c0.1,0,0.1,0,0.2,0c0.1,0,0.1,0,0.2,0c0,0,0,0,0,0v0L16.2,10.4
		C16.3,10.4,16.2,10.4,16.2,10.4z M17.9,9.6C17.9,9.7,17.9,9.7,17.9,9.6l-1.2,0c0,0.2,0,0.3,0.1,0.4c0.1,0.1,0.2,0.1,0.4,0.1
		c0.3,0,0.4-0.1,0.5-0.1c0,0,0,0,0,0l0.1,0.2c0,0,0,0,0,0.1c-0.1,0-0.2,0.1-0.6,0.1c-0.2,0-0.3,0-0.4-0.1c-0.1,0-0.2-0.1-0.3-0.2
		c-0.1-0.1-0.1-0.2-0.2-0.3c0-0.1-0.1-0.2-0.1-0.4c0-0.1,0-0.3,0.1-0.4c0-0.1,0.1-0.2,0.2-0.3c0.1-0.1,0.2-0.2,0.3-0.2
		c0.1-0.1,0.2-0.1,0.4-0.1c0.1,0,0.2,0,0.3,0.1c0.1,0,0.1,0.1,0.2,0.2c0,0.1,0.1,0.2,0.1,0.3C18,9.4,17.9,9.6,17.9,9.6z"/>
	<linearGradient id="SVGID_5_" gradientUnits="userSpaceOnUse" x1="17.0424" y1="9.5467" x2="17.3692" y2="8.9805">
		<stop  offset="0" style="stop-color:#B53C77"/>
		<stop  offset="1" style="stop-color:#5D5D95"/>
	</linearGradient>
	<path class="st6" d="M17.2,8.9c-0.2,0-0.3,0.1-0.3,0.2c0,0.1-0.1,0.2-0.1,0.3h0h0.8c0-0.1,0-0.2-0.1-0.3C17.4,9,17.3,8.9,17.2,8.9z
		"/>
</g>
</svg>
