<?xml version="1.0" encoding="utf-8"?>
<!-- Generator: Adobe Illustrator 21.1.0, SVG Export Plug-In . SVG Version: 6.00 Build 0)  -->
<svg version="1.1" id="Layer_1" xmlns="http://www.w3.org/2000/svg" xmlns:xlink="http://www.w3.org/1999/xlink" x="0px" y="0px"
	 viewBox="0 0 20 20" style="enable-background:new 0 0 20 20;" xml:space="preserve">
<style type="text/css">
	.st0{fill:url(#SVGID_1_);}
	.st1{fill:url(#SVGID_2_);}
	.st2{fill:#2F2F5C;}
	.st3{fill:url(#SVGID_3_);}
	.st4{fill:url(#SVGID_4_);}
	.st5{fill:none;}
	.st6{fill:url(#SVGID_5_);}
	.st7{fill:url(#SVGID_6_);}
	.st8{fill:url(#SVGID_7_);}
	.st9{fill:url(#SVGID_8_);}
	.st10{fill:url(#SVGID_9_);}
	.st11{fill:url(#SVGID_10_);}
	.st12{fill:url(#SVGID_11_);}
	.st13{fill:url(#SVGID_12_);}
	.st14{fill:url(#SVGID_13_);}
	.st15{fill:url(#SVGID_14_);}
	.st16{fill:url(#SVGID_15_);}
	.st17{fill:url(#SVGID_16_);}
	.st18{fill:url(#Combined-Shape_2_);}
	.st19{fill:url(#SVGID_17_);}
	.st20{fill:url(#SVGID_18_);}
	.st21{fill:url(#SVGID_19_);}
	.st22{fill:url(#SVGID_20_);}
	.st23{fill:url(#SVGID_21_);}
	.st24{fill:url(#SVGID_22_);}
	.st25{fill:url(#SVGID_23_);}
	.st26{fill:url(#SVGID_24_);}
	.st27{fill:url(#SVGID_25_);}
	.st28{fill:url(#SVGID_26_);}
	.st29{fill:url(#SVGID_27_);}
	.st30{fill:url(#SVGID_28_);}
	.st31{fill:url(#SVGID_29_);}
	.st32{fill:url(#SVGID_30_);fill-opacity:0.36;}
	.st33{fill:url(#SVGID_31_);fill-opacity:0.36;}
	.st34{fill:url(#SVGID_32_);}
	.st35{fill:url(#SVGID_33_);}
	.st36{fill:url(#SVGID_34_);}
	.st37{fill:url(#SVGID_35_);}
	.st38{fill:url(#SVGID_36_);}
	.st39{fill:url(#SVGID_37_);}
	.st40{fill:url(#SVGID_38_);}
	.st41{fill:url(#SVGID_39_);}
	.st42{fill:url(#SVGID_40_);}
	.st43{fill:url(#SVGID_41_);}
	.st44{fill:url(#SVGID_42_);}
	.st45{fill:url(#SVGID_43_);}
	.st46{fill:url(#SVGID_44_);}
	.st47{fill:url(#SVGID_45_);}
	.st48{fill:url(#SVGID_46_);}
	.st49{fill:url(#SVGID_47_);}
	.st50{fill:url(#SVGID_48_);}
	.st51{fill:url(#SVGID_49_);}
	.st52{fill:url(#SVGID_50_);}
	.st53{fill:url(#SVGID_51_);}
	.st54{fill:url(#SVGID_52_);}
	.st55{fill:url(#SVGID_53_);}
	.st56{fill:url(#SVGID_54_);}
	.st57{fill:url(#SVGID_55_);}
	.st58{fill:url(#SVGID_56_);}
	.st59{fill:url(#SVGID_57_);}
	.st60{fill:url(#SVGID_58_);}
	.st61{fill:url(#SVGID_59_);}
	.st62{fill:url(#SVGID_60_);}
	.st63{fill:url(#SVGID_61_);}
	.st64{fill:url(#SVGID_62_);}
	.st65{fill:url(#SVGID_63_);}
	.st66{fill:url(#SVGID_64_);}
	.st67{fill:url(#SVGID_65_);}
	.st68{fill:url(#SVGID_66_);}
	.st69{fill:url(#SVGID_67_);}
	.st70{fill:url(#SVGID_68_);}
	.st71{fill:url(#SVGID_69_);}
	.st72{fill:url(#SVGID_70_);}
	.st73{fill:url(#SVGID_71_);}
	.st74{fill:url(#path2993-path_1_);}
	.st75{fill:url(#path2991-path_1_);}
	.st76{fill:url(#SVGID_72_);}
	.st77{fill:url(#SVGID_73_);}
	.st78{fill:url(#SVGID_74_);}
	.st79{fill:url(#SVGID_75_);}
	.st80{fill:url(#SVGID_76_);}
	.st81{fill:url(#SVGID_77_);}
	.st82{fill:url(#SVGID_78_);}
	.st83{fill:url(#SVGID_79_);}
	.st84{fill:url(#SVGID_80_);}
	.st85{fill:url(#SVGID_81_);}
	.st86{fill:url(#SVGID_82_);}
	.st87{fill:url(#SVGID_83_);}
	.st88{fill:url(#SVGID_84_);}
	.st89{fill:url(#SVGID_85_);}
	.st90{fill:url(#SVGID_86_);}
	.st91{fill:url(#SVGID_87_);}
	.st92{fill:url(#SVGID_88_);}
	.st93{fill:url(#SVGID_89_);}
	.st94{fill:url(#SVGID_90_);}
	.st95{fill:url(#SVGID_91_);}
	.st96{fill:url(#SVGID_92_);}
	.st97{fill:url(#SVGID_93_);}
	.st98{fill:url(#SVGID_94_);}
	.st99{fill:url(#SVGID_95_);}
	.st100{fill:url(#SVGID_96_);}
	.st101{fill:url(#SVGID_97_);}
	.st102{fill:url(#Fill-3_1_);}
	.st103{fill:url(#Fill-1_1_);}
	.st104{fill:url(#Combined-Shape_3_);}
	.st105{fill:url(#SVGID_98_);}
	.st106{fill:url(#SVGID_99_);}
	.st107{fill:url(#SVGID_100_);}
	.st108{fill:url(#SVGID_101_);}
	.st109{fill:url(#SVGID_102_);}
	.st110{fill:url(#SVGID_103_);}
	.st111{fill:url(#SVGID_104_);}
	.st112{fill:url(#Todas-las-cuentas_1_);}
	.st113{fill:url(#Shape_7_);}
	.st114{fill:url(#SVGID_105_);}
	.st115{fill:url(#Shape_8_);}
	.st116{fill:url(#Shape_9_);}
	.st117{fill:url(#Shape_10_);}
	.st118{fill:url(#Shape_11_);}
	.st119{fill:url(#Shape_12_);}
	.st120{fill:url(#Shape_13_);}
	.st121{fill:url(#SVGID_106_);}
	.st122{fill:url(#SVGID_107_);}
	.st123{fill:url(#SVGID_108_);}
	.st124{fill:url(#SVGID_109_);}
	.st125{fill:url(#SVGID_110_);}
	.st126{fill:url(#SVGID_111_);}
	.st127{fill:url(#SVGID_112_);}
	.st128{fill:url(#SVGID_113_);}
	.st129{fill:url(#Combined-Shape_5_);}
	.st130{fill:url(#Combined-Shape_8_);}
	.st131{fill:url(#SVGID_114_);}
	.st132{fill:url(#SVGID_115_);}
</style>
<g>
	<g>
		<linearGradient id="SVGID_1_" gradientUnits="userSpaceOnUse" x1="4.4938" y1="19.175" x2="15.4205" y2="0.2493">
			<stop  offset="0" style="stop-color:#B53C77"/>
			<stop  offset="1" style="stop-color:#5D5D95"/>
		</linearGradient>
		<path class="st0" d="M3.3,3.5c0-0.5-0.3-0.9-0.7-1.1V1.6c0-0.2-0.2-0.4-0.4-0.4S1.8,1.4,1.8,1.6v0.8C1.3,2.6,1,3,1,3.5
			s0.3,0.9,0.7,1.1v3.9C1.3,8.6,1,9,1,9.5s0.3,0.9,0.7,1.1v3.9C1.3,14.6,1,15,1,15.5s0.3,0.9,0.7,1.1v0.8c0,0.2,0.2,0.4,0.4,0.4
			c0.2,0,0.4-0.2,0.4-0.4v-0.8c0.4-0.2,0.7-0.6,0.7-1.1c0-0.5-0.3-0.9-0.7-1.1v-3.9c0.4-0.2,0.7-0.6,0.7-1.1S2.9,8.6,2.5,8.4V4.6
			C2.9,4.4,3.3,4,3.3,3.5z M18.3,2H7.4c0,0-0.5,0-0.7,0.1L5.2,3.2c-0.2,0.2-0.2,0.4,0,0.6l1.5,1.1C6.9,5,7.4,5,7.4,5h10.9
			C18.7,5,19,4.7,19,4.2V2.7C19,2.3,18.7,2,18.3,2z M18.3,8H7.4c0,0-0.5,0-0.7,0.1L5.2,9.2c-0.2,0.2-0.2,0.4,0,0.6l1.5,1.1
			C6.9,11,7.4,11,7.4,11h10.9c0.4,0,0.7-0.3,0.7-0.7V8.7C19,8.3,18.7,8,18.3,8z M18.3,14H7.4c0,0-0.5,0-0.7,0.1l-1.5,1.1
			c-0.2,0.2-0.2,0.4,0,0.6l1.5,1.1C6.9,17,7.4,17,7.4,17h10.9c0.4,0,0.7-0.3,0.7-0.7v-1.5C19,14.3,18.7,14,18.3,14z"/>
	</g>
</g>
</svg>
