<svg id="Layer_1" data-name="Layer 1" xmlns="http://www.w3.org/2000/svg" viewBox="0 0 20 20"><defs><style>.cls-1{fill:none;stroke:#fff;stroke-miterlimit:10;stroke-width:0.5px;}</style></defs><title>icons white line</title><path class="cls-1" d="M13.64,9.45a2.73,2.73,0,1,0-2.73-2.73A2.72,2.72,0,0,0,13.64,9.45Zm-7.27,0A2.73,2.73,0,1,0,3.64,6.73,2.72,2.72,0,0,0,6.36,9.45Zm0,1.82C4.25,11.27,0,12.34,0,14.45v2.27H12.73V14.45C12.73,12.34,8.48,11.27,6.36,11.27Zm7.27,0c-.26,0-.56,0-.88,0a3.84,3.84,0,0,1,1.79,3.14v2.27H20V14.45C20,12.34,15.75,11.27,13.64,11.27Z"/></svg>