<svg id="Layer_1" data-name="Layer 1" xmlns="http://www.w3.org/2000/svg" viewBox="0 0 20 20"><defs><style>.cls-1,.cls-2{fill:none;stroke:#fff;stroke-width:0.5px;}.cls-1{stroke-miterlimit:10;}.cls-2{stroke-linecap:round;stroke-linejoin:round;}</style></defs><title>icons white line</title><path class="cls-1" d="M16.95,17h0m0,0h0"/><path class="cls-1" d="M19,5.89h0V5.46A1.48,1.48,0,0,0,17.52,4h0L10,9.55,2.48,4A1.48,1.48,0,0,0,1,5.46V15.54A1.48,1.48,0,0,0,2.48,17H3V7.31l7,4.85,7-4.8h0V17c1.55,0,2-.4,2-1.47Z"/><polygon class="cls-2" points="16.96 7.35 9.97 12.16 9.94 12.14 9.94 12.14 2.99 7.3 2.99 16.91 2.99 17.02 2.99 17.02 16.96 17.02 16.96 17.02 16.96 17.02 16.96 7.35"/><polygon class="cls-2" points="17.53 3.98 2.47 3.98 9.97 9.55 17.53 3.98"/></svg>