<svg id="Layer_1" data-name="Layer 1" xmlns="http://www.w3.org/2000/svg" xmlns:xlink="http://www.w3.org/1999/xlink" viewBox="0 0 20 20"><defs><style>.cls-1{fill:none;stroke-linecap:round;stroke-linejoin:round;stroke-width:0.35px;stroke:url(#linear-gradient);}</style><linearGradient id="linear-gradient" x1="0.86" y1="19.81" x2="19.13" y2="1.54" gradientUnits="userSpaceOnUse"><stop offset="0" stop-color="#b53c77"/><stop offset="1" stop-color="#5d5d95"/></linearGradient></defs><title>icons_gradient line</title><path class="cls-1" d="M19.49,2.48,17.94.61A1.61,1.61,0,0,0,16.67,0H3.33A1.65,1.65,0,0,0,2,.61L.51,2.48A2.18,2.18,0,0,0,0,3.89V17.78A2.23,2.23,0,0,0,2.22,20H17.78A2.23,2.23,0,0,0,20,17.78V3.89A2.18,2.18,0,0,0,19.49,2.48ZM10,16.11,3.89,10H7.78V7.78h4.44V10h3.89ZM2.36,2.22l.9-1.11H16.59l1,1.11Z"/></svg>