<svg id="Layer_1" data-name="Layer 1" xmlns="http://www.w3.org/2000/svg" xmlns:xlink="http://www.w3.org/1999/xlink" viewBox="0 0 20 20"><defs><style>.cls-1,.cls-2{fill:none;stroke-linecap:round;stroke-linejoin:round;stroke-width:0.35px;}.cls-1{stroke:url(#linear-gradient);}.cls-2{stroke:url(#linear-gradient-2);}</style><linearGradient id="linear-gradient" x1="10.97" y1="8.94" x2="11.16" y2="8.61" gradientUnits="userSpaceOnUse"><stop offset="0" stop-color="#b53c77"/><stop offset="1" stop-color="#5d5d95"/></linearGradient><linearGradient id="linear-gradient-2" x1="4.91" y1="18.81" x2="15.09" y2="1.19" xlink:href="#linear-gradient"/></defs><title>icons_gradient line</title><path class="cls-1" d="M11.07,8.78v0l0,0Z"/><path class="cls-2" d="M10,0A10,10,0,1,0,20,10,10,10,0,0,0,10,0ZM7.36,14.93H5V7.74H7.36ZM6.16,6.76h0a1.25,1.25,0,1,1,0-2.48,1.25,1.25,0,1,1,0,2.48ZM16,14.93H13.58V11.08c0-1-.35-1.63-1.21-1.63a1.31,1.31,0,0,0-1.23.87,1.64,1.64,0,0,0-.08.58v4H8.68s0-6.51,0-7.19h2.39v1a2.37,2.37,0,0,1,2.15-1.19c1.57,0,2.75,1,2.75,3.24Z"/></svg>