<svg id="Layer_1" data-name="Layer 1" xmlns="http://www.w3.org/2000/svg" xmlns:xlink="http://www.w3.org/1999/xlink" viewBox="0 0 20 20"><defs><style>.cls-1,.cls-2,.cls-3,.cls-4,.cls-5{fill:none;stroke-miterlimit:10;stroke-width:0.35px;}.cls-1{stroke:url(#linear-gradient);}.cls-2{stroke:url(#linear-gradient-2);}.cls-3{stroke:url(#linear-gradient-3);}.cls-4{stroke:url(#linear-gradient-4);}.cls-5{stroke:url(#linear-gradient-5);}</style><linearGradient id="linear-gradient" x1="0.61" y1="5.62" x2="14.95" y2="5.62" gradientUnits="userSpaceOnUse"><stop offset="0" stop-color="#b53c77"/><stop offset="1" stop-color="#5d5d95"/></linearGradient><linearGradient id="linear-gradient-2" x1="0.06" y1="8.46" x2="15.5" y2="8.46" xlink:href="#linear-gradient"/><linearGradient id="linear-gradient-3" x1="9.82" y1="14.37" x2="19.94" y2="14.37" xlink:href="#linear-gradient"/><linearGradient id="linear-gradient-4" x1="11.6" y1="14.38" x2="13.73" y2="14.38" xlink:href="#linear-gradient"/><linearGradient id="linear-gradient-5" x1="16.04" y1="14.38" x2="18.17" y2="14.38" xlink:href="#linear-gradient"/></defs><title>icons_gradient line</title><path class="cls-1" d="M1.12,3H14.49L8.15,8.14a.76.76,0,0,1-.7,0L1.07,3Z"/><path class="cls-2" d="M9.11,12.19V13.5h-8a.88.88,0,0,1-.89-.87V3.88a.86.86,0,0,1,.08-.35L6.92,8.87a1.58,1.58,0,0,0,1.69,0l.07,0,6.57-5.32a.86.86,0,0,1,.08.35v7H10.44A1.32,1.32,0,0,0,9.11,12.19Z"/><path class="cls-3" d="M19.32,11.75H10.44a.44.44,0,0,0-.44.44v4.37a.44.44,0,0,0,.44.44h8.88a.44.44,0,0,0,.44-.44V12.19A.44.44,0,0,0,19.32,11.75ZM17.1,16.13H12.66a1.75,1.75,0,1,1,1.78-1.75,1.71,1.71,0,0,1-.25.88h1.38a1.71,1.71,0,0,1-.25-.88,1.78,1.78,0,1,1,1.78,1.75Z"/><ellipse class="cls-4" cx="12.66" cy="14.38" rx="0.89" ry="0.87"/><ellipse class="cls-5" cx="17.1" cy="14.38" rx="0.89" ry="0.87"/></svg>