<svg id="Layer_1" data-name="Layer 1" xmlns="http://www.w3.org/2000/svg" xmlns:xlink="http://www.w3.org/1999/xlink" viewBox="0 0 20 20"><defs><style>.cls-1{fill:none;stroke-miterlimit:10;stroke-width:0.35px;stroke:url(#linear-gradient);}</style><linearGradient id="linear-gradient" x1="-0.27" y1="10" x2="20.27" y2="10" gradientUnits="userSpaceOnUse"><stop offset="0" stop-color="#b53c77"/><stop offset="1" stop-color="#5d5d95"/></linearGradient></defs><title>icons_gradient line</title><path class="cls-1" d="M20,10,17.89,8.15,19,5.55l-2.68-.72L16.24,2l-2.72.54L12.22,0,10,1.7,7.78,0,6.49,2.52,3.76,2,3.67,4.82,1,5.55l1.12,2.6L0,10l2.11,1.85L1,14.45l2.68.72L3.76,18l2.72-.54L7.78,20,10,18.3,12.22,20l1.29-2.52,2.72.54.09-2.84L19,14.45l-1.12-2.6ZM10,16.67A6.67,6.67,0,1,1,16.67,10,6.67,6.67,0,0,1,10,16.67Z"/></svg>