<svg id="Layer_1" data-name="Layer 1" xmlns="http://www.w3.org/2000/svg" xmlns:xlink="http://www.w3.org/1999/xlink" viewBox="0 0 20 20"><defs><style>.cls-1,.cls-2,.cls-3,.cls-4,.cls-5,.cls-6{fill:none;stroke-miterlimit:10;stroke-width:0.35px;}.cls-1{stroke:url(#linear-gradient);}.cls-2{stroke:url(#linear-gradient-2);}.cls-3{stroke:url(#linear-gradient-3);}.cls-4{stroke:url(#linear-gradient-4);}.cls-5{stroke:url(#linear-gradient-5);}.cls-6{stroke:url(#linear-gradient-6);}</style><linearGradient id="linear-gradient" x1="2.66" y1="3.3" x2="8.52" y2="3.3" gradientUnits="userSpaceOnUse"><stop offset="0" stop-color="#b53c77"/><stop offset="1" stop-color="#5d5d95"/></linearGradient><linearGradient id="linear-gradient-2" x1="11.48" y1="12.23" x2="17.34" y2="12.23" xlink:href="#linear-gradient"/><linearGradient id="linear-gradient-3" x1="2.66" y1="15.58" x2="8.52" y2="15.58" xlink:href="#linear-gradient"/><linearGradient id="linear-gradient-4" x1="11.48" y1="4.42" x2="17.34" y2="4.42" xlink:href="#linear-gradient"/><linearGradient id="linear-gradient-5" x1="10.38" y1="17.22" x2="18.44" y2="17.22" xlink:href="#linear-gradient"/><linearGradient id="linear-gradient-6" x1="1.56" y1="8.3" x2="9.62" y2="8.3" xlink:href="#linear-gradient"/></defs><title>icons_gradient line</title><path id="Shape" class="cls-1" d="M5.59.5A2.8,2.8,0,0,0,2.84,3.32a2.76,2.76,0,1,0,5.51,0A2.8,2.8,0,0,0,5.59.5Z"/><path id="Shape-2" data-name="Shape" class="cls-2" d="M14.41,9.44a2.78,2.78,0,1,0,2.76,2.78A2.77,2.77,0,0,0,14.41,9.44Z"/><path id="Shape-3" data-name="Shape" class="cls-3" d="M7.8,16.12H7.24V12.23a.55.55,0,0,0-.55-.56H4.49a.55.55,0,0,0-.55.56v3.89H3.39a.56.56,0,0,0-.39.95l2.2,2.26a.55.55,0,0,0,.78,0l2.2-2.26A.56.56,0,0,0,7.8,16.12Z"/><path id="Shape-4" data-name="Shape" class="cls-4" d="M17,2.93,14.8.67a.55.55,0,0,0-.78,0l-2.2,2.26a.56.56,0,0,0,.39.95h.55V7.77a.55.55,0,0,0,.55.56h2.2a.55.55,0,0,0,.55-.56V3.88h.55A.56.56,0,0,0,17,2.93Z"/><path id="Shape-5" data-name="Shape" class="cls-5" d="M17.1,15a3.81,3.81,0,0,1-5.38,0,3.9,3.9,0,0,0-1.17,2.78v1.15a.55.55,0,0,0,.55.56h6.61a.55.55,0,0,0,.55-.56V17.79A3.9,3.9,0,0,0,17.1,15Z"/><path id="Shape-6" data-name="Shape" class="cls-6" d="M8.28,6.11a3.81,3.81,0,0,1-5.38,0A3.9,3.9,0,0,0,1.73,8.89V10a.55.55,0,0,0,.55.56H8.9A.55.55,0,0,0,9.45,10V8.89A3.9,3.9,0,0,0,8.28,6.11Z"/></svg>