<svg id="Layer_1" data-name="Layer 1" xmlns="http://www.w3.org/2000/svg" xmlns:xlink="http://www.w3.org/1999/xlink" viewBox="0 0 20 20"><defs><style>.cls-1{fill:none;stroke-miterlimit:10;stroke-width:0.35px;stroke:url(#linear-gradient);}</style><linearGradient id="linear-gradient" x1="-0.17" y1="10" x2="20.17" y2="10" gradientUnits="userSpaceOnUse"><stop offset="0" stop-color="#b53c77"/><stop offset="1" stop-color="#5d5d95"/></linearGradient></defs><title>icons_gradient line</title><g id="PROFILE"><g id="status-_Logic_" data-name="status-(Logic)"><g id="Todas-las-cuentas-Copy"><path id="Todas-las-cuentas" class="cls-1" d="M10,20A10,10,0,1,1,20,10,10,10,0,0,1,10,20ZM13.83,9.2a1.36,1.36,0,1,0-1.34-1.36A1.34,1.34,0,0,0,13.83,9.2Zm-3.56,0A1.36,1.36,0,1,0,8.93,7.84,1.34,1.34,0,0,0,10.26,9.2Zm0,.91c-1,0-3.12.53-3.12,1.59v1.13h6.24V11.69C13.38,10.64,11.3,10.11,10.26,10.11Zm3.56,0-.43,0a1.92,1.92,0,0,1,.88,1.56v1.13h2.67V11.69C16.95,10.64,14.86,10.11,13.83,10.11ZM7,9.2A1.36,1.36,0,1,0,5.63,7.84,1.35,1.35,0,0,0,7,9.2Zm-.27.74c-1.1,0-3.31.56-3.31,1.68v1.2H6.21v-1.2A2,2,0,0,1,7.14,10Z"/></g></g></g></svg>