<svg id="Layer_1" data-name="Layer 1" xmlns="http://www.w3.org/2000/svg" xmlns:xlink="http://www.w3.org/1999/xlink" viewBox="0 0 20 20"><defs><style>.cls-1{fill:none;stroke-linecap:round;stroke-linejoin:round;stroke-width:0.35px;stroke:url(#linear-gradient);}</style><linearGradient id="linear-gradient" x1="5.71" y1="17.8" x2="14.56" y2="2.46" gradientUnits="userSpaceOnUse"><stop offset="0" stop-color="#b53c77"/><stop offset="1" stop-color="#5d5d95"/></linearGradient></defs><title>icons_gradient line</title><path class="cls-1" d="M10,12.5a3,3,0,0,0,3-3v-6a3,3,0,0,0-6,0v6A3,3,0,0,0,10,12.5Zm5.3-3A5.19,5.19,0,0,1,10,14.6,5.19,5.19,0,0,1,4.7,9.5H3a7,7,0,0,0,6,6.72V19.5h2V16.22A7,7,0,0,0,17,9.5Z"/></svg>