<svg id="Layer_1" data-name="Layer 1" xmlns="http://www.w3.org/2000/svg" xmlns:xlink="http://www.w3.org/1999/xlink" viewBox="0 0 20 20"><defs><style>.cls-1{fill:none;stroke-linecap:round;stroke-linejoin:round;stroke-width:0.35px;stroke:url(#linear-gradient);}</style><linearGradient id="linear-gradient" x1="4.91" y1="18.81" x2="15.09" y2="1.19" gradientUnits="userSpaceOnUse"><stop offset="0" stop-color="#b53c77"/><stop offset="1" stop-color="#5d5d95"/></linearGradient></defs><title>icons_gradient line</title><path class="cls-1" d="M10,0A10,10,0,1,0,20,10,10,10,0,0,0,10,0Zm1.45,6.76h3.87L11.45,10ZM10.71,15a.51.51,0,0,1-.62.51L4.55,14.26a.53.53,0,0,1-.42-.51V6a.54.54,0,0,1,.45-.52l5.52-.95a.52.52,0,0,1,.6.52V15ZM15.8,7.74v5a.47.47,0,0,1-.53.53H11.45v-2l4.32-3.74A.61.61,0,0,1,15.8,7.74Zm-7.51,0a1.94,1.94,0,0,0-2.1.21,2.7,2.7,0,0,0,0,4.1,2,2,0,0,0,.89.4,1.89,1.89,0,0,0,1.21-.19A2.44,2.44,0,0,0,9.48,10,2.44,2.44,0,0,0,8.29,7.74ZM7.73,11.2a1.11,1.11,0,0,1-1.2,0,1.48,1.48,0,0,1,0-2.37,1.14,1.14,0,0,1,.55-.18,1.06,1.06,0,0,1,.65.17A1.33,1.33,0,0,1,8.23,10,1.33,1.33,0,0,1,7.73,11.2Z"/></svg>