<svg id="Layer_1" data-name="Layer 1" xmlns="http://www.w3.org/2000/svg" xmlns:xlink="http://www.w3.org/1999/xlink" viewBox="0 0 20 20"><defs><style>.cls-1{fill:none;stroke-miterlimit:10;stroke-width:0.35px;stroke:url(#linear-gradient);}</style><linearGradient id="linear-gradient" x1="3.18" y1="16.23" x2="14.16" y2="-2.78" gradientUnits="userSpaceOnUse"><stop offset="0" stop-color="#b53c77"/><stop offset="1" stop-color="#5d5d95"/></linearGradient></defs><title>icons_gradient line</title><path class="cls-1" d="M11,11.13h0C13.13,7.48,16.56,1.53,17.5.26l0,0h0A5.15,5.15,0,0,1,15,.26c-.71,1.32-3.32,5.59-5,8.33h0C8.3,5.79,6.3,2.57,5,.26H5a4.65,4.65,0,0,1-2.49,0h0l0,0c2,3.09,5.31,8.93,6.42,10.85l-.15,8h0A9.2,9.2,0,0,1,10,19a8,8,0,0,1,1.19.12h0Z"/></svg>