<svg id="Layer_1" data-name="Layer 1" xmlns="http://www.w3.org/2000/svg" xmlns:xlink="http://www.w3.org/1999/xlink" viewBox="0 0 20 20"><defs><style>.cls-1{fill:none;stroke-miterlimit:10;stroke-width:0.35px;stroke:url(#linear-gradient);}</style><linearGradient id="linear-gradient" x1="-0.17" y1="10" x2="20.17" y2="10" gradientUnits="userSpaceOnUse"><stop offset="0" stop-color="#b53c77"/><stop offset="1" stop-color="#5d5d95"/></linearGradient></defs><title>icons_gradient line</title><path class="cls-1" d="M10,0A10,10,0,1,0,20,10,10,10,0,0,0,10,0ZM5.59,6.5h8.83L10.23,9.9a.5.5,0,0,1-.46,0L5.55,6.51Zm8.74,7-8.74,0A.58.58,0,0,1,5,12.87V7.09a.57.57,0,0,1,0-.23l4.37,3.53a1,1,0,0,0,1.12,0l0,0,4.34-3.51a.56.56,0,0,1,0,.23s0,4.07,0,5.95C15,13.49,14.33,13.49,14.33,13.49Z"/></svg>