<svg id="Layer_1" data-name="Layer 1" xmlns="http://www.w3.org/2000/svg" xmlns:xlink="http://www.w3.org/1999/xlink" viewBox="0 0 20 20"><defs><style>.cls-1,.cls-2{fill:none;stroke-linecap:round;stroke-linejoin:round;stroke-width:0.35px;}.cls-1{stroke:url(#linear-gradient);}.cls-2{stroke:url(#linear-gradient-2);}</style><linearGradient id="linear-gradient" x1="2.32" y1="7.08" x2="17.67" y2="7.08" gradientUnits="userSpaceOnUse"><stop offset="0" stop-color="#b53c77"/><stop offset="1" stop-color="#5d5d95"/></linearGradient><linearGradient id="linear-gradient-2" x1="-0.17" y1="18.33" x2="20.17" y2="18.33" xlink:href="#linear-gradient"/></defs><title>icons_gradient line</title><path class="cls-1" d="M13.8,7.45,6.35,0,5.18,1.17l2,2L2.87,7.45a1.24,1.24,0,0,0,0,1.77L7.45,13.8a1.25,1.25,0,0,0,1.77,0L13.8,9.22A1.24,1.24,0,0,0,13.8,7.45Zm-9.46.88,4-4,4,4ZM15.83,9.58s-1.67,1.81-1.67,2.92a1.67,1.67,0,1,0,3.33,0C17.5,11.39,15.83,9.58,15.83,9.58Z"/><path class="cls-2" d="M0,16.67H20V20H0Z"/></svg>