<svg id="Layer_1" data-name="Layer 1" xmlns="http://www.w3.org/2000/svg" xmlns:xlink="http://www.w3.org/1999/xlink" viewBox="0 0 20 20"><defs><style>.cls-1,.cls-2{fill:none;stroke-miterlimit:10;stroke-width:0.35px;}.cls-1{stroke:url(#linear-gradient);}.cls-2{stroke:url(#linear-gradient-2);}</style><linearGradient id="linear-gradient" x1="6.41" y1="10.95" x2="13.59" y2="10.95" gradientUnits="userSpaceOnUse"><stop offset="0" stop-color="#b53c77"/><stop offset="1" stop-color="#5d5d95"/></linearGradient><linearGradient id="linear-gradient-2" x1="-0.17" y1="10" x2="20.17" y2="10" xlink:href="#linear-gradient"/></defs><title>icons_gradient line</title><path class="cls-1" d="M6.59,13.59h6.83V8.32H6.59Zm4.88-4.31h1v1h-1Zm-2,0h1v1h-1Zm-2,0h1v1h-1Z"/><path class="cls-2" d="M10,0A10,10,0,1,0,20,10,10,10,0,0,0,10,0Zm4.39,13.59a1,1,0,0,1-1,1H6.59a1,1,0,0,1-1-1V6.88a1,1,0,0,1,1-1h.49V5H8v1H12V5h1v1h.49a1,1,0,0,1,1,1Z"/></svg>