<svg id="Layer_1" data-name="Layer 1" xmlns="http://www.w3.org/2000/svg" xmlns:xlink="http://www.w3.org/1999/xlink" viewBox="0 0 20 20"><defs><style>.cls-1,.cls-10,.cls-11,.cls-2,.cls-3,.cls-4,.cls-5,.cls-6,.cls-7,.cls-8,.cls-9{fill:none;stroke-miterlimit:10;stroke-width:0.35px;}.cls-1{stroke:url(#linear-gradient);}.cls-2{stroke:url(#linear-gradient-2);}.cls-3{stroke:url(#linear-gradient-3);}.cls-4{stroke:url(#linear-gradient-4);}.cls-5{stroke:url(#linear-gradient-5);}.cls-6{stroke:url(#linear-gradient-6);}.cls-7{stroke:url(#linear-gradient-7);}.cls-8{stroke:url(#linear-gradient-8);}.cls-9{stroke:url(#linear-gradient-9);}.cls-10{stroke:url(#linear-gradient-10);}.cls-11{stroke:url(#linear-gradient-11);}</style><linearGradient id="linear-gradient" x1="-0.54" y1="9.47" x2="1.88" y2="5.28" gradientUnits="userSpaceOnUse"><stop offset="0" stop-color="#b53c77"/><stop offset="1" stop-color="#5d5d95"/></linearGradient><linearGradient id="linear-gradient-2" x1="0.23" y1="11.97" x2="5.49" y2="2.85" xlink:href="#linear-gradient"/><linearGradient id="linear-gradient-3" x1="10.29" y1="6.43" x2="11.85" y2="3.74" xlink:href="#linear-gradient"/><linearGradient id="linear-gradient-4" x1="8.86" y1="6.44" x2="10.42" y2="3.74" xlink:href="#linear-gradient"/><linearGradient id="linear-gradient-5" x1="7.44" y1="6.44" x2="8.99" y2="3.74" xlink:href="#linear-gradient"/><linearGradient id="linear-gradient-6" x1="6.01" y1="6.43" x2="7.56" y2="3.74" xlink:href="#linear-gradient"/><linearGradient id="linear-gradient-7" x1="6.69" y1="10.03" x2="9.84" y2="4.57" xlink:href="#linear-gradient"/><linearGradient id="linear-gradient-8" x1="6.34" y1="18.83" x2="14.27" y2="5.1" xlink:href="#linear-gradient"/><linearGradient id="linear-gradient-9" x1="14.29" y1="8.64" x2="15.71" y2="6.18" xlink:href="#linear-gradient"/><linearGradient id="linear-gradient-10" x1="14.51" y1="11.97" x2="19.77" y2="2.85" xlink:href="#linear-gradient"/><linearGradient id="linear-gradient-11" x1="18.12" y1="9.54" x2="20.54" y2="5.35" xlink:href="#linear-gradient"/></defs><title>icons_gradient line</title><path class="cls-1" d="M0,5.48V9.34a.37.37,0,0,0,.36.39h.71V5.09H.36A.37.37,0,0,0,0,5.48Z"/><path class="cls-2" d="M3.57,2H2.14a.37.37,0,0,0-.36.39v10a.37.37,0,0,0,.36.39H3.57a.37.37,0,0,0,.36-.39v-10A.37.37,0,0,0,3.57,2Z"/><path class="cls-3" d="M10.77,6.44a.38.38,0,0,0,.06.09l0,0,.08,0h.15l.07,0,.06,0,0,0a.46.46,0,0,0,.16-.36V3.93a.36.36,0,1,0-.71,0V6.25a.41.41,0,0,0,0,.16Z"/><path class="cls-4" d="M9.64,6.64A.37.37,0,0,0,10,6.25V3.93a.36.36,0,1,0-.71,0V6.25A.37.37,0,0,0,9.64,6.64Z"/><path class="cls-5" d="M8.21,6.64a.37.37,0,0,0,.36-.39V3.93a.36.36,0,1,0-.71,0V6.25A.37.37,0,0,0,8.21,6.64Z"/><path class="cls-6" d="M6.62,6.59l.06,0,.07,0H6.9l.08,0,0,0a.39.39,0,0,0,.06-.09l0,0a.41.41,0,0,0,0-.16V3.93a.36.36,0,1,0-.71,0V6.21a.46.46,0,0,0,.16.36Z"/><path class="cls-7" d="M12.14,8V6.64a.4.4,0,0,0,0-.14,1.15,1.15,0,0,1-.52.76l-.07,0-.07,0-.13,0H11l-.13,0-.09,0-.12-.05-.08,0-.1-.08,0,0,0,0-.07.05-.07.05-.11.06-.07,0-.13,0-.07,0-.21,0-.21,0-.07,0-.13,0-.07,0-.1-.06L9,7.17l-.07-.05-.07.05-.07.05-.1.06-.07,0-.13,0-.07,0-.21,0L8,7.39l-.07,0-.13,0-.07,0-.11-.06-.07-.05L7.5,7.11l0,0,0,0-.1.08-.08,0-.12.05L7,7.37l-.13,0H6.59l-.07,0-.12,0-.1,0-.06,0a1.18,1.18,0,0,1-.53-1H4.64V8.57h7Z"/><path class="cls-8" d="M13.77,5.54a1.79,1.79,0,0,0-1.63-1.22V5.55a1.15,1.15,0,0,1,.71,1.09V8a.8.8,0,0,1-.21.55l-.5.55a.69.69,0,0,1-.51.23H6.2l.19.65,1,1.4a.41.41,0,0,1,.07.27l-.62,7.09a.23.23,0,0,0,.05.17A.19.19,0,0,0,7,19h4.84a.19.19,0,0,0,.15-.07.23.23,0,0,0,.05-.17L11.46,12a1,1,0,0,1,.32-.85l2-1.82a.63.63,0,0,0,.19-.46V6a.24.24,0,0,0,0-.1Z"/><rect class="cls-9" x="14.64" y="6.25" width="0.71" height="2.32"/><path class="cls-10" d="M17.86,2H16.43a.37.37,0,0,0-.36.39v10a.37.37,0,0,0,.36.39h1.43a.37.37,0,0,0,.36-.39v-10A.37.37,0,0,0,17.86,2Z"/><path class="cls-11" d="M19.64,5.09h-.71V9.73h.71A.37.37,0,0,0,20,9.34V5.48A.37.37,0,0,0,19.64,5.09Z"/></svg>