<svg id="Layer_1" data-name="Layer 1" xmlns="http://www.w3.org/2000/svg" xmlns:xlink="http://www.w3.org/1999/xlink" viewBox="0 0 20 20"><defs><style>.cls-1{fill:none;stroke-miterlimit:10;stroke-width:0.35px;stroke:url(#linear-gradient);}</style><linearGradient id="linear-gradient" x1="6.09" y1="16.48" x2="13.61" y2="3.45" gradientUnits="userSpaceOnUse"><stop offset="0" stop-color="#b53c77"/><stop offset="1" stop-color="#5d5d95"/></linearGradient></defs><title>icons_gradient line</title><path class="cls-1" d="M10,5.5A4.55,4.55,0,0,1,14.55,10a4.41,4.41,0,0,1-.33,1.66l2.66,2.66A10.75,10.75,0,0,0,20,10,10.76,10.76,0,0,0,10,3.22a10.59,10.59,0,0,0-3.62.64l2,2A4.41,4.41,0,0,1,10,5.5ZM.9,3,3,5.09l.42.42A10.74,10.74,0,0,0,0,10,10.75,10.75,0,0,0,14,16.1l.38.38L17,19.14,18.19,18,2.06,1.86Zm5,5L7.34,9.45a2.57,2.57,0,0,0-.07.59A2.72,2.72,0,0,0,10,12.77a2.57,2.57,0,0,0,.59-.07L12,14.11A4.52,4.52,0,0,1,5.93,8Zm3.92-.71,2.86,2.86,0-.15A2.72,2.72,0,0,0,10,7.33Z"/></svg>