<svg id="Layer_1" data-name="Layer 1" xmlns="http://www.w3.org/2000/svg" xmlns:xlink="http://www.w3.org/1999/xlink" viewBox="0 0 20 20"><defs><style>.cls-1,.cls-2{fill:none;stroke-miterlimit:10;stroke-width:0.35px;}.cls-1{stroke:url(#linear-gradient);}.cls-2{stroke:url(#linear-gradient-2);}</style><linearGradient id="linear-gradient" x1="4.93" y1="8.09" x2="10.12" y2="-0.91" gradientUnits="userSpaceOnUse"><stop offset="0" stop-color="#b53c77"/><stop offset="1" stop-color="#5d5d95"/></linearGradient><linearGradient id="linear-gradient-2" x1="6.13" y1="20.59" x2="14.2" y2="6.61" xlink:href="#linear-gradient"/></defs><title>icons_gradient line</title><polygon class="cls-1" points="3.77 3.36 8.46 7.95 14.3 2.11 13.47 1.27 8.46 6.28 4.7 2.6 7.75 2.6 7.75 1.6 2.78 1.6 2.78 6.57 3.77 6.57 3.77 3.36"/><path class="cls-2" d="M13.67,12.27V9.33c0-.46-.79-.69-.79-.69H3.45a.82.82,0,0,0-.79.84v8.4a.82.82,0,0,0,.79.84h9.43a.82.82,0,0,0,.79-.84V14.8l3.67,3.36V8.91Z"/></svg>