<svg id="Layer_1" data-name="Layer 1" xmlns="http://www.w3.org/2000/svg" xmlns:xlink="http://www.w3.org/1999/xlink" viewBox="0 0 20 20"><defs><style>.cls-1{fill:none;stroke-miterlimit:10;stroke-width:0.35px;stroke:url(#linear-gradient);}</style><linearGradient id="linear-gradient" x1="-0.17" y1="10" x2="20.17" y2="10" gradientUnits="userSpaceOnUse"><stop offset="0" stop-color="#b53c77"/><stop offset="1" stop-color="#5d5d95"/></linearGradient></defs><title>icons_gradient line</title><path class="cls-1" d="M10,0A10,10,0,1,0,20,10,10,10,0,0,0,10,0Zm4.15,13.71a.43.43,0,0,1-.43.43A7.37,7.37,0,0,1,6.34,6.78a.43.43,0,0,1,.43-.43H8.29a.43.43,0,0,1,.43.43A4.92,4.92,0,0,0,9,8.32a.42.42,0,0,1-.11.43l-1,1a6.52,6.52,0,0,0,2.86,2.86l1-1a.44.44,0,0,1,.44-.1,4.92,4.92,0,0,0,1.55.25.43.43,0,0,1,.43.43Z"/></svg>