<svg id="Layer_1" data-name="Layer 1" xmlns="http://www.w3.org/2000/svg" xmlns:xlink="http://www.w3.org/1999/xlink" viewBox="0 0 20 20"><defs><style>.cls-1{fill:none;stroke-linecap:round;stroke-linejoin:round;stroke-width:0.35px;stroke:url(#linear-gradient);}</style><linearGradient id="linear-gradient" x1="4.92" y1="18.81" x2="15.08" y2="1.21" gradientUnits="userSpaceOnUse"><stop offset="0" stop-color="#b53c77"/><stop offset="1" stop-color="#5d5d95"/></linearGradient></defs><title>icons_gradient line</title><path class="cls-1" d="M20,9A10.25,10.25,0,0,0,13,.5,10.47,10.47,0,0,0,10,0,10,10,0,1,0,20,10ZM9,17.9A7.91,7.91,0,0,1,2,10a11,11,0,0,1,.2-1.8L7,13v1a2,2,0,0,0,2,2Zm6.9-2.5A2,2,0,0,0,14,14H13V11a1.08,1.08,0,0,0-1-1H6V8H8A1.08,1.08,0,0,0,9,7V5h2a2,2,0,0,0,2-2V2.5C17,3.9,17.9,9,17.9,9c0,.3.1.7.1,1A7.91,7.91,0,0,1,15.9,15.4Z"/></svg>