<svg id="Layer_1" data-name="Layer 1" xmlns="http://www.w3.org/2000/svg" xmlns:xlink="http://www.w3.org/1999/xlink" viewBox="0 0 20 20"><defs><style>.cls-1,.cls-2{fill:none;stroke-linecap:round;stroke-linejoin:round;stroke-width:0.35px;}.cls-1{stroke:url(#linear-gradient);}.cls-2{stroke:url(#linear-gradient-2);}</style><linearGradient id="linear-gradient" x1="6.63" y1="11" x2="13.37" y2="11" gradientUnits="userSpaceOnUse"><stop offset="0" stop-color="#b53c77"/><stop offset="1" stop-color="#5d5d95"/></linearGradient><linearGradient id="linear-gradient-2" x1="-0.17" y1="10" x2="20.17" y2="10" xlink:href="#linear-gradient"/></defs><title>icons_gradient line</title><circle class="cls-1" cx="10" cy="11" r="3.2"/><path class="cls-2" d="M7,1,5.17,3H2A2,2,0,0,0,0,5V17a2,2,0,0,0,2,2H18a2,2,0,0,0,2-2V5a2,2,0,0,0-2-2H14.83L13,1Zm3,15a5,5,0,1,1,5-5A5,5,0,0,1,10,16Z"/></svg>