<svg id="Layer_1" data-name="Layer 1" xmlns="http://www.w3.org/2000/svg" xmlns:xlink="http://www.w3.org/1999/xlink" viewBox="0 0 20 20"><defs><style>.cls-1{fill:none;stroke-linecap:round;stroke-linejoin:round;stroke-width:0.35px;stroke:url(#linear-gradient);}</style><linearGradient id="linear-gradient" x1="5.77" y1="17.83" x2="14.62" y2="2.5" gradientUnits="userSpaceOnUse"><stop offset="0" stop-color="#b53c77"/><stop offset="1" stop-color="#5d5d95"/></linearGradient></defs><title>icons_gradient line</title><path class="cls-1" d="M17,9.5H15.3a5.11,5.11,0,0,1-.43,2.05l1.23,1.23A6.59,6.59,0,0,0,17,9.5Zm-4,.17c0-.06,0-.11,0-.17v-6a3,3,0,0,0-6,0v.18ZM2.27,1.5,1,2.77l6,6V9.5a3,3,0,0,0,3,3,2.82,2.82,0,0,0,.65-.08l1.66,1.66A5.5,5.5,0,0,1,10,14.6,5.19,5.19,0,0,1,4.7,9.5H3a7,7,0,0,0,6,6.72V19.5h2V16.22a7,7,0,0,0,2.54-.9l4.19,4.18L19,18.23Z"/></svg>