<svg id="Layer_1" data-name="Layer 1" xmlns="http://www.w3.org/2000/svg" xmlns:xlink="http://www.w3.org/1999/xlink" viewBox="0 0 20 20"><defs><style>.cls-1{fill:none;stroke-linecap:round;stroke-linejoin:round;stroke-width:0.35px;stroke:url(#linear-gradient);}</style><linearGradient id="linear-gradient" x1="1.62" y1="19.49" x2="18.78" y2="2.33" gradientUnits="userSpaceOnUse"><stop offset="0" stop-color="#b53c77"/><stop offset="1" stop-color="#5d5d95"/></linearGradient></defs><title>icons_gradient line</title><path class="cls-1" d="M7.2,9h-2v2h2Zm4,0h-2v2h2Zm4,0h-2v2h2Zm2-7h-1V0h-2V2h-8V0h-2V2h-1a2,2,0,0,0-2,2V18a2,2,0,0,0,2,2h14a2,2,0,0,0,2-2V4A2,2,0,0,0,17.2,2Zm0,16H3.2V7h14Z"/></svg>