<svg id="Layer_1" data-name="Layer 1" xmlns="http://www.w3.org/2000/svg" xmlns:xlink="http://www.w3.org/1999/xlink" viewBox="0 0 20 20"><defs><style>.cls-1,.cls-2{fill:none;stroke-linecap:round;stroke-linejoin:round;stroke-width:0.35px;}.cls-1{stroke:url(#linear-gradient);}.cls-2{stroke:url(#linear-gradient-2);}</style><linearGradient id="linear-gradient" x1="1.62" y1="17.98" x2="11.5" y2="0.87" gradientUnits="userSpaceOnUse"><stop offset="0" stop-color="#b53c77"/><stop offset="1" stop-color="#5d5d95"/></linearGradient><linearGradient id="linear-gradient-2" x1="12.22" y1="15.68" x2="18.84" y2="4.22" xlink:href="#linear-gradient"/></defs><title>icons_gradient line</title><path class="cls-1" d="M.44,2.68V17.1l10.64,1.84V.84Zm7.15,11-4-.38V5.69l3.88-.42V6.8L5.07,7V8.72l2.2-.06v1.52l-2.2,0V12l2.52.14Z"/><path class="cls-2" d="M18.49,4.36h-6.4V5.71h.27a.24.24,0,0,1,.17.07l1,1a.17.17,0,0,1,0,.23l-.35.35a.17.17,0,0,1-.23,0l-.43-.43h-.38V9.45c.66.59,1.22,1,1,1.22s-.53-.07-1-.39V12.9h.16c1.19-.89,2.16-2.5,2.45-2.22s-2,3.35-2.24,3.39h-.37v1.34h6.4a1,1,0,0,0,.95-.95V5.31A1,1,0,0,0,18.49,4.36ZM18.1,12.9v.93a.24.24,0,0,1-.24.24H15.48a.24.24,0,0,1-.17-.07l-1-1a.17.17,0,0,1,0-.23l.35-.35a.17.17,0,0,1,.23,0l.43.43h1.56V11.55C16,10.36,14.43,9.39,14.7,9.1s3.35,2,3.39,2.24Zm0-6V8.33a.24.24,0,0,1-.07.17l-1,1a.17.17,0,0,1-.23,0l-.35-.35a.17.17,0,0,1,0-.23l.43-.43a0,0,0,0,0,0,0V6.88H15.59c-1.19.89-2.16,2.5-2.45,2.22s2-3.35,2.24-3.39h2.48a.24.24,0,0,1,.24.24Z"/></svg>