<svg id="Layer_1" data-name="Layer 1" xmlns="http://www.w3.org/2000/svg" xmlns:xlink="http://www.w3.org/1999/xlink" viewBox="0 0 20 20"><defs><style>.cls-1{fill:none;stroke-linecap:round;stroke-linejoin:round;stroke-width:0.35px;stroke:url(#linear-gradient);}</style><linearGradient id="linear-gradient" x1="3.49" y1="21.28" x2="16.51" y2="-1.28" gradientUnits="userSpaceOnUse"><stop offset="0" stop-color="#b53c77"/><stop offset="1" stop-color="#5d5d95"/></linearGradient></defs><title>icons_gradient line</title><path class="cls-1" d="M17.78,0H2.21A2.2,2.2,0,0,0,0,2.22V17.78A2.21,2.21,0,0,0,2.21,20H17.78A2.23,2.23,0,0,0,20,17.78V2.22A2.23,2.23,0,0,0,17.78,0Zm0,13.33H13.33a3.33,3.33,0,1,1-6.67,0H2.21V2.22H17.78ZM14.44,7.78H12.22V4.44H7.78V7.78H5.56L10,12.22Z"/></svg>