<svg id="Layer_1" data-name="Layer 1" xmlns="http://www.w3.org/2000/svg" viewBox="0 0 20 20"><defs><style>.cls-1{fill:none;stroke:#fff;stroke-miterlimit:10;stroke-width:0.5px;}</style></defs><title>icons white line</title><path class="cls-1" d="M.29,5h0a.89.89,0,0,1,.26-.64.9.9,0,0,1,.64-.27H4.35A.9.9,0,0,1,5,4.38.89.89,0,0,1,5.26,5,10.66,10.66,0,0,0,5.78,7.9a.91.91,0,0,1-.22.93l-2,2a13.49,13.49,0,0,0,2.48,3.4,13.22,13.22,0,0,0,3.41,2.47l2-2a.9.9,0,0,1,.93-.22,10.33,10.33,0,0,0,2.88.52.93.93,0,0,1,.63.27.9.9,0,0,1,.27.64v3.17a.92.92,0,0,1-.91.91A15.39,15.39,0,0,1,.29,5Zm16.2,4.66H10V3.23h1.29V7.49L18.8,0l.91.91L12.23,8.4h4.26Z"/></svg>