<?xml version="1.0" encoding="utf-8"?>
<!-- Generator: Adobe Illustrator 21.1.0, SVG Export Plug-In . SVG Version: 6.00 Build 0)  -->
<svg version="1.1" id="Layer_1" xmlns="http://www.w3.org/2000/svg" xmlns:xlink="http://www.w3.org/1999/xlink" x="0px" y="0px"
	 viewBox="0 0 20 20" style="enable-background:new 0 0 20 20;" xml:space="preserve">
<style type="text/css">
	.st0{fill:none;stroke:#FFFFFF;stroke-miterlimit:10;}
</style>
<title>icons white line</title>
<path class="st0" d="M17.7,12.6l1.3-1.3L17.7,10l-3.2,3.2L6.8,5.5L10,2.3L8.7,1L7.4,2.3L6.1,1L4.2,2.9L2.9,1.6L1.6,2.9l1.3,1.3
	L1,6.1l1.3,1.3L1,8.7L2.3,10l3.2-3.2l7.7,7.7L10,17.7l1.3,1.3l1.3-1.3l1.3,1.3l1.9-1.9l1.3,1.3l1.3-1.3l-1.3-1.3l1.9-1.9L17.7,12.6z
	"/>
</svg>
